<svg width="30" height="30" viewBox="0 0 30 30" fill="none" xmlns="http://www.w3.org/2000/svg">
<path d="M29.5306 18.6483C27.5273 26.684 19.3883 31.5745 11.3516 29.5706C3.3182 27.5672 -1.57222 19.4278 0.432016 11.3926C2.43449 3.35597 10.5734 -1.53482 18.6077 0.468535C26.6439 2.47189 31.534 10.6122 29.5304 18.6484L29.5306 18.6483H29.5306Z" fill="#2B2928"/>
<path d="M21.6144 12.8594C21.9129 10.8633 20.3932 9.79025 18.315 9.07444L18.9892 6.37045L17.3432 5.9603L16.6869 8.5931C16.2542 8.48518 15.8098 8.38348 15.3681 8.28267L16.0292 5.6325L14.3842 5.22235L13.7097 7.92546C13.3516 7.84393 12.9999 7.76335 12.6587 7.67845L12.6606 7.66995L10.3907 7.10312L9.95283 8.86115C9.95283 8.86115 11.174 9.14108 11.1483 9.15831C11.8148 9.32467 11.9354 9.76591 11.9154 10.1156L11.1474 13.1961C11.1933 13.2078 11.2528 13.2246 11.3185 13.251C11.2636 13.2374 11.2052 13.2225 11.1446 13.208L10.0682 17.5233C9.98671 17.7258 9.77995 18.0297 9.31393 17.9143C9.33043 17.9382 8.11759 17.6158 8.11759 17.6158L7.30038 19.4999L9.44239 20.0339C9.84087 20.1338 10.2314 20.2384 10.6159 20.3367L9.9348 23.0717L11.5789 23.4818L12.2534 20.7759C12.7026 20.8978 13.1385 21.0103 13.5652 21.1163L12.8929 23.8095L14.539 24.2196L15.22 21.4898C18.0268 22.021 20.1373 21.8068 21.0256 19.2681C21.7414 17.2241 20.99 16.0451 19.5134 15.2763C20.5889 15.0283 21.399 14.3209 21.615 12.8597L21.6145 12.8593L21.6144 12.8594ZM17.8536 18.133C17.345 20.1769 13.9035 19.072 12.7878 18.7949L13.6916 15.1715C14.8073 15.4501 18.3853 16.0013 17.8537 18.133H17.8536ZM18.3627 12.8298C17.8987 14.689 15.0343 13.7445 14.1052 13.5129L14.9246 10.2266C15.8538 10.4583 18.8461 10.8905 18.3628 12.8298H18.3627Z" fill="#D9BE95"/>
</svg>
