<svg width="30" height="30" viewBox="0 0 30 30" fill="none" xmlns="http://www.w3.org/2000/svg">
<g clip-path="url(#clip0)">
<path d="M15.0008 20.0001C14.7446 20.0001 14.4996 19.8951 14.3233 19.7101L7.76085 12.8351C7.1921 12.2401 7.6146 11.2501 8.43835 11.2501H11.8758V4.06262C11.8758 3.20137 12.5771 2.50012 13.4383 2.50012H16.5633C17.4246 2.50012 18.1258 3.20137 18.1258 4.06262V11.2501H21.5633C22.3871 11.2501 22.8096 12.2401 22.2408 12.8351L15.6783 19.7101C15.5021 19.8951 15.2571 20.0001 15.0008 20.0001Z" fill="url(#paint0_linear)"/>
<path d="M27.8125 27.5H2.1875C0.98125 27.5 0 26.5187 0 25.3125V24.6875C0 23.4813 0.98125 22.5 2.1875 22.5H27.8125C29.0187 22.5 30 23.4813 30 24.6875V25.3125C30 26.5187 29.0187 27.5 27.8125 27.5Z" fill="url(#paint1_linear)"/>
</g>
<defs>
<linearGradient id="paint0_linear" x1="21.8539" y1="2.50012" x2="4.4925" y2="16.9108" gradientUnits="userSpaceOnUse">
<stop stop-color="#CDB185"/>
<stop offset="1" stop-color="#EBD3AE"/>
</linearGradient>
<linearGradient id="paint1_linear" x1="28.7045" y1="22.5" x2="27.0172" y2="32.303" gradientUnits="userSpaceOnUse">
<stop stop-color="#CDB185"/>
<stop offset="1" stop-color="#EBD3AE"/>
</linearGradient>
<clipPath id="clip0">
<rect width="30" height="30" fill="white"/>
</clipPath>
</defs>
</svg>
