<svg width="58" height="60" viewBox="0 0 58 60" fill="none" xmlns="http://www.w3.org/2000/svg">
<g clip-path="url(#clip0)">
<path d="M50.8457 14.3478H44.8617L41.558 9.13045C40.3113 7.17392 38.1296 6.00001 35.8856 6.00001H22.1722C19.9282 6.00001 17.7466 7.17392 16.4999 9.13045L13.1962 14.3478H7.21217C3.40982 14.3478 0.355469 17.5435 0.355469 21.5217V46.8261C0.355469 50.8044 3.40982 54 7.21217 54H50.8457C54.6481 54 57.7024 50.8044 57.7024 46.8261V21.5217C57.7024 17.5435 54.6481 14.3478 50.8457 14.3478ZM29.0289 48.1304C20.4892 48.1304 13.5702 40.8913 13.5702 31.9565C13.5702 23.0217 20.4892 15.8478 29.0289 15.8478C37.5686 15.8478 44.4877 23.087 44.4877 32.0217C44.4877 40.8913 37.5686 48.1304 29.0289 48.1304ZM49.973 24.4565C49.9107 24.4565 49.8484 24.4565 49.7237 24.4565H47.2304C46.1084 24.3913 45.2357 23.4131 45.298 22.2391C45.3604 21.1304 46.1707 20.2826 47.2304 20.2174H49.7237C50.8457 20.1522 51.7807 21.0652 51.843 22.2391C51.9054 23.4131 51.095 24.3913 49.973 24.4565Z" fill="#2B2928"/>
<path d="M29.0298 23.0217C24.2924 23.0217 20.4277 27.0652 20.4277 32.0217C20.4277 36.9782 24.2924 40.9565 29.0298 40.9565C33.7671 40.9565 37.6318 36.913 37.6318 31.9565C37.6318 26.9999 33.7671 23.0217 29.0298 23.0217Z" fill="#2B2928"/>
</g>
<defs>
<clipPath id="clip0">
<rect width="57.3469" height="60" fill="white" transform="translate(0.355469)"/>
</clipPath>
</defs>
</svg>
