<svg width="20" height="20" viewBox="0 0 20 20" fill="none" xmlns="http://www.w3.org/2000/svg">
<path d="M10.0013 0C4.48029 0 0.00128174 4.47335 0.00128174 9.99474C0.00128174 15.5214 4.48029 20 10.0013 20C15.5253 20 20.0005 15.5214 20.0005 9.99474C20.0005 4.47335 15.5253 0 10.0013 0ZM10.7139 15.559C10.4817 15.7657 10.2125 15.8696 9.90757 15.8696C9.59209 15.8696 9.31691 15.7676 9.08202 15.5631C8.84675 15.3591 8.72889 15.0734 8.72889 14.7063C8.72889 14.3807 8.84295 14.1066 9.07034 13.8845C9.29774 13.6624 9.57667 13.5514 9.90757 13.5514C10.2332 13.5514 10.5073 13.6624 10.7297 13.8845C10.9519 14.1066 11.0633 14.3807 11.0633 14.7063C11.0629 15.0681 10.9465 15.3524 10.7139 15.559ZM13.6099 8.37939C13.4315 8.71029 13.2196 8.99561 12.9737 9.2362C12.7287 9.47675 12.2879 9.88105 11.6516 10.4495C11.4762 10.6099 11.335 10.7506 11.2293 10.8718C11.1235 10.9935 11.0444 11.1045 10.9928 11.2054C10.9409 11.3062 10.901 11.4072 10.8728 11.508C10.8445 11.6085 10.802 11.7859 10.7444 12.0392C10.6465 12.5768 10.339 12.8455 9.82208 12.8455C9.55328 12.8455 9.32742 12.7578 9.14333 12.582C8.95998 12.4062 8.86852 12.1453 8.86852 11.799C8.86852 11.365 8.9359 10.9889 9.0703 10.6708C9.20395 10.3527 9.38276 10.0738 9.60488 9.83321C9.82736 9.59266 10.127 9.30729 10.5046 8.97639C10.8355 8.6869 11.0745 8.46858 11.2217 8.32136C11.3693 8.17381 11.4931 8.00968 11.5936 7.82897C11.6949 7.64789 11.7446 7.45176 11.7446 7.23984C11.7446 6.82613 11.5914 6.47754 11.2835 6.19333C10.9759 5.90911 10.5791 5.7668 10.0931 5.7668C9.52434 5.7668 9.10573 5.91022 8.83693 6.19708C8.56814 6.48394 8.34117 6.9063 8.15481 7.46459C7.97864 8.04886 7.6451 8.34095 7.15456 8.34095C6.86507 8.34095 6.62077 8.23892 6.42163 8.03487C6.22286 7.83082 6.12348 7.60987 6.12348 7.37196C6.12348 6.88106 6.28121 6.38339 6.59632 5.87933C6.9118 5.37528 7.37181 4.95778 7.97674 4.62725C8.58129 4.29635 9.28718 4.13069 10.0931 4.13069C10.8427 4.13069 11.5041 4.26921 12.0778 4.54592C12.6515 4.82222 13.0949 5.19832 13.4078 5.67413C13.7202 6.14956 13.8768 6.66645 13.8768 7.22474C13.8776 7.66336 13.7884 8.04849 13.6099 8.37939Z" fill="url(#paint0_linear)"/>
<defs>
<linearGradient id="paint0_linear" x1="19.1369" y1="-6.89862e-08" x2="-1.03944" y2="19.5354" gradientUnits="userSpaceOnUse">
<stop stop-color="#CDB185"/>
<stop offset="1" stop-color="#EBD3AE"/>
</linearGradient>
</defs>
</svg>
