<svg width="30" height="30" viewBox="0 0 30 30" fill="none" xmlns="http://www.w3.org/2000/svg">
<g clip-path="url(#clip0)">
<path d="M15 30C23.2843 30 30 23.2843 30 15C30 6.71573 23.2843 0 15 0C6.71573 0 0 6.71573 0 15C0 23.2843 6.71573 30 15 30Z" fill="#F55B4B"/>
<path d="M29.0707 9.79219H0.928711C3.04688 4.07461 8.54649 0 15 0C21.4535 0 26.9531 4.07461 29.0707 9.79219Z" fill="#DB1B1B"/>
<path d="M29.0707 20.2072H0.928703C-0.312497 16.8465 -0.312497 13.1529 0.928703 9.79221H29.0707C29.2795 10.3555 29.4538 10.931 29.5928 11.5154C30.2774 14.401 30.0958 17.4244 29.0707 20.2072Z" fill="#3586CB"/>
<path d="M15 30C11.9352 30.0001 8.94378 29.0617 6.42817 27.311C3.91256 25.5603 1.99337 23.0812 0.928711 20.2072H29.0707C28.8528 20.7973 28.5974 21.3729 28.3061 21.9305C27.0383 24.3639 25.1274 26.4029 22.7813 27.8257C20.4352 29.2485 17.7438 30.0006 15 30Z" fill="white"/>
<path d="M16.9629 0.127149C11.3742 0.857813 6.75352 4.66406 4.85449 9.79512H0.928711C3.04688 4.07461 8.54649 1.81208e-07 15 1.81208e-07C15.6564 -0.00010124 16.312 0.0423707 16.9629 0.127149Z" fill="#C11A1A"/>
<path d="M3.92577 15C3.92371 16.7771 4.2382 18.5404 4.85448 20.2072H0.928703C-0.312497 16.8465 -0.312497 13.1529 0.928703 9.79221H4.85448C4.64688 10.3556 4.47371 10.9311 4.33593 11.5154C4.06345 12.6569 3.9258 13.8265 3.92577 15Z" fill="#366FCA"/>
<path d="M16.9629 29.8729C16.312 29.9577 15.6564 30.0002 15 30C11.9352 30.0001 8.94378 29.0617 6.42817 27.311C3.91256 25.5603 1.99337 23.0812 0.928711 20.2072H4.85449C5.80252 22.7677 7.43102 25.021 9.56463 26.7246C11.6982 28.4282 14.2561 29.5175 16.9629 29.8752V29.8729Z" fill="#E2E2E2"/>
<path d="M27.3486 17.0139C27.9333 17.0139 28.4074 16.5398 28.4074 15.9551C28.4074 15.3703 27.9333 14.8963 27.3486 14.8963C26.7638 14.8963 26.2898 15.3703 26.2898 15.9551C26.2898 16.5398 26.7638 17.0139 27.3486 17.0139Z" fill="#4C9CD8"/>
<path d="M27.3486 14.4996C27.7628 14.4996 28.0986 14.1638 28.0986 13.7496C28.0986 13.3354 27.7628 12.9996 27.3486 12.9996C26.9344 12.9996 26.5986 13.3354 26.5986 13.7496C26.5986 14.1638 26.9344 14.4996 27.3486 14.4996Z" fill="#4C9CD8"/>
</g>
<defs>
<clipPath id="clip0">
<rect width="30" height="30" fill="white"/>
</clipPath>
</defs>
</svg>
