<svg width="30" height="30" viewBox="0 0 30 30" fill="none" xmlns="http://www.w3.org/2000/svg">
<g clip-path="url(#clip0)">
<path d="M25.6075 4.39389C22.7744 1.56083 19.0076 0.000547428 15.0009 0.000547428C12.3054 0.000547428 9.68798 0.71615 7.38595 2.07529L5.56862 0.25789C5.31731 0.00652397 4.9392 -0.0686515 4.61079 0.0674026C4.28237 0.203398 4.06821 0.523963 4.06821 0.879333V5.08477C4.06821 5.57015 4.46173 5.96367 4.94711 5.96367H9.15255C9.50803 5.96367 9.82854 5.74951 9.96454 5.42109C10.1005 5.09268 10.0254 4.71463 9.77399 4.46326L8.67519 3.36446C10.6086 2.31107 12.7743 1.75829 15.0009 1.75829C22.3027 1.75829 28.2431 7.69868 28.2431 15.0004C28.2431 22.3022 22.3027 28.2426 15.0009 28.2426C7.69919 28.2426 1.75881 22.3022 1.75881 15.0004C1.75881 14.515 1.36529 14.1215 0.879902 14.1215C0.394514 14.1215 0.000999451 14.515 0.000999451 15.0004C0.000999451 19.0071 1.56123 22.7739 4.39434 25.607C7.22752 28.4401 10.9943 30.0004 15.0009 30.0004C19.0076 30.0004 22.7744 28.4401 25.6075 25.607C28.4407 22.7739 30.0009 19.0071 30.0009 15.0004C30.0009 10.9938 28.4406 7.227 25.6075 4.39389ZM5.82602 4.2058V3.00124L6.63244 3.8076C6.63449 3.80965 6.63648 3.8117 6.63853 3.8137L7.0307 4.20586H5.82602V4.2058Z" fill="#D9BE95"/>
<path d="M20.6485 14.121H15.8789V9.35153C15.8789 8.86614 15.4855 8.47263 15 8.47263C14.5146 8.47263 14.1211 8.86614 14.1211 9.35153V14.9999C14.1211 15.4853 14.5146 15.8788 15 15.8788H20.6485C21.1338 15.8788 21.5274 15.4853 21.5274 14.9999C21.5274 14.5146 21.1338 14.121 20.6485 14.121Z" fill="#D9BE95"/>
</g>
<defs>
<clipPath id="clip0">
<rect width="30" height="30" fill="white"/>
</clipPath>
</defs>
</svg>
