<svg width="17" height="17" viewBox="0 0 17 17" fill="none" xmlns="http://www.w3.org/2000/svg">
<path d="M8.49998 0C3.80557 0 0 3.80557 0 8.49998C0 13.1944 3.80557 17 8.49998 17C13.1944 17 17 13.1944 17 8.49998C16.995 3.80767 13.1923 0.00501604 8.49998 0ZM8.49998 15.7857C4.47619 15.7857 1.21427 12.5238 1.21427 8.49998C1.21427 4.47619 4.47619 1.21427 8.49998 1.21427C12.5238 1.21427 15.7857 4.47619 15.7857 8.49998C15.7814 12.522 12.522 15.7814 8.49998 15.7857Z" fill="white"/>
<path d="M8.49999 3.0357C8.16466 3.0357 7.89283 3.30753 7.89283 3.64286V7.89286H3.64286C3.30753 7.89286 3.03571 8.16469 3.03571 8.50002C3.03571 8.83535 3.30753 9.10714 3.64286 9.10714H8.49999C8.83531 9.10714 9.10714 8.83531 9.10714 8.49998V3.64286C9.10714 3.30753 8.83531 3.0357 8.49999 3.0357Z" fill="white"/>
</svg>
