<svg width="30" height="30" viewBox="0 0 30 30" fill="none" xmlns="http://www.w3.org/2000/svg">
<g clip-path="url(#clip0)">
<path d="M15 30C23.2843 30 30 23.2843 30 15C30 6.71573 23.2843 0 15 0C6.71573 0 0 6.71573 0 15C0 23.2843 6.71573 30 15 30Z" fill="#F55B4B"/>
<path d="M30.0011 14.9997C30.0024 15.7773 29.9436 16.5538 29.8253 17.3223C29.4694 19.6092 28.5868 21.782 27.2472 23.6692C27.1482 23.8081 27.048 23.9452 26.9448 24.0794C26.6519 24.4637 26.3413 24.8333 26.0132 25.188C23.9001 27.4709 21.1301 29.0413 18.086 29.6821C17.6876 29.7653 17.2835 29.8325 16.8737 29.8837C15.6324 30.0376 14.3768 30.0376 13.1355 29.8837C12.7261 29.8329 12.322 29.7657 11.9232 29.6821C9.53047 29.182 7.29714 28.1022 5.41925 26.5374C5.23097 26.3811 5.04718 26.2208 4.86788 26.0563C4.5132 25.7313 4.17472 25.3897 3.85245 25.0315C1.4469 22.3613 0.0809213 18.9156 0.00348249 15.3224C-0.0739563 11.7293 1.1423 8.2279 3.43058 5.45651C3.55773 5.30183 3.68898 5.15007 3.82199 5.00065C4.14308 4.64206 4.48058 4.29948 4.83449 3.97292C6.82356 2.13521 9.27382 0.871405 11.9243 0.316084C12.3196 0.233271 12.7222 0.166865 13.1319 0.116865C14.3733 -0.0370425 15.6289 -0.0370425 16.8702 0.116865C17.28 0.167646 17.6841 0.234834 18.0825 0.318427C20.0749 0.734574 21.9609 1.55435 23.6243 2.72722C23.8153 2.86081 24.003 2.99948 24.1874 3.14323C24.5694 3.43854 24.936 3.75202 25.2872 4.08366C25.7311 4.50234 26.1493 4.94749 26.5394 5.41667C28.2707 7.49546 29.4049 10.0055 29.8206 12.6788C29.9404 13.4466 30.0007 14.2226 30.0011 14.9997Z" fill="#3E436D"/>
<path d="M16.8708 29.828C16.9384 29.8386 17.0058 29.8485 17.073 29.8579C17.0054 29.8673 16.938 29.8761 16.8708 29.8843C15.6295 30.0382 14.3739 30.0382 13.1325 29.8843C12.7232 29.8335 12.3191 29.7663 11.9202 29.6827C9.52754 29.1826 7.29421 28.1028 5.41632 26.538C5.22804 26.3817 5.04425 26.2214 4.86495 26.0569C4.51027 25.7319 4.17179 25.3903 3.84952 25.0321C1.44397 22.3619 0.0779916 18.9162 0.000552802 15.323C-0.076886 11.7299 1.13937 8.22852 3.42765 5.45713C3.5548 5.30244 3.68605 5.15069 3.81906 5.00127C4.14015 4.64268 4.47765 4.3001 4.83155 3.97354C6.82063 2.13583 9.27089 0.872021 11.9214 0.3167C12.3191 0.233497 12.7228 0.166895 13.1325 0.116895C14.3739 -0.037012 15.6295 -0.037012 16.8708 0.116895C16.9384 0.125098 17.0058 0.133887 17.073 0.143262C17.0054 0.152637 16.938 0.162598 16.8708 0.173145C16.5974 0.212208 16.3278 0.260645 16.0622 0.318458C15.0558 0.528659 14.074 0.842846 13.1325 1.25596C12.7185 1.43408 12.3144 1.63233 11.9202 1.85068C11.4213 2.12492 10.9384 2.42757 10.4741 2.75713C9.94859 3.13005 9.44756 3.53636 8.97413 3.97354C8.72765 4.20088 8.48839 4.43682 8.25636 4.68135C8.15675 4.78604 8.05909 4.89268 7.96339 5.00127C7.83038 5.15069 7.69913 5.30244 7.57198 5.45713C7.38214 5.68682 7.19933 5.92119 7.02355 6.16026C6.73409 6.55635 6.46417 6.96651 6.21378 7.39072C6.10909 7.56963 6.00753 7.75049 5.90909 7.9333C5.11811 9.41328 4.58228 11.016 4.32413 12.6741C4.08585 14.2134 4.08585 15.7802 4.32413 17.3194C4.6173 19.1996 5.26704 21.0064 6.23839 22.6427C6.43722 22.9771 6.64816 23.3028 6.8712 23.62C6.9298 23.7038 6.98839 23.7876 7.05109 23.8702C7.19562 24.0683 7.34562 24.2624 7.50109 24.4526C7.66046 24.648 7.82472 24.8401 7.99386 25.0292C8.31612 25.3866 8.6546 25.7282 9.00929 26.054C9.18937 26.2185 9.37315 26.3788 9.56065 26.5351C10.2945 27.1462 11.0852 27.6855 11.922 28.1458C12.3153 28.3626 12.7194 28.5618 13.1343 28.7435C14.0757 29.1566 15.0576 29.4708 16.064 29.681C16.33 29.7372 16.5989 29.7862 16.8708 29.828Z" fill="#343A5B"/>
<path d="M26.5383 5.41525L20.898 11.0555L19.2773 12.6774L18.0826 13.8721L17.7644 14.1903L16.8691 15.0844L14.6308 17.3227L13.1308 18.8227L13.0078 18.9445L11.9174 20.035L5.41345 26.5389C5.22517 26.3826 5.04138 26.2223 4.86208 26.0578C4.5074 25.7328 4.16892 25.3912 3.84666 25.033C3.44447 24.5863 3.06957 24.1157 2.724 23.6238L7.40271 18.9451L11.9144 14.4334L12.1552 14.1932L13.1267 13.2211L13.6676 12.6803L14.9566 11.3912L15.2888 11.0584L16.8644 9.48283L18.0767 8.27053L23.6185 2.72873C23.8095 2.86232 23.9972 3.00099 24.1816 3.14474C24.5636 3.44006 24.9302 3.75353 25.2814 4.08517C25.7268 4.50277 26.1465 4.94694 26.5383 5.41525Z" fill="white"/>
<path d="M27.2425 23.6719C27.1435 23.8108 27.0433 23.9479 26.9402 24.0821C26.6472 24.4664 26.3367 24.836 26.0085 25.1906C25.5517 25.6843 25.0623 26.1469 24.5437 26.5752L18.0814 20.1123L16.9136 18.9446L16.8691 18.9L15.2929 17.3227L14.9613 16.9922L13.1308 15.1617L12.1593 14.1903L11.9185 13.9494L10.6464 12.6774L9.02339 11.0555L3.42651 5.45745C3.55366 5.30276 3.68491 5.151 3.81792 5.00159C4.13901 4.64299 4.47651 4.30041 4.83042 3.97385C5.30309 3.53675 5.80334 3.13045 6.32808 2.75745L27.2425 23.6719Z" fill="white"/>
<path d="M21.6198 19.3014L14.8633 26.0573C14.5086 25.7323 14.1702 25.3907 13.8479 25.0324L19.579 19.3014H21.6198Z" fill="#DB1B1B"/>
<path d="M35.2862 4.08224L28.3135 11.0549L28.0792 11.2863L27.9538 11.4117H25.9159L26.2727 11.0549L26.8692 10.459L34.1864 3.14182C34.5684 3.43713 34.935 3.7506 35.2862 4.08224Z" fill="#DB1B1B"/>
<path d="M22.269 11.4123H20.2287L19.8719 11.0555L13.818 5.00158C14.1391 4.64299 14.4766 4.30041 14.8305 3.97385L21.9121 11.0555L21.9186 11.0619L22.269 11.4123Z" fill="#DB1B1B"/>
<path d="M29.8231 12.6767C29.7382 12.1301 29.6227 11.5886 29.4774 11.0548H18.0804V0.316364C17.6819 0.233161 17.2778 0.16656 16.868 0.11656C15.6267 -0.0373477 14.3711 -0.0373477 13.1298 0.11656C12.7204 0.167341 12.3163 0.234528 11.9175 0.318122V11.0548H0.526245C0.380926 11.5886 0.265512 12.1301 0.180542 12.6767C-0.0577393 14.216 -0.0577393 15.7828 0.180542 17.322C0.265512 17.8687 0.380926 18.4101 0.526245 18.9439H11.9175V29.6824C12.3159 29.7656 12.72 29.8328 13.1298 29.8839C14.3711 30.0379 15.6267 30.0379 16.868 29.8839C17.2778 29.8332 17.6819 29.766 18.0804 29.6824V18.9439H29.4745C29.6198 18.4101 29.7352 17.8687 29.8202 17.322C30.0585 15.7828 30.0585 14.216 29.8202 12.6767H29.8231Z" fill="white"/>
<path d="M7.04758 23.8735C7.19211 24.0715 7.34211 24.2657 7.49758 24.4559L5.41516 26.5383C5.22688 26.3821 5.04309 26.2217 4.86379 26.0573C4.50911 25.7323 4.17063 25.3907 3.84836 25.0325C3.44618 24.5857 3.07128 24.1151 2.72571 23.6233L5.37825 20.9707C5.62814 21.5467 5.91426 22.1062 6.23489 22.6459C6.43372 22.9803 6.64465 23.3061 6.8677 23.6233C6.92688 23.7071 6.98665 23.7891 7.04758 23.8735Z" fill="#E0E0E0"/>
<path d="M8.25464 4.68166C8.15503 4.78635 8.05737 4.89299 7.96167 5.00159C7.82866 5.151 7.69741 5.30276 7.57026 5.45745C7.38042 5.68713 7.19761 5.92151 7.02182 6.16057C6.73237 6.55666 6.46245 6.96682 6.21206 7.39104C6.10737 7.56995 6.00581 7.7508 5.90737 7.93362L3.42651 5.45745C3.55366 5.30276 3.68491 5.151 3.81792 5.00159C4.13901 4.64299 4.47651 4.30041 4.83042 3.97385C5.30309 3.53675 5.80334 3.13045 6.32808 2.75745L8.25464 4.68166Z" fill="#E0E0E0"/>
<path d="M4.3207 12.6774C4.08242 14.2166 4.08242 15.7834 4.3207 17.3227C4.40567 17.8693 4.52109 18.4108 4.66641 18.9445H0.527344C0.382024 18.4108 0.26661 17.8693 0.181641 17.3227C-0.0566407 15.7834 -0.0566407 14.2166 0.181641 12.6774C0.26661 12.1307 0.382024 11.5893 0.527344 11.0555H4.66641C4.52109 11.5893 4.40567 12.1307 4.3207 12.6774Z" fill="#E0E0E0"/>
<path d="M13.1309 1.25333C12.7168 1.43341 12.3127 1.63263 11.9186 1.85099V0.317005C12.317 0.233802 12.7211 0.1672 13.1309 0.1172C14.3722 -0.0367068 15.6278 -0.0367068 16.8692 0.1172C16.9367 0.125404 17.0041 0.134193 17.0713 0.143568C17.0037 0.152943 16.9364 0.162904 16.8692 0.17345C16.5957 0.212513 16.3262 0.26095 16.0606 0.318763C15.0543 0.52802 14.0725 0.841224 13.1309 1.25333Z" fill="#E0E0E0"/>
<path d="M30 14.9994C30.0013 14.2218 29.9425 13.4453 29.8242 12.6767H16.875V0.11656C15.6337 -0.0373476 14.3781 -0.0373476 13.1367 0.11656V12.6767H0.178711C-0.0595703 14.216 -0.0595703 15.7828 0.178711 17.322H13.1309V29.8822C14.3722 30.0361 15.6278 30.0361 16.8691 29.8822V17.322H29.8242C29.9425 16.5535 30.0013 15.777 30 14.9994Z" fill="#DB1B1B"/>
<path d="M7.04758 23.8734L4.86321 26.0572C4.50852 25.7322 4.17004 25.3906 3.84778 25.0324L6.2343 22.6459C6.43313 22.9803 6.64407 23.3061 6.86711 23.6233C6.92688 23.707 6.98665 23.7891 7.04758 23.8734Z" fill="#C11717"/>
<path d="M7.02014 6.1635C6.73069 6.55959 6.46077 6.96975 6.21038 7.39396L3.81799 5.00158C4.13909 4.64299 4.47659 4.30041 4.83049 3.97385L7.02014 6.1635Z" fill="#C11717"/>
<path d="M4.3207 12.6774C4.08242 14.2166 4.08242 15.7834 4.3207 17.3227H0.178711C-0.0595703 15.7834 -0.0595703 14.2166 0.178711 12.6774H4.3207Z" fill="#C11717"/>
<path d="M16.8691 0.1172V0.175794C16.5957 0.214857 16.3262 0.263294 16.0605 0.321107C15.0542 0.531308 14.0723 0.845494 13.1309 1.25861V0.1172C14.3722 -0.0367068 15.6278 -0.0367068 16.8691 0.1172Z" fill="#C11717"/>
<path d="M27.7945 15.9486C28.3213 15.9486 28.7484 15.5216 28.7484 14.9947C28.7484 14.4679 28.3213 14.0408 27.7945 14.0408C27.2677 14.0408 26.8406 14.4679 26.8406 14.9947C26.8406 15.5216 27.2677 15.9486 27.7945 15.9486Z" fill="#E23737"/>
<path d="M25.8075 15.6703C26.1807 15.6703 26.4831 15.3679 26.4831 14.9947C26.4831 14.6216 26.1807 14.3192 25.8075 14.3192C25.4344 14.3192 25.132 14.6216 25.132 14.9947C25.132 15.3679 25.4344 15.6703 25.8075 15.6703Z" fill="#E23737"/>
</g>
<defs>
<clipPath id="clip0">
<rect width="30" height="30" fill="white"/>
</clipPath>
</defs>
</svg>
