<svg width="9" height="17" viewBox="0 0 9 17" fill="none" xmlns="http://www.w3.org/2000/svg">
<path d="M6.76856 7.72239C6.10146 7.35373 5.39222 7.07284 4.69001 6.78142C4.28272 6.61289 3.893 6.41627 3.54891 6.14241C2.87128 5.60171 3.00119 4.72394 3.79469 4.37634C4.0194 4.27804 4.25464 4.24644 4.49339 4.23239C5.41329 4.18324 6.28754 4.35177 7.11966 4.75203C7.53397 4.95216 7.6709 4.88896 7.81134 4.4571C7.95881 4.00066 8.0817 3.5372 8.21863 3.07725C8.30992 2.76828 8.19756 2.56464 7.90614 2.43473C7.37246 2.19949 6.82474 2.03095 6.24892 1.93967C5.49755 1.8238 5.49755 1.82029 5.49404 1.06541C5.49053 0.00156049 5.49053 0.00156047 4.42317 0.00156047C4.26868 0.00156047 4.11419 -0.00195059 3.95971 0.00156047C3.46114 0.0156047 3.37687 0.103381 3.36283 0.605463C3.3558 0.830171 3.36283 1.05488 3.35932 1.2831C3.3558 1.9502 3.35229 1.93967 2.71328 2.1714C1.16841 2.73317 0.213403 3.78649 0.111582 5.4718C0.0202945 6.964 0.799751 7.97167 2.02511 8.70549C2.77999 9.15841 3.61562 9.42525 4.41615 9.77987C4.72863 9.9168 5.02707 10.0748 5.28689 10.2925C6.05581 10.928 5.91537 11.9848 5.00249 12.3851C4.51446 12.5993 3.99833 12.6519 3.46816 12.5852C2.65008 12.4834 1.86711 12.2692 1.12979 11.8865C0.69793 11.6618 0.571531 11.7215 0.424067 12.1885C0.297668 12.5922 0.185315 12.9995 0.0729605 13.4068C-0.0780152 13.9545 -0.0218386 14.0844 0.50131 14.3407C1.16841 14.6638 1.88116 14.8288 2.60795 14.9446C3.17674 15.0359 3.1943 15.0605 3.20132 15.6504C3.20483 15.9172 3.20483 16.1876 3.20834 16.4544C3.21185 16.7915 3.37336 16.9881 3.72096 16.9951C4.11419 17.0021 4.51094 17.0021 4.90418 16.9916C5.2272 16.9846 5.39222 16.809 5.39222 16.4825C5.39222 16.1173 5.40978 15.7487 5.39573 15.3835C5.37818 15.0114 5.53969 14.8218 5.89781 14.7234C6.72291 14.4987 7.42513 14.0563 7.96583 13.3963C9.46857 11.5705 8.89626 8.89859 6.76856 7.72239Z" fill="white"/>
</svg>
