<svg width="14" height="14" viewBox="0 0 14 14" fill="none" xmlns="http://www.w3.org/2000/svg">
<g clip-path="url(#clip0)">
<path d="M8.94703 6.35961C8.39765 6.05601 7.81358 5.82469 7.23528 5.5847C6.89987 5.44591 6.57892 5.28399 6.29556 5.05845C5.73751 4.61317 5.84449 3.8903 6.49796 3.60405C6.68301 3.52309 6.87674 3.49706 7.07336 3.4855C7.83093 3.44502 8.5509 3.58381 9.23618 3.91343C9.57737 4.07825 9.69014 4.0262 9.8058 3.67055C9.92724 3.29466 10.0284 2.91299 10.1412 2.53421C10.2164 2.27976 10.1239 2.11205 9.88386 2.00507C9.44436 1.81134 8.99329 1.67255 8.51909 1.59737C7.90032 1.50195 7.90032 1.49906 7.89743 0.877398C7.89454 0.00128511 7.89454 0.00128509 7.01553 0.00128509C6.88831 0.00128509 6.76108 -0.00160637 6.63386 0.00128509C6.22327 0.0128509 6.15388 0.0851375 6.14231 0.498617C6.13653 0.68367 6.14231 0.868724 6.13942 1.05667C6.13653 1.60605 6.13364 1.59737 5.60739 1.78821C4.33515 2.25084 3.54867 3.11828 3.46482 4.50619C3.38964 5.73506 4.03154 6.56491 5.04066 7.16922C5.66233 7.54222 6.3505 7.76197 7.00975 8.05401C7.26709 8.16678 7.51286 8.29689 7.72683 8.47616C8.36006 8.99952 8.2444 9.86985 7.49262 10.1995C7.09071 10.3759 6.66567 10.4192 6.22905 10.3643C5.55534 10.2804 4.91055 10.1041 4.30334 9.78889C3.94769 9.60384 3.8436 9.65299 3.72216 10.0376C3.61806 10.3701 3.52554 10.7055 3.43301 11.0409C3.30868 11.492 3.35494 11.5989 3.78577 11.81C4.33515 12.076 4.92211 12.2119 5.52065 12.3074C5.98906 12.3825 6.00352 12.4028 6.0093 12.8885C6.0122 13.1083 6.0122 13.3309 6.01509 13.5507C6.01798 13.8283 6.15099 13.9902 6.43724 13.996C6.76108 14.0018 7.08782 14.0018 7.41166 13.9931C7.67768 13.9873 7.81358 13.8427 7.81358 13.5738C7.81358 13.2731 7.82803 12.9695 7.81647 12.6688C7.80201 12.3623 7.93502 12.2062 8.22995 12.1252C8.90944 11.9401 9.48773 11.5758 9.93302 11.0322C11.1706 9.52866 10.6993 7.32825 8.94703 6.35961Z" fill="#4A3729"/>
</g>
<defs>
<clipPath id="clip0">
<rect width="14" height="14" fill="white"/>
</clipPath>
</defs>
</svg>
