<svg width="29" height="28" viewBox="0 0 29 28" fill="none" xmlns="http://www.w3.org/2000/svg">
<path d="M24.375 14.0006H28.125V9.3131C28.125 8.7881 27.7125 8.3756 27.1875 8.3756H25.3125V5.5631C25.3125 5.0381 24.9 4.6256 24.375 4.6256H22.1438L20.5312 1.4006C20.2875 0.931849 19.725 0.744349 19.275 0.969349L17.1 2.05685L16.7812 1.4006C16.5375 0.931849 15.975 0.744349 15.525 0.969349L8.2125 4.6256H2.8125C1.25625 4.6256 0 5.88185 0 7.4381V24.3131C0 25.8693 1.25625 27.1256 2.8125 27.1256H27.1875C27.7125 27.1256 28.125 26.7131 28.125 26.1881V21.5006H24.375C22.3125 21.5006 20.625 19.8131 20.625 17.7506C20.625 15.6881 22.3125 14.0006 24.375 14.0006ZM23.4375 6.5006V7.2131L23.0813 6.5006H23.4375ZM1.93125 7.75685C1.89375 7.6631 1.875 7.5506 1.875 7.4381C1.875 6.9131 2.2875 6.5006 2.8125 6.5006H4.4625L1.93125 7.75685ZM4.9125 8.3756L15.525 3.06935L18.1687 8.3756H4.9125ZM20.2688 8.3756L17.9437 3.7256L19.275 3.06935L21.9187 8.3756H20.2688Z" fill="#D9BE95"/>
</svg>
