<svg width="223" height="98" viewBox="0 0 223 98" fill="none" xmlns="http://www.w3.org/2000/svg">
<path d="M25.5757 59.226C25.3678 59.0553 25.1855 58.8558 25.034 58.6336C24.9256 58.4548 24.8671 58.2502 24.8647 58.0411C24.8672 57.827 24.9384 57.6193 25.0679 57.4487C25.2193 57.2203 25.415 57.0246 25.6434 56.8732C27.7031 55.7152 29.9679 54.9679 32.3123 54.6728C36.1374 53.994 39.9967 53.525 43.873 53.2679C48.2908 52.9294 53.301 52.7093 58.6497 52.6247C63.9985 52.5401 69.6688 52.6247 75.5761 52.8109C81.4834 52.9971 87.1706 53.3695 92.3501 53.8096C97.5296 54.2496 102.506 54.8421 106.636 55.5022C110.221 56.0083 113.767 56.7605 117.249 57.7534C120.042 58.5828 121.87 59.446 122.327 60.4278C122.422 60.5612 122.476 60.7205 122.479 60.8848C122.513 61.0295 122.513 61.1801 122.479 61.3249C122.412 61.4845 122.32 61.6329 122.208 61.7649C122.064 61.927 121.899 62.0693 121.717 62.1881L118.146 64.744C118.324 64.6201 118.488 64.4783 118.637 64.3208C118.754 64.1989 118.846 64.0551 118.908 63.8976C118.941 63.7528 118.941 63.6023 118.908 63.4575C118.906 63.3032 118.865 63.1518 118.789 63.0175C118.366 62.1035 116.707 61.2233 114.151 60.3939C110.928 59.4356 107.642 58.7004 104.317 58.1935C100.424 57.5503 95.8539 56.9917 90.9791 56.5008C86.1043 56.01 80.8233 55.7222 75.2545 55.5191C69.6857 55.316 64.337 55.2652 59.3606 55.3499C54.3843 55.4345 49.6619 55.6714 45.5318 56.01C41.9249 56.2784 38.3363 56.7532 34.7836 57.4318C32.6191 57.7246 30.5386 58.4622 28.6732 59.5983C28.4774 59.7536 28.3111 59.9428 28.1823 60.1569C28.0745 60.3297 28.0159 60.5287 28.013 60.7324C28.0341 60.9429 28.1037 61.1457 28.2162 61.3249C28.364 61.5451 28.547 61.7395 28.7578 61.9003L25.5757 59.226Z" fill="url(#paint0_linear)"/>
<path d="M8.24316 79.707L11.3068 82.3645C13.4102 83.9611 15.7678 85.1914 18.2805 86.0036C22.3097 87.4182 26.4328 88.5494 30.6198 89.3889C35.6977 90.4383 41.4019 91.3524 47.8 92.0971C54.1982 92.8419 61.3411 93.4343 68.8056 93.7898C76.8795 94.1621 84.7164 94.2129 92.0455 94.0098C99.3746 93.8067 105.959 93.3328 111.832 92.6388C116.74 92.1126 121.604 91.2416 126.389 90.0321C129.341 89.3988 132.16 88.253 134.717 86.6468L138.102 84.1756C135.438 85.7959 132.511 86.9359 129.453 87.5439C124.442 88.7823 119.352 89.6758 114.219 90.2183C108.058 90.9292 101 91.4031 93.3319 91.6062C85.6643 91.8094 77.2857 91.7586 68.7379 91.3693C60.8503 91.0139 53.3857 90.4214 46.5306 89.6767C39.6754 88.9319 33.6835 87.984 28.4024 86.8669C24.0286 86.0445 19.7185 84.9133 15.5046 83.4816C12.882 82.6576 10.4244 81.3801 8.24316 79.707Z" fill="url(#paint1_linear)"/>
<path d="M7.31209 59.514L7.59984 59.2601L7.75218 59.1246L8.03992 58.8708L8.32767 58.5999L8.48001 58.4814L8.76776 58.2106L9.05551 57.9567L9.20784 57.8213L9.49559 57.5674L9.78334 57.2966L9.93567 57.1781L10.2234 56.9073C8.97088 58.0414 9.36018 59.2093 11.2898 60.3772C14.6779 62.0524 18.2935 63.2215 22.0211 63.8471C28.6502 65.2187 35.3448 66.2525 42.0788 66.9446C50.2712 67.8248 59.5807 68.5188 69.6349 68.9081C80.1631 69.3312 90.2681 69.3651 99.3576 69.0943C108.447 68.8235 116.132 68.2649 122.377 67.4016C126.887 66.9793 131.327 66.0014 135.597 64.4903C138.136 63.3901 138.982 62.1714 137.865 60.885L140.675 63.6948C141.893 65.1166 141.098 66.4707 138.491 67.6725C134.081 69.3669 129.465 70.4655 124.764 70.9392C116.75 71.9758 108.688 72.5972 100.61 72.8012C91.0298 73.1228 80.2985 73.0889 69.2625 72.6488C58.7005 72.3103 48.9001 71.6163 40.3015 70.6176C33.248 69.8787 26.241 68.7485 19.3129 67.2324C15.4371 66.52 11.6964 65.2065 8.22612 63.3393C6.22881 62.036 5.92413 60.7496 7.31209 59.514Z" fill="url(#paint2_linear)"/>
<path d="M29.3672 62.3069C31.7996 63.5852 34.4144 64.4815 37.1195 64.9643C41.8374 65.9753 46.6062 66.7324 51.4053 67.2324C57.1772 67.8756 63.7277 68.3665 70.7691 68.6542C77.8104 68.942 84.6317 68.9589 90.7929 68.7727C96.9541 68.5865 102.269 68.2142 106.67 67.6725C109.984 67.3495 113.252 66.6684 116.419 65.6414C118.468 64.8627 119.365 63.9487 118.908 63.0347C118.451 62.1207 116.826 61.2405 114.27 60.4111C111.046 59.4528 107.76 58.7176 104.436 58.2107C100.543 57.5675 95.9724 57.0089 91.0976 56.5181C86.2228 56.0272 80.9418 55.7394 75.373 55.5363C69.8043 55.3332 64.4555 55.2824 59.4792 55.367C54.5028 55.4517 49.7804 55.6887 45.6504 56.0272C42.0434 56.2957 38.4548 56.7704 34.9021 57.449C32.7376 57.7418 30.6572 58.4795 28.7917 59.6156C27.7423 60.4619 27.9793 61.4267 29.3672 62.3069Z" fill="url(#paint3_linear)"/>
<path d="M20.4808 53.5388C24.6786 52.7941 29.875 52.2186 35.7146 51.8462C41.5541 51.4738 47.8507 51.1691 54.6721 51.0845C61.4934 50.9999 68.6363 51.0845 76.1347 51.3215C83.6331 51.5585 90.8268 52.0155 97.445 52.574C104.063 53.1326 110.444 53.8604 115.929 54.6898C120.737 55.3614 125.502 56.3166 130.197 57.5504C134.091 58.6506 136.782 59.8354 137.831 61.071C138.881 62.3067 138.102 63.5761 135.563 64.6763C131.293 66.1875 126.853 67.1653 122.344 67.5877C116.098 68.4001 108.278 68.9756 99.3238 69.2803C90.3697 69.585 80.1293 69.5173 69.6011 69.0942C59.0729 68.671 49.4249 67.9601 40.9956 67.0122C34.1688 66.2996 27.3875 65.2033 20.684 63.7285C15.6061 62.5436 12.2208 61.2911 10.5282 60.0216C8.83552 58.7521 9.05556 57.6012 10.9513 56.4671C13.9471 54.9784 17.166 53.9893 20.4808 53.5388ZM25.5587 56.9241C24.357 57.8043 24.5601 58.7352 25.9988 59.6492C28.5896 60.9629 31.3624 61.8815 34.225 62.3744C39.3082 63.432 44.4442 64.2173 49.6111 64.7271C55.84 65.4042 62.9321 65.9289 70.5828 66.2167C78.2335 66.5044 85.6134 66.5552 92.2824 66.369C98.9514 66.1828 104.689 65.7935 109.429 65.2349C112.959 64.9229 116.444 64.2247 119.822 63.153C121.988 62.3574 122.885 61.4604 122.327 60.4786C121.768 59.4969 119.974 58.6336 117.249 57.8043C113.767 56.8114 110.221 56.0592 106.636 55.5531C102.455 54.8929 97.6142 54.3175 92.3501 53.8604C87.086 53.4034 81.5173 53.0649 75.5761 52.8618C69.635 52.6587 63.9477 52.5909 58.6498 52.6756C53.3518 52.7602 48.2908 52.9803 43.8731 53.3188C39.9968 53.5759 36.1374 54.0449 32.3124 54.7236C29.9715 55.0031 27.7068 55.7331 25.6434 56.8733L25.5587 56.9241Z" fill="url(#paint4_linear)"/>
<path d="M6.61832 76.9311L6.48291 61.0542C6.48291 62.2052 7.8878 63.39 10.5791 64.541C14.5672 66.0659 18.6941 67.1996 22.9015 67.9263C28.4364 69.0265 35.2069 70.0421 42.993 70.8545C50.7792 71.667 59.8178 72.344 69.2966 72.7333C79.4524 73.1396 89.2528 73.2073 98.1899 72.9703C107.127 72.7334 114.845 72.2086 121.362 71.4639C126.35 70.9858 131.285 70.0567 136.105 68.6879C139.372 67.6385 141.183 66.4537 141.183 65.1842L139.879 81.2811C139.744 82.9738 137.967 84.4125 134.7 85.7835C129.975 87.5272 125.07 88.7366 120.076 89.3889C112.475 90.5011 104.818 91.1849 97.1404 91.4369C88.3049 91.8093 78.6399 91.7924 68.6195 91.3354C59.2593 90.9122 50.4914 90.1506 42.6545 89.1519C35.968 88.3333 29.3335 87.1352 22.783 85.5635C18.5701 84.6182 14.4847 83.175 10.6129 81.2642C8.02321 79.8932 6.63525 78.4037 6.61832 76.9311Z" fill="url(#paint5_linear)"/>
<path d="M83.819 64.7272C63.152 64.0501 68.8562 60.4618 62.0856 60.2079C60.156 60.2079 58.548 60.3094 58.5311 60.9865C58.5142 61.6635 62.9489 62.0528 62.9489 62.0528L62.7796 63.0345L48.9 63.2715C47.1933 63.0368 45.599 62.2869 44.3299 61.1219L35.8667 60.8511V59.4293L36.0529 58.4644L44.5161 59.7508C46.4118 58.1936 54.0456 57.6351 63.135 57.9397C84.056 58.6506 78.2334 62.256 85.2916 62.4929C87.2043 62.4929 88.3384 62.3575 88.3722 61.6974C88.4061 61.0373 86.4088 60.0047 83.2943 59.26L83.7006 58.7014L97.1062 58.9722C100.051 59.6662 102.184 60.6649 102.624 61.6804L111.392 62.3744L111.257 63.3731L102.184 63.0515C100.035 64.5071 92.553 65.0318 83.819 64.7272Z" fill="url(#paint6_linear)"/>
<path d="M84.09 63.7454C63.423 63.0515 69.161 59.4462 62.4243 59.2092C60.5116 59.2092 58.8867 59.3107 58.8698 59.9878C58.8528 60.6648 60.19 61.2742 62.9829 62.0528L49.2556 62.2897C47.5457 62.0491 45.9476 61.3002 44.6686 60.1401L36.0869 59.8524V58.4644L44.8209 58.7521C46.7167 57.2118 54.3674 56.6533 63.4399 56.958C84.3439 57.6519 78.5382 61.2742 85.5796 61.5111C87.5092 61.5111 88.6432 61.3757 88.6601 60.7156C88.6771 60.0555 86.7136 59.023 83.5822 58.2782L97.3941 57.9905C100.339 58.6675 102.472 59.6831 102.929 60.6987L111.392 60.9864V62.3744L102.557 62.1544C100.339 63.5254 92.7902 64.0332 84.09 63.7454Z" fill="url(#paint7_linear)"/>
<path d="M139.473 80.6547C139.531 80.6618 139.59 80.6567 139.647 80.6397C139.703 80.6227 139.755 80.5941 139.799 80.5559C139.844 80.5177 139.88 80.4706 139.905 80.4177C139.931 80.3648 139.945 80.3072 139.947 80.2485L140.776 68.4846C140.781 68.4268 140.774 68.3687 140.756 68.3135C140.738 68.2583 140.709 68.2072 140.672 68.1632C140.634 68.1191 140.588 68.083 140.536 68.0568C140.484 68.0307 140.428 68.015 140.37 68.0107C140.269 68.0253 140.176 68.0732 140.105 68.1468C140.035 68.2204 139.991 68.3155 139.981 68.417L139.151 80.2654C139.159 80.3555 139.193 80.4411 139.251 80.5108C139.308 80.5804 139.386 80.6307 139.473 80.6547Z" fill="#B37100"/>
<path d="M138.542 81.6026C138.6 81.6096 138.659 81.6045 138.716 81.5875C138.772 81.5705 138.824 81.542 138.868 81.5038C138.913 81.4656 138.949 81.4185 138.975 81.3656C139 81.3126 139.014 81.255 139.016 81.1963L139.845 69.3479C139.85 69.2879 139.843 69.2275 139.824 69.1703C139.805 69.113 139.775 69.0601 139.736 69.0145C139.697 68.9689 139.649 68.9315 139.595 68.9044C139.541 68.8774 139.482 68.8613 139.422 68.857C139.32 68.8686 139.225 68.9156 139.154 68.9898C139.083 69.064 139.04 69.1608 139.033 69.2633L138.204 81.1117C138.188 81.2211 138.214 81.3323 138.277 81.4232C138.34 81.5142 138.434 81.5782 138.542 81.6026Z" fill="#B37001"/>
<path d="M137.019 82.5673C137.08 82.5719 137.142 82.5641 137.2 82.5442C137.258 82.5244 137.312 82.493 137.358 82.4519C137.404 82.4108 137.441 82.3608 137.467 82.305C137.493 82.2492 137.507 82.1888 137.509 82.1272L138.322 70.1434C138.327 70.0205 138.283 69.9005 138.201 69.8089C138.119 69.7173 138.005 69.6612 137.882 69.6525C137.776 69.6672 137.679 69.7169 137.605 69.7937C137.532 69.8704 137.486 69.9698 137.476 70.0757L136.663 82.0764C136.656 82.1869 136.687 82.2965 136.752 82.3861C136.817 82.4758 136.911 82.5399 137.019 82.5673Z" fill="#B47001"/>
<path d="M132.296 84.4126C132.361 84.4196 132.427 84.4132 132.489 84.3936C132.552 84.374 132.609 84.3417 132.659 84.2988C132.708 84.2559 132.748 84.2033 132.776 84.1442C132.804 84.0851 132.819 84.0209 132.821 83.9556L133.6 71.7686C133.604 71.7041 133.596 71.6394 133.576 71.5781C133.555 71.5167 133.523 71.4601 133.48 71.4113C133.438 71.3626 133.386 71.3227 133.328 71.294C133.27 71.2652 133.207 71.2482 133.143 71.2439C133.028 71.2588 132.922 71.3121 132.842 71.3952C132.762 71.4783 132.713 71.5861 132.703 71.7009L131.924 83.9048C131.913 84.0204 131.945 84.1359 132.014 84.2295C132.082 84.3231 132.183 84.3882 132.296 84.4126Z" fill="#B56F02"/>
<path d="M129.148 85.3096C129.214 85.3142 129.28 85.3055 129.342 85.2839C129.405 85.2624 129.462 85.2284 129.511 85.1842C129.56 85.1399 129.6 85.0863 129.627 85.0264C129.655 84.9665 129.67 84.9016 129.673 84.8357L130.451 72.5302C130.456 72.4635 130.447 72.3965 130.426 72.3332C130.404 72.2698 130.371 72.2113 130.327 72.1609C130.283 72.1106 130.229 72.0695 130.169 72.0399C130.109 72.0103 130.044 71.9929 129.977 71.9886C129.862 72.0071 129.755 72.0638 129.676 72.1497C129.596 72.2356 129.547 72.3457 129.537 72.4625L128.759 84.7679C128.747 84.89 128.78 85.0121 128.852 85.1116C128.923 85.2112 129.029 85.2815 129.148 85.3096Z" fill="#B56E03"/>
<path d="M125.492 86.1389C125.56 86.1458 125.629 86.1389 125.694 86.1187C125.76 86.0984 125.82 86.0651 125.872 86.0209C125.925 85.9766 125.967 85.9223 125.998 85.8611C126.029 85.7999 126.047 85.7332 126.051 85.6649L126.812 73.2579C126.817 73.1889 126.808 73.1198 126.786 73.0544C126.764 72.9889 126.729 72.9285 126.683 72.8766C126.637 72.8247 126.582 72.7824 126.52 72.7519C126.458 72.7215 126.391 72.7036 126.322 72.6993C126.2 72.7149 126.088 72.7726 126.004 72.8622C125.921 72.9519 125.871 73.0679 125.865 73.1902L125.103 85.5972C125.088 85.7199 125.119 85.8439 125.191 85.9443C125.264 86.0447 125.371 86.1142 125.492 86.1389Z" fill="#B66D03"/>
<path d="M121.328 86.9347C121.399 86.9392 121.469 86.9296 121.536 86.9064C121.602 86.8831 121.663 86.8467 121.715 86.7993C121.767 86.7519 121.809 86.6945 121.839 86.6305C121.868 86.5665 121.885 86.4973 121.887 86.4268L122.649 73.9183C122.653 73.848 122.643 73.7775 122.62 73.711C122.597 73.6445 122.561 73.5834 122.513 73.5312C122.466 73.4791 122.408 73.437 122.344 73.4076C122.28 73.3781 122.211 73.3618 122.141 73.3597H122.056C121.933 73.3748 121.818 73.4318 121.732 73.5211C121.646 73.6105 121.593 73.7268 121.582 73.8506L120.82 86.3591C120.816 86.4303 120.825 86.5017 120.848 86.5691C120.872 86.6366 120.908 86.6989 120.955 86.7524C121.002 86.8058 121.059 86.8495 121.123 86.8807C121.187 86.912 121.257 86.9304 121.328 86.9347Z" fill="#B66D04"/>
<path d="M116.809 87.6453C116.88 87.6523 116.953 87.6445 117.021 87.6223C117.09 87.6001 117.153 87.5641 117.207 87.5165C117.261 87.4689 117.304 87.4106 117.335 87.3454C117.365 87.2802 117.382 87.2095 117.384 87.1375L118.129 74.5104C118.134 74.4393 118.124 74.3679 118.101 74.3004C118.078 74.233 118.042 74.1707 117.995 74.1172C117.947 74.0638 117.89 74.0201 117.826 73.9889C117.762 73.9576 117.692 73.9392 117.621 73.9349H117.52C117.392 73.9543 117.275 74.0171 117.189 74.1128C117.103 74.2084 117.052 74.3309 117.046 74.4596L116.25 87.0698C116.245 87.1452 116.256 87.2207 116.283 87.2915C116.309 87.3624 116.349 87.427 116.402 87.4812C116.455 87.5354 116.518 87.578 116.588 87.6062C116.658 87.6345 116.733 87.6478 116.809 87.6453Z" fill="#B66C04"/>
<path d="M111.816 88.2885C111.89 88.2955 111.964 88.2873 112.035 88.2643C112.105 88.2413 112.17 88.204 112.226 88.1548C112.281 88.1056 112.326 88.0455 112.358 87.9783C112.389 87.911 112.406 87.838 112.408 87.7638L113.153 75.0352C113.157 74.9604 113.147 74.8856 113.122 74.815C113.097 74.7444 113.058 74.6795 113.008 74.6242C112.957 74.5689 112.896 74.5244 112.828 74.4933C112.76 74.4621 112.686 74.4449 112.611 74.4428C112.481 74.4512 112.358 74.5078 112.268 74.6017C112.177 74.6957 112.124 74.82 112.12 74.9506L111.376 87.6792C111.36 87.8173 111.396 87.9563 111.478 88.069C111.559 88.1816 111.68 88.2599 111.816 88.2885Z" fill="#B76B05"/>
<path d="M106.433 88.8471C106.508 88.8542 106.584 88.8454 106.656 88.8214C106.727 88.7974 106.793 88.7586 106.849 88.7076C106.905 88.6566 106.949 88.5944 106.98 88.5252C107.01 88.4559 107.026 88.3811 107.025 88.3055L107.753 75.4753C107.758 75.3997 107.747 75.3239 107.723 75.2523C107.698 75.1808 107.659 75.1148 107.609 75.0582C107.558 75.0016 107.497 74.9555 107.429 74.9225C107.361 74.8895 107.287 74.8703 107.211 74.866H107.11C106.977 74.8822 106.854 74.9458 106.764 75.0453C106.673 75.1448 106.622 75.2734 106.619 75.4076L105.891 88.2378C105.887 88.3134 105.897 88.3891 105.922 88.4607C105.947 88.5323 105.985 88.5983 106.036 88.6549C106.086 88.7115 106.147 88.7576 106.215 88.7906C106.283 88.8236 106.357 88.8428 106.433 88.8471Z" fill="#B76B05"/>
<path d="M100.661 89.2363C100.738 89.2433 100.817 89.2341 100.89 89.2092C100.964 89.1844 101.032 89.1444 101.089 89.0918C101.147 89.0392 101.192 88.9752 101.223 88.9039C101.255 88.8326 101.271 88.7555 101.27 88.6777L101.981 75.746C101.991 75.5915 101.939 75.4395 101.838 75.3225C101.737 75.2055 101.594 75.1327 101.44 75.1197H101.338C101.2 75.1317 101.071 75.1931 100.975 75.2926C100.878 75.3921 100.821 75.523 100.813 75.6613L100.102 88.5931C100.095 88.6722 100.105 88.752 100.129 88.8276C100.154 88.9032 100.193 88.9731 100.245 89.0331C100.297 89.0931 100.361 89.1421 100.432 89.177C100.504 89.2119 100.582 89.232 100.661 89.2363Z" fill="#B86A06"/>
<path d="M94.5335 89.6428C94.6119 89.6497 94.6908 89.6406 94.7654 89.6159C94.8401 89.5911 94.9089 89.5514 94.9676 89.4991C95.0262 89.4467 95.0736 89.3829 95.1066 89.3116C95.1397 89.2402 95.1578 89.1628 95.1598 89.0842L95.9384 76.034C95.9431 75.8752 95.8855 75.7208 95.778 75.6039C95.6705 75.4869 95.5216 75.4165 95.3629 75.4077H95.2614C95.1191 75.424 94.9876 75.4913 94.8912 75.5971C94.7947 75.7029 94.7398 75.8401 94.7367 75.9833L94.0257 89.0165C94.0157 89.1657 94.0625 89.3132 94.1567 89.4294C94.2509 89.5456 94.3855 89.6218 94.5335 89.6428Z" fill="#B86A06"/>
<path d="M88.0675 89.8798C88.1503 89.8868 88.2336 89.8767 88.3124 89.8503C88.3911 89.8238 88.4636 89.7816 88.5254 89.7261C88.5873 89.6706 88.6371 89.6031 88.6719 89.5276C88.7066 89.4522 88.7256 89.3704 88.7276 89.2874L89.4047 76.1525C89.4092 76.0725 89.398 75.9924 89.3715 75.9167C89.345 75.841 89.3039 75.7713 89.2504 75.7115C89.197 75.6518 89.1322 75.6032 89.06 75.5685C88.9877 75.5338 88.9092 75.5137 88.8292 75.5094H88.7276C88.5837 75.5253 88.4501 75.5919 88.3509 75.6974C88.2516 75.8029 88.1931 75.9402 88.186 76.0849L87.4751 89.2366C87.4705 89.318 87.4823 89.3995 87.5099 89.4763C87.5374 89.5531 87.58 89.6235 87.6353 89.6835C87.6905 89.7435 87.7572 89.7918 87.8315 89.8255C87.9057 89.8592 87.986 89.8777 88.0675 89.8798Z" fill="#B96907"/>
<path d="M81.3141 89.9814C81.3977 89.9859 81.4814 89.9736 81.5602 89.9453C81.6391 89.9169 81.7114 89.8731 81.7729 89.8162C81.8345 89.7594 81.884 89.6908 81.9186 89.6145C81.9532 89.5382 81.9721 89.4557 81.9742 89.372L82.6513 76.1356C82.6558 76.0534 82.6441 75.971 82.6168 75.8933C82.5895 75.8155 82.5471 75.744 82.4921 75.6826C82.437 75.6213 82.3704 75.5714 82.2961 75.5359C82.2217 75.5003 82.1411 75.4798 82.0588 75.4755H81.9404C81.795 75.4952 81.6611 75.5653 81.5621 75.6735C81.4632 75.7818 81.4053 75.9214 81.3987 76.0679L80.7217 89.3212C80.7171 89.4035 80.7288 89.4859 80.7561 89.5636C80.7835 89.6413 80.8258 89.7129 80.8809 89.7742C80.9359 89.8356 81.0025 89.8855 81.0768 89.921C81.1512 89.9565 81.2318 89.9771 81.3141 89.9814Z" fill="#B96807"/>
<path d="M74.2558 89.9304C74.3408 89.9373 74.4263 89.9269 74.5071 89.8996C74.5879 89.8723 74.6623 89.8288 74.7257 89.7717C74.7891 89.7147 74.8402 89.6452 74.8758 89.5677C74.9114 89.4902 74.9308 89.4063 74.9328 89.321L75.6099 75.9662C75.6145 75.8817 75.6023 75.7971 75.5741 75.7173C75.546 75.6375 75.5023 75.5641 75.4457 75.5012C75.3891 75.4383 75.3207 75.3872 75.2443 75.3508C75.1679 75.3144 75.085 75.2935 75.0005 75.2891H74.8821C74.7322 75.3089 74.5941 75.3807 74.4919 75.4922C74.3898 75.6036 74.3302 75.7474 74.3235 75.8984L73.6464 89.2534C73.6419 89.3379 73.654 89.4224 73.6822 89.5022C73.7104 89.582 73.754 89.6554 73.8106 89.7183C73.8672 89.7812 73.9357 89.8323 74.0121 89.8687C74.0885 89.9051 74.1713 89.9261 74.2558 89.9304Z" fill="#BA6808"/>
<path d="M66.9438 89.7273C67.0301 89.7368 67.1175 89.7281 67.2003 89.7019C67.2831 89.6758 67.3596 89.6326 67.4248 89.5753C67.4901 89.518 67.5427 89.4478 67.5794 89.3691C67.616 89.2903 67.6359 89.2048 67.6378 89.118L68.2979 75.5769C68.3024 75.491 68.2897 75.4051 68.2605 75.3242C68.2313 75.2434 68.1861 75.1692 68.1278 75.1061C68.0694 75.043 67.9989 74.9922 67.9206 74.9568C67.8422 74.9213 67.7576 74.902 67.6716 74.8998H67.57C67.4171 74.9159 67.275 74.9861 67.1694 75.0979C67.0638 75.2097 67.0018 75.3556 66.9946 75.5092L66.3344 89.0503C66.3299 89.1348 66.342 89.2193 66.3702 89.2991C66.3984 89.3789 66.442 89.4524 66.4986 89.5152C66.5552 89.5781 66.6237 89.6293 66.7001 89.6657C66.7765 89.7021 66.8593 89.723 66.9438 89.7273Z" fill="#BA6708"/>
<path d="M60.0209 89.2366C60.1059 89.2436 60.1915 89.2331 60.2723 89.2058C60.3531 89.1785 60.4274 89.135 60.4908 89.0779C60.5542 89.0209 60.6053 88.9515 60.6409 88.874C60.6765 88.7965 60.696 88.7126 60.698 88.6273L61.3073 75.2893C61.3119 75.2048 61.2997 75.1202 61.2716 75.0405C61.2434 74.9607 61.1998 74.8872 61.1431 74.8243C61.0865 74.7614 61.0181 74.7104 60.9417 74.674C60.8653 74.6376 60.7825 74.6166 60.698 74.6122H60.5964C60.4448 74.6315 60.3045 74.7028 60.1996 74.8139C60.0946 74.925 60.0315 75.0691 60.0209 75.2216L59.4116 88.5765C59.407 88.6601 59.4193 88.7438 59.4477 88.8227C59.476 88.9015 59.5199 88.9738 59.5767 89.0353C59.6335 89.0969 59.7021 89.1464 59.7784 89.181C59.8547 89.2156 59.9372 89.2345 60.0209 89.2366Z" fill="#BE6C08"/>
<path d="M53.6229 88.7793C53.7057 88.7863 53.7891 88.7762 53.8678 88.7498C53.9466 88.7233 54.0191 88.6811 54.0809 88.6256C54.1427 88.5701 54.1925 88.5026 54.2273 88.4271C54.2621 88.3517 54.2811 88.2699 54.2831 88.1869L54.8586 74.9505C54.8608 74.8682 54.8468 74.7863 54.8174 74.7095C54.788 74.6326 54.7438 74.5624 54.6872 74.5026C54.6306 74.4429 54.5628 74.3949 54.4876 74.3613C54.4125 74.3278 54.3315 74.3095 54.2492 74.3073H54.1477C54.0023 74.3269 53.8684 74.397 53.7695 74.5053C53.6705 74.6136 53.6126 74.7531 53.606 74.8997L53.0305 88.1361C53.0259 88.2994 53.0852 88.4581 53.1959 88.5782C53.3066 88.6984 53.4598 88.7706 53.6229 88.7793Z" fill="#C37007"/>
<path d="M47.5631 88.2042C47.6437 88.2111 47.7248 88.2015 47.8015 88.1759C47.8782 88.1504 47.9488 88.1093 48.0091 88.0554C48.0694 88.0015 48.1179 87.9358 48.1519 87.8624C48.1858 87.789 48.2043 87.7095 48.2063 87.6286L48.731 74.5107C48.7357 74.3474 48.6763 74.1888 48.5657 74.0686C48.455 73.9485 48.3017 73.8763 48.1386 73.8676H48.0371C47.8948 73.8839 47.7633 73.9511 47.6668 74.0569C47.5704 74.1627 47.5155 74.2999 47.5123 74.4431L46.9707 87.544C46.9661 87.6263 46.9778 87.7087 47.0052 87.7864C47.0325 87.8641 47.0749 87.9357 47.1299 87.9971C47.1849 88.0584 47.2515 88.1082 47.3259 88.1438C47.4002 88.1793 47.4808 88.1999 47.5631 88.2042Z" fill="#C77507"/>
<path d="M42.011 87.544C42.0908 87.551 42.1711 87.5414 42.2469 87.5157C42.3227 87.4899 42.3923 87.4487 42.4512 87.3945C42.5102 87.3403 42.5572 87.2745 42.5892 87.2011C42.6212 87.1277 42.6376 87.0485 42.6373 86.9685L43.1282 74.0029C43.1328 73.8441 43.0753 73.6898 42.9678 73.5728C42.8603 73.4558 42.7113 73.3854 42.5527 73.3766H42.4511C42.3103 73.3962 42.1807 73.4645 42.0848 73.5696C41.989 73.6747 41.933 73.81 41.9264 73.9521L41.4355 86.9516C41.4355 87.1058 41.4956 87.254 41.603 87.3646C41.7105 87.4752 41.8569 87.5396 42.011 87.544Z" fill="#CB7A06"/>
<path d="M36.9166 86.8668C37.0709 86.8715 37.221 86.8157 37.3348 86.7114C37.4486 86.607 37.5172 86.4624 37.526 86.3082L37.966 73.4273C37.9663 73.2714 37.9068 73.1213 37.7997 73.008C37.6926 72.8946 37.5462 72.8266 37.3905 72.8179C37.2498 72.8304 37.1185 72.8942 37.0217 72.9972C36.9249 73.1002 36.8694 73.2352 36.8658 73.3765L36.4427 86.2406C36.4316 86.3848 36.4736 86.5282 36.5609 86.6435C36.6483 86.7589 36.7748 86.8383 36.9166 86.8668Z" fill="#D07E06"/>
<path d="M32.2448 86.1049C32.3946 86.1096 32.5404 86.0556 32.651 85.9545C32.7616 85.8533 32.8284 85.7129 32.8372 85.5633L33.2265 72.8008C33.2312 72.651 33.1772 72.5052 33.076 72.3946C32.9748 72.2839 32.8345 72.2172 32.6848 72.2084H32.5833C32.4472 72.225 32.3219 72.2912 32.2314 72.3942C32.1409 72.4972 32.0914 72.6298 32.0924 72.767L31.6185 85.5125C31.6158 85.5939 31.6304 85.6751 31.6614 85.7505C31.6923 85.8259 31.739 85.8938 31.7982 85.9498C31.8574 86.0058 31.9278 86.0486 32.0048 86.0753C32.0818 86.1021 32.1636 86.1122 32.2448 86.1049Z" fill="#D48305"/>
<path d="M27.9959 85.2927C28.0693 85.295 28.1424 85.2827 28.211 85.2567C28.2796 85.2307 28.3425 85.1914 28.3959 85.1411C28.4494 85.0908 28.4924 85.0305 28.5225 84.9636C28.5526 84.8966 28.5692 84.8244 28.5714 84.751L28.9269 72.124C28.9291 72.0506 28.9169 71.9775 28.8909 71.9089C28.8649 71.8403 28.8256 71.7774 28.7753 71.724C28.725 71.6705 28.6647 71.6275 28.5977 71.5974C28.5308 71.5673 28.4586 71.5507 28.3852 71.5485H28.2329C28.0982 71.5611 27.9731 71.6238 27.8823 71.724C27.7915 71.8243 27.7414 71.9548 27.742 72.0901L27.3866 84.7172C27.3838 84.7964 27.398 84.8753 27.4281 84.9487C27.4582 85.022 27.5036 85.0881 27.5613 85.1425C27.6189 85.197 27.6875 85.2385 27.7624 85.2644C27.8374 85.2903 27.917 85.3 27.9959 85.2927Z" fill="#D88805"/>
<path d="M24.1708 84.4295C24.2419 84.4318 24.3128 84.42 24.3794 84.3948C24.4459 84.3697 24.5069 84.3317 24.5588 84.2829C24.6107 84.2342 24.6524 84.1757 24.6817 84.1108C24.7109 84.046 24.7271 83.976 24.7293 83.9048L25.034 71.3793C25.0341 71.2341 24.9775 71.0945 24.8764 70.9902C24.7753 70.8859 24.6375 70.8251 24.4924 70.8207C24.3619 70.8365 24.2411 70.8977 24.1514 70.9937C24.0616 71.0897 24.0085 71.2142 24.0015 71.3455L23.6968 83.8709C23.6953 84.0055 23.7424 84.1362 23.8294 84.2388C23.9165 84.3414 24.0377 84.4092 24.1708 84.4295Z" fill="#DD8D04"/>
<path d="M20.7345 83.5156C20.8048 83.5178 20.8749 83.5059 20.9405 83.4806C21.0061 83.4552 21.066 83.4169 21.1165 83.368C21.1671 83.319 21.2072 83.2604 21.2347 83.1957C21.2621 83.1309 21.2762 83.0612 21.2762 82.9908L21.4623 70.6177C21.4669 70.5474 21.4573 70.4769 21.434 70.4104C21.4108 70.3439 21.3744 70.2828 21.327 70.2306C21.2796 70.1785 21.2222 70.1364 21.1582 70.107C21.0942 70.0775 21.025 70.0613 20.9546 70.0591H20.8699C20.7442 70.0718 20.6278 70.1308 20.5433 70.2247C20.4588 70.3186 20.4123 70.4406 20.4129 70.5669L20.1421 82.9739C20.1442 83.0488 20.1614 83.1225 20.1925 83.1905C20.2237 83.2586 20.2683 83.3197 20.3235 83.3703C20.3788 83.4208 20.4437 83.4597 20.5143 83.4847C20.5849 83.5096 20.6598 83.5201 20.7345 83.5156Z" fill="#E19104"/>
<path d="M17.7048 82.5504C17.7729 82.5527 17.8408 82.5412 17.9044 82.5167C17.9679 82.4922 18.0259 82.4552 18.0749 82.4078C18.1239 82.3604 18.1628 82.3037 18.1894 82.2409C18.2159 82.1782 18.2296 82.1107 18.2296 82.0426L18.4496 69.7541C18.4519 69.686 18.4404 69.6182 18.4159 69.5546C18.3914 69.491 18.3544 69.433 18.307 69.384C18.2596 69.335 18.2029 69.2962 18.1401 69.2696C18.0774 69.243 18.0099 69.2293 17.9418 69.2294H17.8572C17.7343 69.2486 17.6218 69.3097 17.5385 69.4021C17.4553 69.4946 17.4064 69.6129 17.4002 69.7372L17.1971 82.0257C17.1948 82.0938 17.2062 82.1616 17.2307 82.2252C17.2552 82.2888 17.2923 82.3468 17.3397 82.3957C17.387 82.4447 17.4438 82.4836 17.5065 82.5102C17.5693 82.5368 17.6367 82.5504 17.7048 82.5504Z" fill="#E59603"/>
<path d="M15.0478 81.5521C15.1824 81.5521 15.3116 81.4986 15.4068 81.4034C15.5021 81.3082 15.5556 81.179 15.5556 81.0443L15.7417 68.8912C15.744 68.8231 15.7326 68.7553 15.7081 68.6917C15.6836 68.6281 15.6465 68.5701 15.5991 68.5212C15.5518 68.4722 15.495 68.4333 15.4323 68.4067C15.3695 68.3801 15.3021 68.3665 15.234 68.3665C15.1113 68.383 14.9989 68.4437 14.9179 68.5372C14.8369 68.6307 14.7928 68.7506 14.7939 68.8743L14.6246 81.0274C14.6223 81.1506 14.6634 81.2708 14.7408 81.3667C14.8182 81.4626 14.9268 81.5283 15.0478 81.5521Z" fill="#E99B03"/>
<path d="M12.7796 80.5026C12.9098 80.5026 13.0346 80.4509 13.1267 80.3589C13.2188 80.2668 13.2705 80.1419 13.2705 80.0117L13.4059 67.9602C13.4059 67.83 13.3542 67.7052 13.2621 67.6131C13.1701 67.5211 13.0452 67.4694 12.915 67.4694C12.7998 67.4854 12.6939 67.5418 12.6164 67.6286C12.5389 67.7154 12.4948 67.827 12.4919 67.9433L12.3564 79.9948C12.3581 80.1152 12.401 80.2313 12.478 80.3237C12.5551 80.4162 12.6615 80.4793 12.7796 80.5026Z" fill="#EE9F02"/>
<path d="M10.8667 79.4193C10.994 79.4194 11.1163 79.37 11.2079 79.2815C11.2995 79.1931 11.3532 79.0726 11.3575 78.9454V67.0123C11.3576 66.885 11.3082 66.7626 11.2198 66.671C11.1314 66.5794 11.0108 66.5258 10.8836 66.5214C10.7683 66.5374 10.6625 66.5939 10.585 66.6807C10.5075 66.7675 10.4634 66.879 10.4604 66.9953V78.9284C10.462 79.0443 10.5031 79.1562 10.577 79.2455C10.6509 79.3348 10.7531 79.3961 10.8667 79.4193Z" fill="#F2A402"/>
<path d="M9.32637 78.2851C9.44623 78.2809 9.56005 78.2313 9.64486 78.1465C9.72967 78.0617 9.77917 77.9479 9.78338 77.8281V65.9796C9.77899 65.8569 9.72713 65.7406 9.63872 65.6554C9.55031 65.5701 9.43226 65.5225 9.30944 65.5226C9.1957 65.5313 9.08978 65.5838 9.01399 65.669C8.93821 65.7543 8.89849 65.8657 8.90321 65.9796V77.8281C8.90664 77.9425 8.95139 78.0518 9.02918 78.1358C9.10696 78.2198 9.21253 78.2728 9.32637 78.2851Z" fill="#F6A901"/>
<path d="M8.12451 77.1339C8.24122 77.1339 8.35316 77.0875 8.43569 77.005C8.51822 76.9225 8.56459 76.8105 8.56459 76.6938V64.9977C8.56459 64.8765 8.51644 64.7603 8.43073 64.6746C8.34503 64.5889 8.22879 64.5407 8.10758 64.5407C8.0013 64.5566 7.90403 64.6094 7.83283 64.6899C7.76163 64.7704 7.72107 64.8734 7.71827 64.9808V76.6769C7.71757 76.7898 7.75869 76.899 7.8337 76.9834C7.90871 77.0677 8.0123 77.1214 8.12451 77.1339Z" fill="#FBAD01"/>
<path d="M7.26139 75.9492C7.31918 75.9492 7.37641 75.9378 7.4298 75.9157C7.48319 75.8936 7.53171 75.8612 7.57258 75.8203C7.61344 75.7795 7.64586 75.7309 7.66797 75.6775C7.69009 75.6242 7.70147 75.5669 7.70147 75.5092V63.9315C7.70152 63.8745 7.69004 63.818 7.66772 63.7656C7.6454 63.7131 7.61271 63.6657 7.57161 63.6261C7.53051 63.5866 7.48184 63.5558 7.42853 63.5355C7.37522 63.5153 7.31837 63.506 7.26139 63.5083C7.15513 63.5169 7.056 63.5652 6.98382 63.6437C6.91165 63.7221 6.87174 63.8249 6.87208 63.9315V75.5092C6.87136 75.6176 6.91069 75.7224 6.98253 75.8036C7.05438 75.8849 7.15368 75.9367 7.26139 75.9492Z" fill="#FFB200"/>
<path style="mix-blend-mode:multiply" d="M75.3053 73.546C115.587 73.546 148.241 67.4153 148.241 59.8526C148.241 52.2899 115.587 46.1591 75.3053 46.1591C35.024 46.1591 2.36963 52.2899 2.36963 59.8526C2.36963 67.4153 35.024 73.546 75.3053 73.546Z" fill="url(#paint8_radial)"/>
<path d="M19.2625 37.0524C19.037 36.8907 18.8421 36.6901 18.687 36.46C18.5575 36.2894 18.4863 36.0817 18.4839 35.8676C18.4846 35.6583 18.5431 35.4532 18.6531 35.2751C18.8057 35.0436 18.9943 34.8379 19.2117 34.6658C21.2464 33.4054 23.5049 32.5491 25.8638 32.1437C29.7064 31.2794 33.5942 30.6295 37.5091 30.1972C41.9777 29.6556 47.0217 29.2155 52.4551 28.8939C57.8884 28.5723 63.5926 28.3692 69.6015 28.3184C75.6103 28.2676 81.3483 28.3184 86.6294 28.5893C91.9104 28.8601 96.8867 29.1816 101.152 29.6556C104.805 30.0198 108.429 30.6248 112.002 31.4667C114.879 32.1945 116.758 33.0239 117.334 33.9549C117.423 34.0866 117.481 34.2372 117.503 34.395C117.545 34.5444 117.545 34.7025 117.503 34.852C117.445 35.0177 117.359 35.1723 117.249 35.309C117.108 35.4778 116.949 35.631 116.775 35.766L113.255 38.4573C113.427 38.3327 113.581 38.1846 113.712 38.0172C113.824 37.8852 113.915 37.7368 113.982 37.5771C114.016 37.4324 114.016 37.2818 113.982 37.137C113.977 36.9809 113.93 36.829 113.847 36.6969C113.373 35.7829 111.663 35.0043 109.04 34.2426C105.734 33.414 102.374 32.8145 98.9856 32.4485C95.0079 31.9745 90.4209 31.6191 85.4445 31.3821C80.4682 31.1451 75.1364 31.0435 69.483 31.0943C63.8296 31.1451 58.4301 31.3313 53.386 31.636C48.342 31.9406 43.5857 32.3807 39.4218 32.9055C35.782 33.3377 32.1705 33.9819 28.6058 34.835C26.4248 35.2255 24.3493 36.0673 22.5124 37.3063C22.3157 37.4695 22.1545 37.6711 22.0384 37.8987C21.9381 38.0733 21.8911 38.2733 21.903 38.4742C21.928 38.6812 22.0036 38.8789 22.123 39.0497C22.2795 39.274 22.4743 39.4688 22.6985 39.6252L19.2625 37.0524Z" fill="url(#paint9_linear)"/>
<path d="M2.62354 58.5492L5.85647 61.1051C8.05062 62.6343 10.489 63.7791 13.0671 64.4904C17.2033 65.7409 21.4229 66.6968 25.6941 67.3509C30.7721 68.1803 36.7132 68.8574 43.2129 69.3313C49.7126 69.8052 56.991 70.0761 64.557 70.093C72.7494 70.093 80.6709 69.8052 88.0847 69.2805C95.4984 68.7558 102.15 67.9603 108.041 66.9955C112.988 66.2527 117.875 65.1554 122.665 63.7118C125.628 62.9175 128.429 61.6115 130.942 59.8526L134.226 57.1951C131.625 59.0023 128.725 60.3373 125.661 61.139C120.627 62.6171 115.498 63.7482 110.309 64.5242C104.097 65.5229 96.9879 66.3184 89.2357 66.877C81.4834 67.4356 73.0033 67.7403 64.337 67.7233C56.3308 67.7233 48.7478 67.4525 41.7742 66.9616C34.8005 66.4708 28.6901 65.7937 23.3075 64.9305C18.8373 64.2763 14.4195 63.3034 10.0881 62.0192C7.4199 61.2975 4.89517 60.1239 2.62354 58.5492Z" fill="url(#paint10_linear)"/>
<path d="M0.795789 38.1528L1.06661 37.882L1.21895 37.7297L1.48977 37.4589L1.77752 37.188L1.91293 37.0526L2.20068 36.7649L2.48842 36.494L2.62383 36.3587L2.91158 36.0878L3.19933 35.8001L3.33474 35.6647L3.62249 35.3938C2.40379 36.5787 2.84388 37.7466 4.84119 38.7791C8.34945 40.3433 12.0673 41.3868 15.8772 41.8766C22.6487 42.9814 29.4739 43.7272 36.3242 44.1109C44.635 44.6525 54.0969 44.9403 64.2865 44.8895C74.9671 44.8895 85.1906 44.4325 94.3816 43.7555C103.573 43.0784 111.308 42.1644 117.621 41.0642C122.162 40.4326 126.608 39.2445 130.858 37.5266C133.38 36.3079 134.243 35.0215 133.008 33.7689L135.987 36.494C137.273 37.882 136.528 39.2869 133.955 40.641C129.568 42.5492 124.946 43.8641 120.211 44.551C112.177 45.9757 104.076 46.9926 95.9388 47.5977C86.2569 48.3594 75.4748 48.7995 64.2188 48.8334C53.4875 48.8334 43.5179 48.5456 34.767 47.9363C27.5946 47.4874 20.4522 46.6454 13.3721 45.4142C9.41539 44.8905 5.56561 43.7482 1.9637 42.0289C-0.152089 40.7425 -0.541393 39.4562 0.795789 38.1528Z" fill="url(#paint11_linear)"/>
<path d="M23.2402 39.9977C25.7558 41.1816 28.4393 41.9695 31.1956 42.3336C36.0197 43.1575 40.8846 43.7225 45.7691 44.0262C51.6257 44.4155 58.2777 44.6186 65.4206 44.5847C72.5636 44.5509 79.4695 44.2801 85.7323 43.8231C91.995 43.3661 97.3437 42.7398 101.778 41.995C105.113 41.5151 108.387 40.681 111.545 39.5068C113.593 38.6267 114.456 37.6957 113.948 36.7648C113.441 35.8338 111.765 35.0721 109.141 34.3104C105.835 33.4818 102.476 32.8823 99.0871 32.5163C95.1095 32.0423 90.5224 31.6869 85.5461 31.4499C80.5697 31.2129 75.2379 31.1114 69.5845 31.1622C63.9311 31.2129 58.5316 31.3991 53.4876 31.7038C48.4435 32.0085 43.6872 32.4486 39.5233 32.9733C35.8835 33.4055 32.2721 34.0498 28.7074 34.9029C26.5263 35.2933 24.4508 36.135 22.6139 37.3741C21.4629 38.2543 21.7845 39.1683 23.2402 39.9977Z" fill="url(#paint12_linear)"/>
<path d="M13.8456 31.5176C18.0602 30.5867 23.3074 29.825 29.2147 29.0633C35.122 28.3016 41.4694 27.8277 48.3753 27.3707C55.2813 26.9137 62.5088 26.7275 70.1087 26.6598C77.7087 26.5921 85.0208 26.6598 91.7406 26.9814C98.4604 27.303 104.96 27.7092 110.546 28.2847C115.439 28.7516 120.299 29.5089 125.102 30.5528C129.097 31.4837 131.873 32.5671 133.007 33.7688C134.141 34.9706 133.379 36.3078 130.857 37.5265C126.607 39.2444 122.162 40.4325 117.621 41.0641C111.324 42.1643 103.437 43.0783 94.3811 43.7554C85.3255 44.4324 74.9666 44.8386 64.2861 44.8894C53.6056 44.9402 43.8052 44.6355 35.2405 44.0431C28.2951 43.6291 21.3783 42.8267 14.5226 41.6396C9.4447 40.6579 5.83939 39.5407 4.12983 38.3389C2.42027 37.1372 2.43719 35.9523 4.40065 34.6998C7.35888 33.1416 10.5476 32.0673 13.8456 31.5176ZM19.2112 34.6659C18.0602 35.6138 18.2972 36.5278 19.7867 37.3911C22.4673 38.6228 25.322 39.4336 28.2499 39.7946C33.4415 40.6311 38.6732 41.196 43.9237 41.4873C50.2711 41.8935 57.4648 42.1135 65.217 42.0627C72.9693 42.012 80.4507 41.7411 87.2213 41.2503C93.9918 40.7594 99.7637 40.1162 104.537 39.3376C108.078 38.8541 111.556 37.9916 114.913 36.7648C117.062 35.8508 117.926 34.9029 117.333 33.955C116.741 33.0071 114.879 32.2624 112.001 31.4668C108.429 30.625 104.804 30.0199 101.152 29.6557C96.8862 29.1818 91.9776 28.8264 86.6289 28.5894C81.2801 28.3524 75.6267 28.3016 69.601 28.3016C63.5752 28.3016 57.7525 28.5555 52.4546 28.8771C47.1566 29.1987 41.9771 29.6388 37.5086 30.1804C33.5937 30.6127 29.7059 31.2626 25.8633 32.127C23.5032 32.5375 21.2446 33.3996 19.2112 34.6659Z" fill="url(#paint13_linear)"/>
<path d="M0.863244 55.8071L0 39.744C0 40.9119 1.5403 42.046 4.31622 43.1293C8.41167 44.5263 12.6358 45.5128 16.9263 46.0745C22.5967 46.9546 29.5026 47.6656 37.4072 48.1564C45.3118 48.6473 54.5028 48.9012 64.1339 48.8673C74.4252 48.8673 84.3271 48.4611 93.3657 47.8179C102.404 47.1747 110.292 46.3114 116.758 45.262C121.782 44.5864 126.734 43.4533 131.552 41.8767C134.835 40.658 136.629 39.3716 136.629 38.0852L136.037 54.453C136.037 56.1457 134.226 57.7028 130.959 59.2262C126.23 61.1766 121.296 62.5848 116.25 63.424C108.613 64.8913 100.899 65.9311 93.1457 66.5384C84.2086 67.2832 74.5267 67.7063 64.2693 67.6894C54.7567 67.6894 45.8535 67.317 37.8812 66.64C31.0641 66.1121 24.2826 65.1967 17.5696 63.8979C13.2576 63.1319 9.05262 61.8533 5.04405 60.0895C2.40354 58.7692 0.93095 57.2966 0.863244 55.8071Z" fill="url(#paint14_linear)"/>
<path d="M78.4536 40.0315C57.4988 40.2516 63.2199 36.3247 56.3309 36.4093C54.3674 36.4093 52.7594 36.6632 52.7594 37.3572C52.7594 38.0512 57.2788 38.2373 57.2788 38.2373L57.1603 39.236L43.1283 40.15C41.3886 39.9807 39.7387 39.2971 38.3889 38.1866L29.7734 38.2712V36.8494L29.9089 35.8507L38.5074 36.7817C40.3524 35.0891 48.0539 34.2258 57.2449 34.1243C78.4367 33.9042 72.7156 37.8142 79.8585 37.7465C81.822 37.7465 82.956 37.4757 82.9391 36.7986C82.9222 36.1215 80.891 35.106 77.7258 34.5474L78.0982 33.9719L91.6392 33.6503C94.6352 34.2089 96.8526 35.1568 97.3434 36.1554L106.247 36.4432L106.145 37.4757L96.9541 37.5603C94.8552 39.0667 87.2384 39.93 78.4536 40.0315Z" fill="url(#paint15_linear)"/>
<path d="M78.7243 39.0162C57.7695 39.2362 63.4906 35.3262 56.6015 35.3939C54.6381 35.3939 53.0301 35.6478 53.0301 36.3418C53.0301 37.0358 54.418 37.5774 57.2786 38.2376L43.399 39.0839C41.6573 38.9227 40.0051 38.2382 38.6596 37.1204L29.9595 37.2051V35.8002L38.8289 35.7155C40.6738 34.0229 48.3753 33.1597 57.5663 33.0581C78.7581 32.8381 73.037 36.7481 80.18 36.6804C82.1265 36.6804 83.2775 36.4095 83.2605 35.7325C83.2436 35.0554 81.2125 34.0398 78.0303 33.4982L91.9945 32.5842C95.0074 33.1427 97.2248 34.0906 97.7157 35.0893L106.331 34.9877V36.3926L97.3094 36.4941C95.1259 38.0683 87.4752 38.9146 78.7243 39.0162Z" fill="url(#paint16_linear)"/>
<path d="M135.512 53.6911C135.57 53.696 135.628 53.6885 135.682 53.6692C135.737 53.6499 135.787 53.6192 135.828 53.5792C135.87 53.5391 135.903 53.4906 135.924 53.437C135.945 53.3833 135.955 53.3257 135.953 53.268L136.274 41.318C136.279 41.2596 136.271 41.2009 136.252 41.1456C136.233 41.0903 136.203 41.0396 136.163 40.9966C136.123 40.9537 136.075 40.9194 136.021 40.8961C135.967 40.8727 135.909 40.8608 135.851 40.861C135.749 40.8768 135.656 40.9278 135.588 41.0051C135.52 41.0824 135.481 41.1812 135.479 41.2841L135.157 53.2341C135.151 53.3404 135.184 53.4453 135.249 53.5293C135.314 53.6133 135.408 53.6708 135.512 53.6911Z" fill="#B37100"/>
<path d="M134.598 54.6728C134.658 54.6751 134.718 54.6655 134.775 54.6446C134.831 54.6237 134.883 54.5919 134.927 54.5511C134.971 54.5102 135.006 54.4611 135.031 54.4064C135.056 54.3518 135.07 54.2928 135.072 54.2328L135.377 42.1643C135.377 42.0415 135.329 41.9234 135.244 41.835C135.159 41.7466 135.043 41.6947 134.92 41.6903C134.818 41.7062 134.725 41.7571 134.657 41.8345C134.589 41.9118 134.55 42.0105 134.548 42.1135L134.243 54.182C134.232 54.2931 134.262 54.4044 134.328 54.4948C134.393 54.5853 134.489 54.6486 134.598 54.6728Z" fill="#B37001"/>
<path d="M133.177 55.7054C133.239 55.7101 133.302 55.7017 133.362 55.6808C133.421 55.66 133.476 55.627 133.522 55.5841C133.568 55.5412 133.605 55.4893 133.63 55.4315C133.655 55.3737 133.668 55.3114 133.667 55.2484L133.955 43.0784C133.955 42.9538 133.908 42.8339 133.824 42.7427C133.739 42.6516 133.622 42.5961 133.498 42.5875H133.397C133.29 42.6034 133.193 42.6562 133.122 42.7367C133.051 42.8172 133.01 42.9202 133.007 43.0276L132.72 55.1976C132.715 55.3251 132.76 55.4493 132.845 55.544C132.931 55.6388 133.049 55.6967 133.177 55.7054Z" fill="#B47001"/>
<path d="M131.027 56.7379C131.091 56.7428 131.156 56.734 131.216 56.7121C131.277 56.6902 131.332 56.6558 131.379 56.611C131.425 56.5663 131.461 56.5122 131.485 56.4524C131.509 56.3926 131.52 56.3284 131.518 56.264L131.789 43.9924C131.791 43.9288 131.78 43.8654 131.758 43.8059C131.735 43.7464 131.7 43.6921 131.656 43.6463C131.612 43.6005 131.559 43.5641 131.5 43.5392C131.441 43.5143 131.378 43.5015 131.315 43.5016H131.23C131.118 43.5212 131.016 43.5792 130.942 43.6656C130.868 43.7521 130.826 43.8617 130.824 43.9755L130.553 56.2471C130.551 56.3108 130.561 56.3742 130.584 56.4337C130.607 56.4932 130.641 56.5474 130.686 56.5932C130.73 56.639 130.783 56.6755 130.842 56.7003C130.9 56.7252 130.963 56.738 131.027 56.7379Z" fill="#B46F02"/>
<path d="M128.403 57.7871C128.47 57.7919 128.537 57.7826 128.599 57.7599C128.662 57.7372 128.719 57.7015 128.767 57.6551C128.815 57.6088 128.853 57.5529 128.877 57.4911C128.902 57.4292 128.914 57.3628 128.911 57.2962L129.165 44.9231C129.165 44.7913 129.114 44.6646 129.022 44.5699C128.931 44.4751 128.806 44.4196 128.674 44.4153C128.558 44.435 128.451 44.4948 128.374 44.5844C128.297 44.674 128.253 44.7878 128.251 44.9061L127.997 57.2793C127.995 57.3981 128.034 57.514 128.108 57.6067C128.183 57.6995 128.287 57.7634 128.403 57.7871Z" fill="#B56F02"/>
<path d="M125.255 58.7688C125.322 58.7711 125.388 58.7602 125.451 58.7367C125.513 58.7133 125.571 58.6777 125.619 58.6321C125.668 58.5866 125.707 58.5318 125.735 58.471C125.762 58.4103 125.778 58.3446 125.78 58.2779L126.017 45.7863C126.019 45.7182 126.008 45.6504 125.983 45.5868C125.959 45.5232 125.922 45.4652 125.874 45.4162C125.827 45.3673 125.77 45.3284 125.707 45.3018C125.645 45.2752 125.577 45.2615 125.509 45.2616H125.407C125.289 45.278 125.181 45.3369 125.103 45.4273C125.026 45.5176 124.983 45.6332 124.984 45.7525L124.747 58.2441C124.745 58.3122 124.757 58.3801 124.781 58.4436C124.806 58.5072 124.843 58.5652 124.89 58.6142C124.937 58.6631 124.994 58.7021 125.057 58.7286C125.12 58.7552 125.187 58.7689 125.255 58.7688Z" fill="#B56E03"/>
<path d="M121.599 59.8352C121.668 59.84 121.737 59.8303 121.802 59.8067C121.866 59.7831 121.925 59.7462 121.975 59.6983C122.024 59.6504 122.063 59.5926 122.089 59.5287C122.115 59.4648 122.127 59.3962 122.124 59.3274L122.361 46.7343C122.361 46.5935 122.306 46.4582 122.208 46.3571C122.11 46.256 121.977 46.197 121.836 46.1926C121.712 46.2129 121.6 46.2769 121.519 46.3732C121.438 46.4695 121.395 46.5916 121.396 46.7173L121.159 59.3105C121.158 59.4362 121.201 59.5583 121.282 59.6545C121.363 59.7508 121.475 59.815 121.599 59.8352Z" fill="#B66D03"/>
<path d="M117.469 60.8169C117.539 60.8192 117.609 60.8073 117.675 60.782C117.741 60.7566 117.8 60.7183 117.851 60.6694C117.901 60.6204 117.942 60.5618 117.969 60.497C117.996 60.4323 118.011 60.3626 118.011 60.2922L118.214 47.5806C118.216 47.5103 118.204 47.4402 118.179 47.3745C118.153 47.3089 118.115 47.2491 118.066 47.1985C118.017 47.148 117.959 47.1078 117.894 47.0804C117.829 47.053 117.759 47.0389 117.689 47.0389H117.587C117.465 47.0623 117.354 47.1273 117.274 47.2229C117.194 47.3185 117.149 47.4389 117.147 47.5636L116.927 60.2753C116.927 60.419 116.984 60.5567 117.086 60.6583C117.187 60.7599 117.325 60.8169 117.469 60.8169Z" fill="#B66D04"/>
<path d="M112.865 61.7479C112.938 61.7526 113.012 61.742 113.08 61.7167C113.149 61.6914 113.212 61.652 113.265 61.601C113.317 61.5499 113.359 61.4884 113.386 61.4204C113.413 61.3524 113.426 61.2795 113.424 61.2062L113.61 48.393C113.612 48.3204 113.6 48.2482 113.574 48.1805C113.547 48.1128 113.508 48.0511 113.457 47.999C113.407 47.9469 113.346 47.9055 113.28 47.8772C113.213 47.8489 113.141 47.8344 113.068 47.8344H112.967C112.84 47.8579 112.725 47.9247 112.641 48.0235C112.558 48.1222 112.512 48.2468 112.51 48.376L112.307 61.1893C112.307 61.3374 112.365 61.4795 112.47 61.5842C112.575 61.689 112.717 61.7479 112.865 61.7479Z" fill="#B66C04"/>
<path d="M107.787 62.6283C107.94 62.6283 108.086 62.5677 108.194 62.4598C108.302 62.3519 108.363 62.2055 108.363 62.0528L108.532 49.155C108.534 49.0802 108.521 49.0057 108.494 48.936C108.467 48.8663 108.426 48.8027 108.374 48.749C108.322 48.6953 108.26 48.6527 108.191 48.6235C108.122 48.5944 108.048 48.5795 107.973 48.5795H107.872C107.739 48.5999 107.617 48.6676 107.53 48.7702C107.443 48.8728 107.396 49.0035 107.398 49.138L107.229 62.0528C107.228 62.2026 107.287 62.3464 107.391 62.4539C107.495 62.5613 107.637 62.6239 107.787 62.6283Z" fill="#B76B05"/>
<path d="M102.421 63.4237C102.498 63.426 102.575 63.4128 102.647 63.3849C102.719 63.357 102.784 63.3149 102.839 63.2613C102.895 63.2076 102.939 63.1434 102.969 63.0724C102.998 63.0015 103.014 62.9253 103.014 62.8482L103.166 49.8319C103.166 49.6776 103.106 49.5295 102.999 49.4188C102.891 49.3082 102.745 49.2438 102.591 49.2394H102.489C102.354 49.2594 102.231 49.3265 102.141 49.4288C102.052 49.5311 102.001 49.6619 101.998 49.798L101.846 62.8144C101.844 62.8922 101.857 62.9697 101.885 63.0424C101.912 63.1151 101.954 63.1817 102.007 63.2383C102.061 63.2949 102.125 63.3404 102.196 63.3722C102.267 63.404 102.344 63.4215 102.421 63.4237Z" fill="#B76B05"/>
<path d="M96.5991 64.1348C96.6767 64.1396 96.7544 64.128 96.8273 64.101C96.9002 64.074 96.9667 64.0321 97.0225 63.9779C97.0782 63.9238 97.1221 63.8585 97.1512 63.7864C97.1803 63.7144 97.194 63.637 97.1915 63.5593L97.3439 50.4245C97.3439 50.2673 97.2814 50.1166 97.1703 50.0055C97.0592 49.8944 96.9086 49.832 96.7514 49.832H96.6499C96.5124 49.8593 96.3885 49.9331 96.2991 50.041C96.2097 50.1489 96.1602 50.2843 96.159 50.4245L95.939 63.5424C95.9384 63.6262 95.9557 63.7092 95.9896 63.7859C96.0235 63.8625 96.0733 63.9311 96.1357 63.9871C96.1981 64.0431 96.2717 64.0853 96.3516 64.1107C96.4314 64.1362 96.5158 64.1444 96.5991 64.1348Z" fill="#B86A06"/>
<path d="M90.4209 64.761C90.5007 64.7657 90.5806 64.7538 90.6556 64.7259C90.7305 64.698 90.7988 64.6548 90.8562 64.5991C90.9135 64.5434 90.9586 64.4763 90.9886 64.4022C91.0185 64.3281 91.0327 64.2485 91.0302 64.1686L91.1487 50.9321C91.1534 50.8523 91.1415 50.7724 91.1136 50.6975C91.0858 50.6225 91.0426 50.5542 90.9869 50.4968C90.9311 50.4395 90.864 50.3944 90.7899 50.3644C90.7158 50.3345 90.6362 50.3203 90.5563 50.3228H90.4547C90.3142 50.3466 90.1864 50.4188 90.0936 50.5271C90.0008 50.6353 89.9489 50.7726 89.9469 50.9152L89.8115 64.1516C89.8115 64.3132 89.8757 64.4682 89.99 64.5825C90.1043 64.6968 90.2593 64.761 90.4209 64.761Z" fill="#B86A06"/>
<path d="M83.8869 65.2857C83.969 65.2904 84.0511 65.278 84.1281 65.2493C84.2051 65.2206 84.2753 65.1761 84.3342 65.1188C84.3931 65.0615 84.4394 64.9926 84.4702 64.9164C84.5011 64.8402 84.5157 64.7584 84.5132 64.6763L84.6317 51.3383C84.634 51.2554 84.6194 51.173 84.5888 51.096C84.5581 51.0189 84.5121 50.9489 84.4535 50.8903C84.3948 50.8317 84.3249 50.7856 84.2478 50.755C84.1708 50.7243 84.0883 50.7097 84.0054 50.7121H83.9039C83.7588 50.7359 83.6267 50.81 83.5308 50.9214C83.4349 51.0328 83.3812 51.1744 83.3791 51.3214L83.2776 64.6594C83.2753 64.7408 83.2894 64.8219 83.319 64.8978C83.3486 64.9737 83.3932 65.0429 83.45 65.1013C83.5068 65.1596 83.5747 65.2061 83.6498 65.2377C83.7248 65.2694 83.8055 65.2857 83.8869 65.2857Z" fill="#B96907"/>
<path d="M77.0491 65.6918C77.2184 65.6876 77.3795 65.6184 77.4992 65.4987C77.6189 65.379 77.688 65.2179 77.6923 65.0486V51.6091C77.6946 51.5255 77.6801 51.4422 77.6496 51.3643C77.6191 51.2863 77.5734 51.2153 77.515 51.1553C77.4566 51.0954 77.3868 51.0477 77.3097 51.0152C77.2326 50.9827 77.1497 50.9659 77.066 50.966H76.9645C76.8149 50.9899 76.6786 51.0658 76.5795 51.1803C76.4804 51.2949 76.4249 51.4408 76.4229 51.5922L76.3213 65.0317C76.3208 65.1244 76.3398 65.2162 76.3772 65.301C76.4145 65.3859 76.4693 65.4619 76.5379 65.5242C76.6066 65.5864 76.6876 65.6336 76.7757 65.6625C76.8637 65.6913 76.9569 65.7014 77.0491 65.6918Z" fill="#B96807"/>
<path d="M69.9058 65.9459C69.9923 65.9506 70.0788 65.9374 70.1599 65.9069C70.241 65.8765 70.3149 65.8296 70.377 65.7691C70.439 65.7087 70.4878 65.636 70.5204 65.5557C70.5529 65.4755 70.5684 65.3893 70.5659 65.3027V51.7616C70.5659 51.5865 70.4964 51.4186 70.3726 51.2948C70.2488 51.171 70.0809 51.1015 69.9058 51.1015H69.8042C69.6547 51.1254 69.5183 51.2013 69.4192 51.3159C69.3202 51.4304 69.2647 51.5763 69.2626 51.7278L69.178 65.2688C69.1721 65.3637 69.1874 65.4587 69.2226 65.547C69.2579 65.6353 69.3123 65.7147 69.3819 65.7794C69.4515 65.8441 69.5346 65.8927 69.6252 65.9215C69.7158 65.9502 69.8116 65.9586 69.9058 65.9459Z" fill="#BA6808"/>
<path d="M62.4922 66.0813C62.5809 66.086 62.6696 66.0723 62.7528 66.041C62.8359 66.0097 62.9117 65.9616 62.9753 65.8995C63.0389 65.8375 63.089 65.763 63.1223 65.6807C63.1557 65.5984 63.1717 65.51 63.1692 65.4212V51.7616C63.1649 51.5879 63.094 51.4225 62.9711 51.2996C62.8482 51.1767 62.6828 51.1058 62.5091 51.1015H62.3906C62.2351 51.1291 62.0942 51.2102 61.9922 51.3308C61.8902 51.4513 61.8335 51.6037 61.832 51.7616V65.4212C61.8363 65.5949 61.9073 65.7603 62.0301 65.8832C62.153 66.0061 62.3184 66.077 62.4922 66.0813Z" fill="#BA6708"/>
<path d="M55.4679 65.9459C55.553 65.9482 55.6377 65.9332 55.7168 65.9017C55.7959 65.8702 55.8677 65.8229 55.9279 65.7627C55.9881 65.7025 56.0354 65.6307 56.0669 65.5516C56.0984 65.4725 56.1134 65.3878 56.1111 65.3027V51.7616C56.1111 51.591 56.0433 51.4274 55.9227 51.3068C55.8021 51.1862 55.6385 51.1184 55.4679 51.1184H55.3156C55.1646 51.146 55.0279 51.2252 54.9291 51.3426C54.8302 51.46 54.7754 51.6081 54.7739 51.7616V65.3027C54.7737 65.3916 54.7918 65.4796 54.8273 65.5612C54.8627 65.6427 54.9147 65.716 54.9799 65.7765C55.0451 65.8369 55.1222 65.8831 55.2061 65.9123C55.2901 65.9415 55.3793 65.9529 55.4679 65.9459Z" fill="#BE6C08"/>
<path d="M48.9007 65.7089C48.985 65.7136 49.0693 65.7008 49.1483 65.6712C49.2274 65.6416 49.2994 65.596 49.3599 65.5371C49.4204 65.4782 49.4679 65.4074 49.4996 65.3292C49.5313 65.2509 49.5464 65.167 49.5439 65.0826V51.66C49.5396 51.4952 49.4723 51.3384 49.3557 51.2219C49.2392 51.1054 49.0824 51.038 48.9176 51.0337H48.7991C48.6541 51.0641 48.5234 51.1423 48.4282 51.2559C48.3331 51.3695 48.2789 51.5119 48.2744 51.66V65.0826C48.2744 65.2487 48.3404 65.408 48.4578 65.5255C48.5753 65.6429 48.7346 65.7089 48.9007 65.7089Z" fill="#C37007"/>
<path d="M42.807 65.4041C42.9731 65.4041 43.1324 65.338 43.2498 65.2206C43.3673 65.1031 43.4332 64.9439 43.4332 64.7778V51.4906C43.4332 51.3245 43.3673 51.1652 43.2498 51.0478C43.1324 50.9303 42.9731 50.8643 42.807 50.8643H42.7054C42.5589 50.8848 42.4248 50.958 42.3283 51.0701C42.2317 51.1823 42.1793 51.3257 42.1807 51.4737V64.7609C42.1806 64.9286 42.2461 65.0897 42.3631 65.2098C42.48 65.3299 42.6393 65.3997 42.807 65.4041Z" fill="#C77507"/>
<path d="M37.1704 64.998C37.2511 65.0003 37.3313 64.9862 37.4063 64.9564C37.4813 64.9266 37.5494 64.8818 37.6065 64.8247C37.6635 64.7677 37.7083 64.6995 37.7381 64.6245C37.7679 64.5496 37.7821 64.4693 37.7798 64.3886L37.6782 51.2199C37.6782 51.0583 37.614 50.9033 37.4997 50.789C37.3855 50.6748 37.2305 50.6106 37.0689 50.6106H36.9673C36.8253 50.6311 36.6955 50.7024 36.6021 50.8114C36.5087 50.9204 36.458 51.0595 36.4595 51.203L36.5611 64.3717C36.5588 64.4531 36.5729 64.5342 36.6025 64.6101C36.6321 64.686 36.6766 64.7552 36.7334 64.8136C36.7902 64.8719 36.8582 64.9183 36.9332 64.95C37.0083 64.9817 37.0889 64.998 37.1704 64.998Z" fill="#CB7A06"/>
<path d="M31.9742 64.524C32.1329 64.5196 32.2836 64.4534 32.3942 64.3396C32.5048 64.2258 32.5667 64.0734 32.5667 63.9146L32.4312 50.8644C32.429 50.7866 32.4115 50.71 32.3797 50.639C32.3479 50.5679 32.3024 50.5038 32.2458 50.4504C32.1892 50.3969 32.1227 50.3552 32.0499 50.3275C31.9772 50.2998 31.8997 50.2866 31.8219 50.2889C31.6814 50.3097 31.5535 50.3817 31.4629 50.491C31.3723 50.6004 31.3253 50.7394 31.331 50.8813L31.4495 63.9315C31.4521 64.0766 31.5064 64.2159 31.6026 64.3245C31.6988 64.4331 31.8306 64.5038 31.9742 64.524Z" fill="#D07E06"/>
<path d="M27.2008 63.9656C27.2785 63.9681 27.3559 63.9543 27.428 63.9252C27.5 63.8961 27.5653 63.8523 27.6194 63.7965C27.6736 63.7408 27.7155 63.6743 27.7425 63.6014C27.7696 63.5285 27.7811 63.4507 27.7763 63.3731L27.607 50.4414C27.607 50.2888 27.5464 50.1424 27.4385 50.0345C27.3306 49.9265 27.1842 49.8659 27.0315 49.8659H26.93C26.794 49.8866 26.6704 49.9568 26.583 50.063C26.4955 50.1692 26.4503 50.3039 26.4561 50.4414L26.6253 63.3731C26.623 63.4501 26.6363 63.5268 26.6642 63.5986C26.6921 63.6704 26.7341 63.7358 26.7878 63.7911C26.8414 63.8463 26.9056 63.8902 26.9766 63.9202C27.0475 63.9502 27.1238 63.9656 27.2008 63.9656Z" fill="#D48305"/>
<path d="M22.8679 63.3223C22.9434 63.3248 23.0185 63.3115 23.0886 63.2833C23.1586 63.255 23.2219 63.2124 23.2745 63.1582C23.3271 63.104 23.3678 63.0394 23.394 62.9686C23.4202 62.8977 23.4312 62.8222 23.4264 62.7468L23.1556 49.9505C23.1512 49.8008 23.0886 49.6588 22.9812 49.5545C22.8737 49.4502 22.7299 49.3919 22.5801 49.3919H22.4955C22.3611 49.416 22.2396 49.4871 22.1527 49.5925C22.0659 49.698 22.0194 49.8308 22.0216 49.9674L22.2247 62.7637C22.2265 62.8439 22.245 62.9229 22.2791 62.9955C22.3132 63.0681 22.3621 63.1327 22.4227 63.1853C22.4832 63.2379 22.5541 63.2773 22.6308 63.3009C22.7075 63.3245 22.7882 63.3318 22.8679 63.3223Z" fill="#D88805"/>
<path d="M18.9578 62.628C19.1045 62.6194 19.2424 62.555 19.3431 62.448C19.4438 62.341 19.4997 62.1995 19.4995 62.0525L19.2456 49.3747C19.2456 49.3021 19.2311 49.2303 19.2028 49.1635C19.1745 49.0966 19.1331 49.0361 19.081 48.9856C19.0289 48.9351 18.9672 48.8955 18.8995 48.8693C18.8318 48.8431 18.7596 48.8308 18.687 48.8331C18.5555 48.8537 18.4362 48.9221 18.3519 49.0251C18.2676 49.1281 18.2242 49.2586 18.23 49.3916L18.4839 62.0695C18.4823 62.2041 18.5294 62.3346 18.6165 62.4373C18.7036 62.5399 18.8248 62.6076 18.9578 62.628Z" fill="#DD8D04"/>
<path d="M15.4372 61.8496C15.509 61.8498 15.5802 61.8352 15.6461 61.8067C15.7121 61.7783 15.7715 61.7366 15.8207 61.6842C15.8699 61.6318 15.9078 61.5699 15.9321 61.5023C15.9564 61.4346 15.9665 61.3628 15.9619 61.291L15.6742 48.7317C15.6742 48.6614 15.6601 48.5917 15.6327 48.5269C15.6052 48.4621 15.5651 48.4035 15.5145 48.3546C15.464 48.3056 15.4041 48.2673 15.3385 48.242C15.2729 48.2166 15.2028 48.2047 15.1325 48.207C15.0055 48.2276 14.8905 48.2942 14.8094 48.3941C14.7282 48.4939 14.6866 48.6201 14.6924 48.7486L14.9802 61.3249C14.9826 61.4521 15.0297 61.5744 15.1133 61.6704C15.1968 61.7663 15.3115 61.8298 15.4372 61.8496Z" fill="#E19104"/>
<path d="M12.3225 61.0035C12.3906 61.0035 12.4581 60.9898 12.5208 60.9633C12.5835 60.9367 12.6403 60.8978 12.6877 60.8488C12.735 60.7999 12.7721 60.7418 12.7966 60.6783C12.8211 60.6147 12.8325 60.5469 12.8303 60.4788L12.5087 48.021C12.5065 47.952 12.4907 47.8842 12.4623 47.8214C12.4339 47.7586 12.3934 47.702 12.3431 47.6548C12.2928 47.6077 12.2337 47.5709 12.1692 47.5466C12.1046 47.5223 12.0359 47.5109 11.967 47.5132C11.8416 47.5371 11.7286 47.6046 11.6481 47.7037C11.5676 47.8028 11.5247 47.9272 11.5269 48.0548L11.8485 60.4957C11.8521 60.6235 11.9022 60.7457 11.9895 60.8392C12.0767 60.9327 12.1952 60.9912 12.3225 61.0035Z" fill="#E59603"/>
<path d="M9.61451 60.1061C9.68264 60.1061 9.75009 60.0924 9.81283 60.0659C9.87556 60.0393 9.93231 60.0004 9.97969 59.9514C10.0271 59.9025 10.0641 59.8445 10.0886 59.7809C10.1131 59.7173 10.1246 59.6495 10.1223 59.5814L9.74992 47.259C9.74774 47.1923 9.73242 47.1267 9.70486 47.0659C9.6773 47.0051 9.63803 46.9504 9.5893 46.9048C9.54057 46.8592 9.48333 46.8237 9.42086 46.8002C9.35838 46.7768 9.2919 46.7659 9.2252 46.7681C9.09961 46.7849 8.98482 46.8481 8.90339 46.9452C8.82197 47.0422 8.77978 47.1662 8.78512 47.2928L9.1575 59.6152C9.1644 59.7375 9.21388 59.8535 9.29734 59.9432C9.38081 60.0328 9.49302 60.0905 9.61451 60.1061Z" fill="#E99B03"/>
<path d="M7.2448 59.1413C7.37652 59.137 7.50137 59.0815 7.59297 58.9867C7.68457 58.892 7.73574 58.7654 7.73567 58.6336L7.32943 46.4296C7.32725 46.3652 7.31238 46.3018 7.28567 46.2431C7.25896 46.1843 7.22094 46.1314 7.17378 46.0874C7.12662 46.0434 7.07124 46.0091 7.01082 45.9865C6.9504 45.9639 6.88612 45.9534 6.82165 45.9557C6.70211 45.9759 6.59374 46.0382 6.51613 46.1313C6.43852 46.2245 6.39679 46.3423 6.39849 46.4635L6.80472 58.6674C6.80819 58.7863 6.85472 58.8999 6.93567 58.9871C7.01662 59.0743 7.12647 59.1291 7.2448 59.1413Z" fill="#EE9F02"/>
<path d="M5.28122 58.1428C5.40843 58.134 5.52726 58.0762 5.61256 57.9814C5.69786 57.8866 5.74293 57.7624 5.73823 57.6349L5.29815 45.5495C5.29604 45.4858 5.28107 45.4231 5.25416 45.3653C5.22725 45.3075 5.18893 45.2556 5.14152 45.213C5.0941 45.1703 5.03856 45.1376 4.97822 45.1169C4.91788 45.0962 4.85398 45.088 4.79036 45.0926C4.67515 45.1094 4.57071 45.1695 4.49836 45.2607C4.42601 45.352 4.3912 45.4674 4.40105 45.5834L4.84114 57.6688C4.84798 57.7866 4.89565 57.8984 4.97597 57.9849C5.05628 58.0714 5.16422 58.1272 5.28122 58.1428Z" fill="#F2A402"/>
<path d="M3.65656 57.0763C3.78079 57.0678 3.89711 57.0123 3.98197 56.9211C4.06683 56.83 4.11387 56.71 4.11357 56.5855L3.62271 44.6186C3.61412 44.4943 3.55864 44.378 3.46749 44.2931C3.37635 44.2083 3.25637 44.1612 3.13184 44.1615C3.01821 44.1779 2.9144 44.235 2.83968 44.3222C2.76497 44.4093 2.72443 44.5207 2.72561 44.6355L3.21647 56.6024C3.21994 56.7213 3.26648 56.8349 3.34743 56.9221C3.42838 57.0093 3.53823 57.0641 3.65656 57.0763Z" fill="#F6A901"/>
<path d="M2.38658 55.9591C2.50632 55.9505 2.61835 55.8968 2.70003 55.8089C2.78172 55.7209 2.82697 55.6052 2.82667 55.4852L2.30195 43.6367C2.29338 43.517 2.23968 43.405 2.15171 43.3233C2.06375 43.2416 1.94806 43.1963 1.82801 43.1966C1.7204 43.2132 1.62277 43.2692 1.55399 43.3536C1.48521 43.438 1.45017 43.5449 1.45563 43.6537L1.98035 55.5021C1.9832 55.614 2.02556 55.7212 2.09991 55.8048C2.17426 55.8885 2.27581 55.9431 2.38658 55.9591Z" fill="#FBAD01"/>
<path d="M1.45586 54.7912C1.51367 54.789 1.57048 54.7754 1.62304 54.7513C1.6756 54.7271 1.72289 54.6929 1.76219 54.6504C1.80149 54.608 1.83204 54.5582 1.85209 54.5039C1.87213 54.4497 1.88129 54.392 1.87902 54.3342L1.32045 42.6042C1.31617 42.5464 1.3005 42.4899 1.27433 42.4382C1.24816 42.3864 1.21202 42.3403 1.16797 42.3025C1.12392 42.2648 1.07285 42.2361 1.01768 42.2182C0.962511 42.2002 0.904341 42.1933 0.846513 42.198C0.740285 42.2147 0.644418 42.2713 0.578394 42.3562C0.512371 42.4411 0.481146 42.5479 0.491061 42.655L1.04963 54.368C1.05348 54.4761 1.09703 54.5791 1.17197 54.6571C1.2469 54.7352 1.34797 54.7829 1.45586 54.7912Z" fill="#FFB200"/>
<path d="M124.95 10.2922C124.853 10.0327 124.807 9.75682 124.815 9.4798C124.806 9.26398 124.865 9.05083 124.984 8.87042C125.103 8.68887 125.274 8.54735 125.475 8.46421C125.727 8.35688 125.997 8.29392 126.27 8.27804C128.694 8.38293 131.074 8.9578 133.278 9.97068C136.986 11.4616 140.608 13.1568 144.128 15.0486C148.173 17.1305 152.591 19.6525 157.364 22.4623C162.137 25.2721 167.029 28.3019 172.107 31.6872C177.185 35.0724 181.907 38.4577 186.19 41.6399C190.472 44.822 194.433 47.9872 197.734 50.8139C200.583 53.1981 203.269 55.7711 205.774 58.5154C207.754 60.7497 208.854 62.527 208.82 63.5933C208.809 63.7625 208.769 63.9285 208.702 64.0842C208.631 64.2208 208.533 64.3416 208.414 64.4397C208.268 64.5371 208.109 64.6113 207.94 64.6597C207.727 64.7296 207.504 64.7695 207.28 64.7782L202.795 65.0659C203.012 65.0528 203.227 65.0188 203.438 64.9644C203.608 64.9225 203.769 64.8477 203.912 64.7443C204.043 64.6621 204.148 64.5448 204.216 64.4058C204.299 64.2734 204.346 64.1217 204.352 63.9657C204.47 62.9332 203.522 61.2744 201.728 59.1755C199.416 56.6124 196.928 54.2143 194.281 51.9988C191.234 49.3413 187.595 46.4131 183.532 43.3663C179.47 40.3196 175.069 37.2051 170.347 34.0061C165.624 30.807 160.969 27.9126 156.586 25.289C152.202 22.6654 147.953 20.3127 144.162 18.3831C140.865 16.6693 137.475 15.1434 134.006 13.8129C131.962 12.8959 129.746 12.4229 127.506 12.425C127.25 12.4422 127.001 12.5174 126.778 12.645C126.592 12.7293 126.437 12.8718 126.338 13.0512C126.233 13.2366 126.18 13.4474 126.186 13.6606C126.193 13.9378 126.245 14.212 126.338 14.473L124.95 10.2922Z" fill="url(#paint17_linear)"/>
<path d="M98.7822 18.7892C99.2054 20.1095 99.6116 21.4298 100.018 22.7669C100.995 25.2922 102.385 27.6374 104.131 29.7067C106.883 33.1043 109.87 36.3055 113.068 39.287C116.876 42.9093 121.413 46.8362 126.609 50.9493C131.806 55.0624 137.696 59.4125 144.009 63.7456C150.78 68.4342 157.652 72.7166 164.152 76.4912C170.652 80.2657 176.66 83.414 182.144 85.9868C186.716 88.1721 191.432 90.0385 196.261 91.5725C199.185 92.6024 202.268 93.1067 205.367 93.0621L209.633 92.7066C206.426 92.7375 203.24 92.1988 200.222 91.1155C195.172 89.4803 190.241 87.5009 185.462 85.1913C179.707 82.4831 173.309 79.0978 166.505 75.1201C159.7 71.1424 152.439 66.6569 145.177 61.579C138.407 57.0089 132.296 52.4557 126.761 48.038C121.227 43.6202 116.487 39.5748 112.476 35.8171C109.114 32.7127 105.975 29.3757 103.082 25.8306C101.254 23.7482 99.7997 21.3662 98.7822 18.7892Z" fill="url(#paint18_linear)"/>
<path d="M108.888 0.678025H109.277H109.48H109.869H110.259H110.462H110.851L111.24 0.593414H111.444H111.833H112.239H112.425H112.831C111.139 0.898089 110.834 2.1337 111.884 4.18179C113.913 7.49566 116.423 10.4903 119.331 13.0681C124.373 17.8477 129.655 22.3672 135.157 26.6092C141.809 31.8056 149.562 37.4251 158.093 43.197C167.03 48.6134 175.848 54.1314 183.956 58.7693C192.064 63.4071 199.037 67.097 204.911 69.7544C209.071 71.8232 213.472 73.3696 218.012 74.3584C220.822 74.7816 222.193 74.1553 221.939 72.4457V72.158C222.243 73.4783 222.565 74.8155 222.87 76.1357V76.4404C223.157 78.3531 221.736 79.0978 218.807 78.7423C214.049 77.8433 209.432 76.312 205.08 74.1891C198.902 71.4471 191.387 67.5709 183.076 62.7639C174.765 57.9568 165.286 52.0833 155.841 45.6852C146.837 39.6086 138.695 33.6506 131.721 28.1495C125.977 23.6833 120.485 18.9028 115.269 13.8298C112.27 11.1142 109.717 7.94411 107.703 4.43568C106.62 2.31988 107.009 0.999626 108.888 0.678025Z" fill="url(#paint19_linear)"/>
<path d="M126.593 15.0316C128.033 17.4539 129.83 19.6451 131.924 21.5313C135.501 24.9505 139.252 28.1821 143.163 31.2132C147.835 34.8862 153.319 38.8639 159.294 42.9093C165.269 46.9547 171.143 50.6615 176.661 53.8268C182.179 56.992 186.986 59.5309 191.116 61.4436C194.179 62.9513 197.397 64.1206 200.713 64.9305C202.913 65.3706 204.098 65.0828 204.284 64.0164C204.471 62.9501 203.455 61.3251 201.661 59.2263C199.372 56.648 196.906 54.233 194.281 51.9987C191.234 49.3413 187.595 46.413 183.533 43.3663C179.47 40.3195 175.07 37.2051 170.347 34.006C165.625 30.8069 160.97 27.9125 156.586 25.289C152.202 22.6654 147.954 20.3126 144.162 18.383C140.866 16.6692 137.475 15.1434 134.006 13.8129C131.962 12.8959 129.747 12.4228 127.507 12.4249C126.152 12.5942 125.865 13.5082 126.593 15.0316Z" fill="url(#paint20_linear)"/>
<path d="M123.579 2.59056C128.446 4.60621 133.209 6.86593 137.848 9.3611C143.061 12.0862 148.783 15.3361 154.775 18.9245C160.766 22.5129 166.961 26.4567 173.393 30.7729C179.825 35.0891 185.834 39.2361 191.302 43.3831C196.769 47.53 201.931 51.5246 206.264 55.2315C210.095 58.3988 213.735 61.79 217.165 65.3873C219.975 68.4341 221.684 70.9392 221.921 72.581C222.158 74.2229 220.804 74.9169 217.994 74.4937C213.454 73.5049 209.054 71.9585 204.893 69.8897C199.02 67.2323 191.894 63.5085 183.939 58.9045C175.983 54.3005 167.012 48.7487 158.109 42.6721C149.206 36.5956 141.183 30.8237 134.311 25.4073C128.735 21.0949 123.406 16.4723 118.349 11.5615C114.608 7.82078 112.289 4.79101 111.578 2.87833C110.868 0.965655 111.578 -0.0330197 113.88 0.00083295C117.232 0.336002 120.507 1.21052 123.579 2.59056ZM126.271 8.27784C124.764 8.39633 124.442 9.31031 125.204 10.8845C126.749 13.4145 128.666 15.697 130.891 17.655C134.755 21.3153 138.806 24.7729 143.028 28.0139C148.106 31.9747 154.013 36.2571 160.529 40.641C167.046 45.0249 173.444 49.1042 179.352 52.4895C185.259 55.8747 190.489 58.6845 194.924 60.7495C198.163 62.3793 201.568 63.6561 205.08 64.558C207.399 65.0319 208.668 64.7272 208.719 63.5762C208.77 62.4252 207.652 60.6987 205.672 58.4983C203.168 55.7539 200.481 53.181 197.632 50.7968C194.331 47.9701 190.421 44.8556 186.088 41.6227C181.755 38.3898 177.185 35.0722 172.107 31.687C167.029 28.3017 162.104 25.1872 157.432 22.3775C152.76 19.5677 148.241 17.0457 144.196 14.9637C140.676 13.0719 137.053 11.3767 133.346 9.88581C131.115 8.89354 128.711 8.34731 126.271 8.27784Z" fill="url(#paint21_linear)"/>
<path d="M98.867 15.4883L107.33 1.57486C106.721 2.59044 107.33 4.36772 109.023 6.82204C111.671 10.3189 114.659 13.545 117.943 16.4531C122.175 20.4139 127.54 24.9163 133.888 29.8757C140.235 34.8351 147.733 40.2516 155.892 45.7019C164.524 51.5584 173.021 56.8902 180.943 61.5111C188.864 66.132 195.872 69.8557 201.965 72.7163C206.567 75.0078 211.373 76.8664 216.319 78.2681C219.704 79.1145 221.922 79.0467 222.7 77.9973L212.731 91.3692C211.749 92.7064 209.345 93.0618 205.791 92.4694C200.721 91.4562 195.785 89.8602 191.082 87.7131C183.854 84.5831 176.808 81.0512 169.975 77.1341C162.087 72.6825 153.675 67.4353 145.161 61.6296C137.222 56.2131 129.927 50.8136 123.698 45.7019C118.318 41.3742 113.187 36.7459 108.329 31.8392C105.164 28.745 102.38 25.2846 100.035 21.531C98.4946 18.8228 98.0884 16.7747 98.867 15.4883Z" fill="url(#paint22_linear)"/>
<path d="M172.767 46.5484C155.113 34.7846 162.07 34.7 156.315 30.8916C154.622 29.8083 153.184 29.0804 152.794 29.6559C152.405 30.2314 156.078 33.0412 156.078 33.0412L155.401 33.8198L143.163 26.5246C141.807 25.3901 140.822 23.8747 140.337 22.1745L133.075 17.3335L133.922 16.1656L134.615 15.4209L141.268 21.0912C143.756 20.7527 150.712 24.4765 158.448 29.5544C176.305 41.4028 169.281 41.4028 175.374 45.4821C177.067 46.5823 178.099 47.0224 178.489 46.4638C178.878 45.9053 177.693 43.9248 175.391 41.6059L176.051 41.3351L187.595 48.7996C189.778 51 191.082 53.0482 190.98 54.1653L198.242 59.4802L197.582 60.2757L189.846 55.1132C187.019 55.1132 180.164 51.474 172.767 46.5484Z" fill="url(#paint23_linear)"/>
<path d="M173.563 45.8544C155.909 34.0906 162.865 34.006 157.127 30.2145C155.435 29.1143 153.996 28.3864 153.607 28.9619C153.217 29.5374 154.064 30.79 156.078 32.9735L143.976 25.7628C142.611 24.6328 141.619 23.1164 141.132 21.4128L133.82 16.538L134.615 15.3531L142.063 20.3295C144.551 19.991 151.525 23.7148 159.243 28.7927C177.101 40.6411 170.076 40.6411 176.17 44.7204C177.862 45.8206 178.912 46.2606 179.284 45.7021C179.656 45.1435 178.488 43.1631 176.203 40.8442L188.39 48.0549C190.591 50.2384 191.894 52.2864 191.776 53.4035L199.037 58.2276L198.242 59.4124L190.642 54.3345C187.832 54.4192 180.96 50.7969 173.563 45.8544Z" fill="url(#paint24_linear)"/>
<path d="M212.73 90.506C212.776 90.5441 212.83 90.5718 212.888 90.5874C212.946 90.603 213.007 90.6061 213.066 90.5965C213.125 90.5869 213.182 90.5648 213.232 90.5317C213.282 90.4986 213.324 90.4552 213.356 90.4045L220.432 80.5872C220.501 80.492 220.531 80.3738 220.515 80.2571C220.499 80.1404 220.439 80.0343 220.347 79.9609C220.254 79.9155 220.147 79.9059 220.047 79.934C219.947 79.9621 219.861 80.0259 219.805 80.1132L212.713 89.9305C212.646 90.0125 212.611 90.1157 212.614 90.2214C212.618 90.3271 212.659 90.4281 212.73 90.506Z" fill="#B37100"/>
<path d="M211.359 90.8278C211.408 90.8654 211.464 90.8923 211.524 90.9067C211.584 90.9212 211.647 90.9229 211.707 90.9118C211.768 90.9006 211.826 90.8768 211.876 90.8419C211.927 90.807 211.97 90.7619 212.003 90.7093L219.145 80.7905C219.181 80.7418 219.207 80.6863 219.222 80.6275C219.236 80.5686 219.239 80.5075 219.229 80.4476C219.22 80.3878 219.199 80.3304 219.167 80.2789C219.135 80.2273 219.093 80.1826 219.044 80.1473C218.946 80.0997 218.833 80.089 218.728 80.1169C218.622 80.1449 218.53 80.2097 218.468 80.2996L211.342 90.2015C211.268 90.2901 211.229 90.4026 211.233 90.5179C211.236 90.6332 211.281 90.7434 211.359 90.8278Z" fill="#B37001"/>
<path d="M209.514 90.8276C209.565 90.8655 209.622 90.8926 209.683 90.9073C209.745 90.9219 209.808 90.9237 209.87 90.9126C209.932 90.9015 209.991 90.8777 210.044 90.8427C210.096 90.8076 210.141 90.7622 210.175 90.7091L217.368 80.7056C217.404 80.6545 217.429 80.5969 217.442 80.5361C217.456 80.4752 217.457 80.4123 217.446 80.351C217.435 80.2897 217.412 80.2312 217.378 80.1788C217.345 80.1263 217.301 80.0811 217.25 80.0455C217.149 79.9969 217.034 79.9854 216.926 80.0133C216.817 80.0412 216.722 80.1066 216.657 80.1979L209.345 90.1675C209.312 90.2216 209.29 90.282 209.28 90.3449C209.271 90.4077 209.274 90.4718 209.29 90.5334C209.306 90.595 209.334 90.6529 209.372 90.7034C209.411 90.7539 209.459 90.7962 209.514 90.8276Z" fill="#B47001"/>
<path d="M207.195 90.5231C207.247 90.5614 207.306 90.5888 207.369 90.6036C207.431 90.6184 207.496 90.6203 207.559 90.6092C207.623 90.5981 207.683 90.5743 207.737 90.5391C207.791 90.5039 207.837 90.4582 207.873 90.4046L215.1 80.2488C215.174 80.1402 215.203 80.0073 215.181 79.8779C215.159 79.7485 215.087 79.6327 214.982 79.5548C214.876 79.5099 214.758 79.5023 214.647 79.533C214.537 79.5638 214.44 79.6311 214.372 79.7241L207.145 89.8799C207.077 89.9764 207.046 90.0933 207.055 90.2106C207.064 90.3279 207.114 90.4384 207.195 90.5231Z" fill="#B46F02"/>
<path d="M204.402 89.8966C204.454 89.9377 204.515 89.9674 204.579 89.9838C204.643 90.0002 204.71 90.0029 204.776 89.9917C204.841 89.9806 204.903 89.9558 204.959 89.919C205.014 89.8822 205.061 89.8342 205.096 89.7781L212.375 79.6223C212.414 79.568 212.442 79.5064 212.457 79.4411C212.472 79.3759 212.474 79.3083 212.463 79.2422C212.452 79.1761 212.428 79.1129 212.393 79.0561C212.357 78.9993 212.311 78.9501 212.256 78.9114H212.172C212.066 78.8665 211.948 78.8589 211.837 78.8896C211.727 78.9203 211.63 78.9877 211.562 79.0807L204.284 89.2365C204.216 89.341 204.191 89.4674 204.213 89.59C204.235 89.7125 204.303 89.8222 204.402 89.8966Z" fill="#B56F02"/>
<path d="M201.169 88.9657C201.282 89.0456 201.421 89.0781 201.558 89.0559C201.694 89.0337 201.816 88.9587 201.897 88.8472L209.209 78.5391C209.289 78.4265 209.322 78.287 209.3 78.1508C209.277 78.0146 209.202 77.8926 209.091 77.8112C208.983 77.762 208.862 77.7519 208.747 77.7828C208.633 77.8137 208.533 77.8837 208.465 77.9805L201.136 88.2886C201.06 88.3873 201.022 88.5094 201.028 88.6334C201.035 88.7574 201.085 88.8751 201.169 88.9657Z" fill="#B56E03"/>
<path d="M197.496 87.7303C197.552 87.7713 197.616 87.8005 197.684 87.8159C197.751 87.8314 197.821 87.8328 197.89 87.8201C197.958 87.8074 198.023 87.7809 198.08 87.7421C198.138 87.7034 198.187 87.6533 198.224 87.5949L205.604 77.2022C205.645 77.1449 205.675 77.0798 205.691 77.0108C205.706 76.9419 205.708 76.8705 205.695 76.8009C205.682 76.7313 205.656 76.665 205.617 76.606C205.578 76.547 205.528 76.4964 205.469 76.4574H205.384C205.274 76.4069 205.149 76.3962 205.032 76.4271C204.915 76.4579 204.812 76.5284 204.741 76.6266L197.496 86.9856C197.447 87.0344 197.408 87.0923 197.382 87.1562C197.355 87.2202 197.341 87.2887 197.341 87.358C197.341 87.4272 197.355 87.4957 197.382 87.5596C197.408 87.6235 197.447 87.6815 197.496 87.7303Z" fill="#B66D03"/>
<path d="M193.519 86.19C193.577 86.2342 193.643 86.2659 193.714 86.2831C193.784 86.3003 193.858 86.3026 193.929 86.2898C194.001 86.2771 194.069 86.2496 194.13 86.2091C194.19 86.1686 194.242 86.116 194.281 86.0546L201.711 75.5603C201.791 75.4404 201.822 75.2941 201.797 75.1521C201.771 75.0102 201.692 74.8835 201.576 74.7986C201.46 74.7457 201.331 74.7337 201.208 74.7644C201.085 74.7952 200.976 74.8669 200.899 74.9678L193.485 85.4791C193.404 85.5817 193.363 85.7102 193.369 85.8409C193.375 85.9716 193.428 86.0956 193.519 86.19Z" fill="#B66D04"/>
<path d="M189.152 84.3447C189.21 84.3918 189.278 84.4259 189.35 84.4447C189.423 84.4635 189.498 84.4666 189.572 84.4538C189.646 84.441 189.716 84.4125 189.778 84.3703C189.84 84.3282 189.892 84.2733 189.931 84.2093L197.395 73.6134C197.44 73.5542 197.472 73.4866 197.489 73.4145C197.506 73.3425 197.509 73.2677 197.496 73.1948C197.483 73.1218 197.456 73.0522 197.415 72.9902C197.374 72.9283 197.322 72.8754 197.26 72.8348H197.175C197.056 72.7792 196.921 72.7674 196.794 72.8014C196.667 72.8355 196.556 72.9133 196.481 73.021L189.033 83.5661C188.946 83.6852 188.91 83.8339 188.932 83.9798C188.954 84.1257 189.033 84.2569 189.152 84.3447Z" fill="#B66C04"/>
<path d="M184.463 82.2122C184.524 82.2572 184.593 82.2894 184.666 82.307C184.74 82.3245 184.816 82.3271 184.89 82.3144C184.964 82.3017 185.035 82.2741 185.099 82.2333C185.162 82.1925 185.217 82.1392 185.259 82.0768L192.774 71.3794C192.819 71.3188 192.851 71.2498 192.869 71.1765C192.887 71.1031 192.889 71.027 192.876 70.9527C192.864 70.8783 192.836 70.8074 192.795 70.744C192.755 70.6806 192.701 70.6261 192.639 70.5838H192.537C192.413 70.5321 192.275 70.5239 192.146 70.5608C192.017 70.5978 191.904 70.6775 191.826 70.7869L184.311 81.4844C184.246 81.6041 184.226 81.743 184.254 81.8762C184.282 82.0095 184.356 82.1285 184.463 82.2122Z" fill="#B76B05"/>
<path d="M179.453 79.7915C179.516 79.8388 179.589 79.8725 179.666 79.8905C179.743 79.9085 179.823 79.9104 179.901 79.8961C179.979 79.8818 180.053 79.8517 180.118 79.8075C180.184 79.7632 180.24 79.7059 180.282 79.6392L187.831 68.8402C187.919 68.7137 187.953 68.5581 187.928 68.4065C187.903 68.255 187.82 68.1191 187.696 68.0277H187.594C187.471 67.9664 187.329 67.9515 187.196 67.9857C187.062 68.0198 186.945 68.1008 186.867 68.2139L179.317 79.0129C179.24 79.1366 179.211 79.2844 179.236 79.4281C179.261 79.5718 179.338 79.7012 179.453 79.7915Z" fill="#B76B05"/>
<path d="M174.172 77.0664C174.237 77.1141 174.311 77.148 174.389 77.1662C174.467 77.1844 174.549 77.1865 174.628 77.1722C174.707 77.158 174.783 77.1277 174.85 77.0833C174.917 77.0389 174.974 76.9814 175.018 76.9141L182.618 66.0305C182.667 65.9667 182.702 65.8937 182.721 65.816C182.741 65.7383 182.744 65.6574 182.732 65.5783C182.719 65.4992 182.69 65.4235 182.648 65.3557C182.605 65.288 182.549 65.2296 182.483 65.1841H182.381C182.253 65.1268 182.108 65.1157 181.973 65.1527C181.837 65.1897 181.718 65.2726 181.636 65.3872L174.037 76.2709C173.954 76.3961 173.923 76.5477 173.948 76.6953C173.973 76.8429 174.053 76.9755 174.172 77.0664Z" fill="#B86A06"/>
<path d="M168.722 74.0029C168.786 74.053 168.86 74.0891 168.938 74.1087C169.017 74.1283 169.099 74.131 169.179 74.1166C169.259 74.1022 169.335 74.0711 169.402 74.0252C169.469 73.9794 169.526 73.9198 169.568 73.8505L177.236 62.8653C177.324 62.7288 177.358 62.5639 177.33 62.4037C177.301 62.2436 177.213 62.1 177.084 62.0021H176.982C176.851 61.9435 176.704 61.9318 176.565 61.9688C176.427 62.0057 176.305 62.0892 176.22 62.2052L168.57 73.2073C168.489 73.3345 168.46 73.4874 168.489 73.6352C168.517 73.7829 168.6 73.9144 168.722 74.0029Z" fill="#B86A06"/>
<path d="M156.873 67.2325C156.941 67.2837 157.019 67.3205 157.102 67.3406C157.185 67.3607 157.271 67.3637 157.354 67.3495C157.438 67.3352 157.519 67.304 157.59 67.2577C157.662 67.2114 157.723 67.151 157.77 67.0802L165.523 55.8918C165.571 55.8229 165.606 55.7451 165.625 55.6627C165.644 55.5803 165.646 55.4951 165.632 55.4117C165.618 55.3284 165.588 55.2487 165.543 55.1772C165.498 55.1056 165.439 55.0436 165.37 54.9947H165.269C165.134 54.9271 164.979 54.9105 164.833 54.9478C164.687 54.9851 164.559 55.0739 164.473 55.1979L156.873 66.3016C156.81 66.3616 156.76 66.4339 156.726 66.5139C156.691 66.5939 156.674 66.68 156.674 66.767C156.674 66.8541 156.691 66.9402 156.726 67.0202C156.76 67.1002 156.81 67.1724 156.873 67.2325Z" fill="#B96807"/>
<path d="M150.831 63.3562C150.901 63.4069 150.981 63.4429 151.066 63.4619C151.151 63.481 151.238 63.4826 151.324 63.4668C151.409 63.451 151.49 63.4181 151.563 63.3699C151.635 63.3218 151.697 63.2595 151.745 63.1869L159.531 51.897C159.63 51.7552 159.67 51.5798 159.642 51.4088C159.613 51.2378 159.519 51.0848 159.378 50.983H159.277C159.135 50.9148 158.974 50.8995 158.821 50.9399C158.669 50.9802 158.537 51.0736 158.447 51.2031L150.661 62.4929C150.578 62.6325 150.55 62.7976 150.581 62.9569C150.612 63.1161 150.701 63.2582 150.831 63.3562Z" fill="#BA6808"/>
<path d="M144.551 59.2431C144.624 59.2947 144.706 59.3313 144.794 59.3507C144.881 59.3702 144.972 59.372 145.06 59.3563C145.148 59.3406 145.232 59.3075 145.307 59.259C145.383 59.2105 145.448 59.1475 145.498 59.0738L153.335 47.6824C153.434 47.5358 153.472 47.3564 153.44 47.1824C153.409 47.0085 153.31 46.8538 153.166 46.7514H153.065C152.923 46.6832 152.761 46.6679 152.609 46.7083C152.457 46.7486 152.325 46.842 152.235 46.9715L144.381 58.346C144.296 58.4907 144.267 58.6613 144.298 58.8263C144.329 58.9912 144.419 59.1393 144.551 59.2431Z" fill="#BA6708"/>
<path d="M138.762 55.1132C138.907 55.207 139.083 55.2417 139.253 55.2102C139.423 55.1787 139.574 55.0835 139.676 54.9439L147.412 43.6371C147.51 43.4933 147.547 43.3165 147.515 43.1453C147.484 42.9741 147.385 42.8224 147.242 42.7231C147.101 42.6549 146.939 42.6397 146.787 42.68C146.635 42.7204 146.502 42.8137 146.413 42.9432L138.678 54.2499C138.585 54.3798 138.543 54.5388 138.558 54.6974C138.574 54.8561 138.646 55.0038 138.762 55.1132Z" fill="#BE6C08"/>
<path d="M133.413 51.1693C133.483 51.2174 133.562 51.2512 133.645 51.2687C133.728 51.2862 133.814 51.2872 133.897 51.2714C133.98 51.2557 134.06 51.2236 134.131 51.177C134.202 51.1304 134.263 51.0703 134.31 51L141.961 39.7778C142.009 39.7079 142.043 39.6292 142.06 39.5462C142.078 39.4631 142.079 39.3774 142.063 39.294C142.047 39.2107 142.015 39.1312 141.969 39.0603C141.922 38.9894 141.862 38.9283 141.792 38.8808H141.69C141.553 38.8148 141.397 38.8007 141.251 38.8412C141.105 38.8817 140.978 38.9739 140.895 39.1008L133.176 50.306C133.1 50.4534 133.082 50.624 133.126 50.7839C133.17 50.9439 133.273 51.0815 133.413 51.1693Z" fill="#C37007"/>
<path d="M128.522 47.4115C128.59 47.4591 128.668 47.4926 128.749 47.5099C128.831 47.5272 128.915 47.528 128.997 47.5122C129.079 47.4965 129.157 47.4645 129.227 47.4181C129.296 47.3717 129.356 47.3119 129.402 47.2422L136.934 36.1046C137.028 35.9668 137.064 35.798 137.036 35.6338C137.007 35.4696 136.916 35.3229 136.782 35.2245H136.68C136.545 35.1665 136.394 35.1567 136.252 35.1967C136.11 35.2368 135.987 35.3243 135.902 35.4445L128.352 46.599C128.277 46.7317 128.252 46.8876 128.283 47.0373C128.314 47.1869 128.399 47.32 128.522 47.4115Z" fill="#C77507"/>
<path d="M124.07 43.857C124.137 43.9016 124.211 43.9326 124.29 43.9482C124.369 43.9638 124.45 43.9638 124.528 43.948C124.607 43.9323 124.682 43.9012 124.748 43.8566C124.815 43.8119 124.872 43.7545 124.916 43.6877L132.364 32.6179C132.408 32.5513 132.439 32.4765 132.455 32.3979C132.471 32.3192 132.471 32.2382 132.455 32.1596C132.439 32.081 132.408 32.0063 132.363 31.9397C132.319 31.8731 132.261 31.816 132.195 31.7716C132.062 31.705 131.91 31.689 131.767 31.7264C131.624 31.7638 131.499 31.8521 131.416 31.9747L123.985 43.0445C123.9 43.1677 123.861 43.3174 123.877 43.4665C123.892 43.6155 123.961 43.7541 124.07 43.857Z" fill="#CB7A06"/>
<path d="M120.024 40.4718C120.157 40.5635 120.32 40.5989 120.479 40.5704C120.638 40.5418 120.779 40.4516 120.871 40.3195L128.2 29.3173C128.285 29.1841 128.314 29.0232 128.283 28.8685C128.251 28.7137 128.161 28.5773 128.031 28.4879C127.901 28.4288 127.754 28.4185 127.617 28.4589C127.48 28.4993 127.363 28.5878 127.286 28.708L119.957 39.6932C119.872 39.8091 119.832 39.952 119.844 40.0952C119.856 40.2385 119.921 40.3723 120.024 40.4718Z" fill="#D07E06"/>
<path d="M116.402 37.2895C116.466 37.3332 116.538 37.3636 116.614 37.3788C116.69 37.394 116.769 37.3936 116.845 37.3778C116.92 37.362 116.992 37.3311 117.056 37.2868C117.12 37.2426 117.174 37.1858 117.215 37.1202L124.442 26.2196C124.527 26.0864 124.557 25.9254 124.525 25.7707C124.494 25.616 124.403 25.4796 124.273 25.3902C124.145 25.3329 124 25.3218 123.864 25.3588C123.729 25.3959 123.61 25.4787 123.528 25.5933L116.25 36.477C116.164 36.6055 116.133 36.7624 116.161 36.9142C116.189 37.0659 116.276 37.2006 116.402 37.2895Z" fill="#D48305"/>
<path d="M113.153 34.2767C113.279 34.3613 113.433 34.3928 113.582 34.3643C113.731 34.3357 113.862 34.2495 113.948 34.1244L121.091 23.2916C121.174 23.1636 121.203 23.0079 121.171 22.8587C121.139 22.7096 121.05 22.5791 120.922 22.496C120.796 22.4398 120.654 22.4294 120.521 22.4665C120.388 22.5036 120.273 22.5858 120.194 22.6991L113.068 33.532C112.991 33.6458 112.957 33.7834 112.972 33.92C112.988 34.0566 113.052 34.1832 113.153 34.2767Z" fill="#D88805"/>
<path d="M110.309 31.4501C110.368 31.4935 110.435 31.5242 110.506 31.5401C110.578 31.556 110.652 31.5568 110.723 31.5425C110.795 31.5282 110.863 31.499 110.923 31.4569C110.983 31.4147 111.033 31.3605 111.071 31.2978L118.112 20.5496C118.17 20.4298 118.186 20.2934 118.155 20.1638C118.124 20.0341 118.049 19.9192 117.943 19.8386C117.819 19.7869 117.681 19.7788 117.552 19.8157C117.422 19.8526 117.31 19.9323 117.232 20.0417L110.207 30.8069C110.152 30.9107 110.132 31.0295 110.151 31.1455C110.169 31.2615 110.225 31.3684 110.309 31.4501Z" fill="#DD8D04"/>
<path d="M107.787 28.8095C107.845 28.8501 107.911 28.8785 107.981 28.8929C108.05 28.9072 108.122 28.9073 108.192 28.893C108.261 28.8788 108.327 28.8505 108.386 28.81C108.444 28.7694 108.494 28.7174 108.531 28.6572L115.471 17.9936C115.548 17.8696 115.573 17.7206 115.542 17.5783C115.51 17.436 115.424 17.3116 115.302 17.2319C115.186 17.1738 115.053 17.1607 114.928 17.1951C114.803 17.2294 114.695 17.3089 114.625 17.4181L107.685 28.0986C107.612 28.2091 107.582 28.3424 107.601 28.4733C107.62 28.6043 107.686 28.7238 107.787 28.8095Z" fill="#E19104"/>
<path d="M105.688 26.3553C105.745 26.3955 105.81 26.4236 105.878 26.4378C105.946 26.4519 106.017 26.4519 106.085 26.4376C106.153 26.4233 106.218 26.3951 106.275 26.3547C106.332 26.3143 106.38 26.2627 106.416 26.2029L113.186 15.607C113.227 15.55 113.255 15.4854 113.269 15.417C113.283 15.3487 113.283 15.2783 113.269 15.21C113.254 15.1417 113.226 15.077 113.186 15.0201C113.145 14.9632 113.094 14.9153 113.034 14.8792C112.921 14.8221 112.79 14.8095 112.668 14.844C112.546 14.8784 112.441 14.9574 112.374 15.0654L105.603 25.6613C105.526 25.7658 105.491 25.896 105.507 26.0251C105.523 26.1543 105.588 26.2725 105.688 26.3553Z" fill="#E59603"/>
<path d="M103.894 24.0869C104.011 24.1592 104.153 24.1836 104.288 24.1553C104.423 24.127 104.543 24.048 104.621 23.9345L111.392 13.4232C111.429 13.3645 111.454 13.2989 111.466 13.2304C111.478 13.1618 111.475 13.0917 111.46 13.024C111.444 12.9562 111.415 12.8923 111.374 12.8359C111.333 12.7795 111.282 12.7318 111.223 12.6954C111.106 12.6472 110.977 12.641 110.856 12.6781C110.736 12.7152 110.632 12.7931 110.563 12.8985L103.792 23.4098C103.725 23.5161 103.699 23.6429 103.717 23.7672C103.736 23.8914 103.798 24.0049 103.894 24.0869Z" fill="#E99B03"/>
<path d="M102.438 21.9882C102.493 22.0253 102.555 22.0509 102.621 22.0633C102.686 22.0758 102.753 22.0748 102.818 22.0606C102.883 22.0464 102.944 22.0191 102.998 21.9805C103.052 21.9418 103.098 21.8926 103.132 21.8358L109.75 11.3754C109.787 11.3203 109.813 11.2582 109.825 11.193C109.838 11.1277 109.837 11.0606 109.823 10.9958C109.808 10.9309 109.781 10.8696 109.743 10.8155C109.704 10.7615 109.655 10.7159 109.598 10.6814C109.486 10.6291 109.36 10.6192 109.241 10.6534C109.123 10.6877 109.021 10.7638 108.955 10.8676L102.337 21.2942C102.297 21.3462 102.268 21.4055 102.252 21.4688C102.236 21.532 102.232 21.5979 102.241 21.6625C102.251 21.7272 102.273 21.7893 102.307 21.8452C102.341 21.9011 102.385 21.9497 102.438 21.9882Z" fill="#EE9F02"/>
<path d="M101.304 20.0757C101.358 20.1125 101.419 20.1378 101.483 20.15C101.547 20.1623 101.612 20.1612 101.676 20.1469C101.739 20.1327 101.799 20.1054 101.852 20.0669C101.904 20.0285 101.948 19.9796 101.981 19.9233L108.498 9.56442C108.562 9.45589 108.582 9.32678 108.554 9.20386C108.525 9.08095 108.451 8.9737 108.346 8.90432C108.236 8.85308 108.112 8.84374 107.997 8.87808C107.881 8.91241 107.783 8.988 107.719 9.09048L101.203 19.4494C101.135 19.5466 101.108 19.6662 101.127 19.783C101.146 19.8998 101.209 20.0048 101.304 20.0757Z" fill="#F2A402"/>
<path d="M100.475 18.349C100.581 18.4123 100.707 18.4319 100.827 18.4035C100.947 18.375 101.052 18.3008 101.118 18.1966L107.533 7.99005C107.57 7.93767 107.595 7.87822 107.607 7.81556C107.619 7.75289 107.618 7.68838 107.603 7.62619C107.589 7.564 107.562 7.50552 107.523 7.45449C107.485 7.40346 107.436 7.361 107.381 7.3299C107.276 7.28789 107.159 7.28352 107.051 7.31745C106.943 7.35138 106.85 7.42155 106.788 7.51611L100.373 17.7904C100.33 17.8826 100.317 17.9858 100.335 18.0859C100.353 18.1859 100.402 18.2779 100.475 18.349Z" fill="#F6A901"/>
<path d="M99.9331 16.7919C100.034 16.8559 100.157 16.8776 100.274 16.8522C100.391 16.8269 100.494 16.7566 100.559 16.6564L106.873 6.50061C106.936 6.39467 106.956 6.26818 106.927 6.14806C106.899 6.02794 106.825 5.92365 106.721 5.8574C106.621 5.8076 106.506 5.79737 106.4 5.82878C106.293 5.86019 106.202 5.93091 106.145 6.02667L99.8316 16.1825C99.7651 16.277 99.7385 16.3939 99.7575 16.508C99.7765 16.622 99.8396 16.724 99.9331 16.7919Z" fill="#FBAD01"/>
<path d="M99.6622 15.4209C99.7666 15.4792 99.8891 15.4958 100.005 15.4676C100.121 15.4393 100.223 15.3682 100.289 15.2686L106.484 5.11274C106.515 5.06389 106.536 5.00937 106.546 4.95225C106.556 4.89513 106.555 4.83656 106.543 4.77993C106.53 4.7233 106.506 4.66973 106.473 4.62228C106.44 4.57482 106.397 4.53442 106.348 4.50342C106.246 4.45899 106.131 4.45338 106.025 4.48766C105.919 4.52195 105.829 4.59375 105.773 4.68958L99.5607 14.8454C99.5077 14.9381 99.4889 15.0464 99.5074 15.1515C99.526 15.2566 99.5808 15.352 99.6622 15.4209Z" fill="#FFB200"/>
<defs>
<linearGradient id="paint0_linear" x1="7042.93" y1="-9346.42" x2="5422.67" y2="-6826.03" gradientUnits="userSpaceOnUse">
<stop stop-color="#FFC000"/>
<stop offset="0.54" stop-color="#EAAC00"/>
<stop offset="1" stop-color="#DC9F00"/>
</linearGradient>
<linearGradient id="paint1_linear" x1="91.0939" y1="54.3358" x2="54.8711" y2="110.682" gradientUnits="userSpaceOnUse">
<stop stop-color="#7A7164"/>
<stop offset="0.34" stop-color="#B3802A"/>
<stop offset="0.51" stop-color="#CB8612"/>
<stop offset="0.68" stop-color="#D2870B"/>
<stop offset="1" stop-color="#DC8900"/>
</linearGradient>
<linearGradient id="paint2_linear" x1="93.5403" y1="32.9009" x2="54.6668" y2="93.3707" gradientUnits="userSpaceOnUse">
<stop stop-color="#70490A"/>
<stop offset="0.09" stop-color="#966710"/>
<stop offset="0.18" stop-color="#BC8415"/>
<stop offset="0.28" stop-color="#D99B19"/>
<stop offset="0.38" stop-color="#EEAB1D"/>
<stop offset="0.48" stop-color="#FBB51E"/>
<stop offset="0.57" stop-color="#FFB81F"/>
<stop offset="0.67" stop-color="#FFC540"/>
<stop offset="0.89" stop-color="#FFE793"/>
<stop offset="1" stop-color="#FFFAC0"/>
</linearGradient>
<linearGradient id="paint3_linear" x1="118.566" y1="67.5749" x2="28.623" y2="56.7702" gradientUnits="userSpaceOnUse">
<stop stop-color="#FFE033"/>
<stop offset="1" stop-color="#CFBD17"/>
</linearGradient>
<linearGradient id="paint4_linear" x1="-54974.3" y1="-14422.3" x2="-64683" y2="-15588.5" gradientUnits="userSpaceOnUse">
<stop stop-color="#FFCF36"/>
<stop offset="0.07" stop-color="#F8B918"/>
<stop offset="0.12" stop-color="#F3AC06"/>
<stop offset="0.16" stop-color="#F2A700"/>
<stop offset="0.77" stop-color="#C28200"/>
</linearGradient>
<linearGradient id="paint5_linear" x1="140.076" y1="77.4453" x2="6.63119" y2="76.4155" gradientUnits="userSpaceOnUse">
<stop stop-color="#824A00"/>
<stop offset="0.06" stop-color="#884E01"/>
<stop offset="0.14" stop-color="#9A5903"/>
<stop offset="0.23" stop-color="#B86B06"/>
<stop offset="0.33" stop-color="#E1840B"/>
<stop offset="0.39" stop-color="#FF960F"/>
<stop offset="0.43" stop-color="#FFB047"/>
<stop offset="0.47" stop-color="#FFCB80"/>
<stop offset="0.5" stop-color="#FFDEA9"/>
<stop offset="0.53" stop-color="#FFEAC3"/>
<stop offset="0.55" stop-color="#FFEECC"/>
<stop offset="0.58" stop-color="#FFEDC9"/>
<stop offset="0.6" stop-color="#FFE9BE"/>
<stop offset="0.63" stop-color="#FFE3AD"/>
<stop offset="0.65" stop-color="#FFDA94"/>
<stop offset="0.67" stop-color="#FFCF75"/>
<stop offset="0.68" stop-color="#FFC963"/>
<stop offset="0.71" stop-color="#FFC457"/>
<stop offset="0.76" stop-color="#FFB638"/>
<stop offset="0.82" stop-color="#FFA106"/>
<stop offset="0.83" stop-color="#FFA718"/>
<stop offset="0.84" stop-color="#FFB63D"/>
<stop offset="0.85" stop-color="#FFC35F"/>
<stop offset="0.86" stop-color="#FFCD7B"/>
<stop offset="0.88" stop-color="#FFD691"/>
<stop offset="0.89" stop-color="#FFDDA3"/>
<stop offset="0.91" stop-color="#FFE2AF"/>
<stop offset="0.94" stop-color="#FFE4B6"/>
<stop offset="1" stop-color="#FFE5B8"/>
</linearGradient>
<linearGradient id="paint6_linear" x1="-33275.8" y1="-6861.65" x2="-36610.5" y2="-7262.24" gradientUnits="userSpaceOnUse">
<stop stop-color="#FFB700"/>
<stop offset="0.42" stop-color="#F0B10D"/>
<stop offset="0.76" stop-color="#F2B20B"/>
<stop offset="0.94" stop-color="#FAB404"/>
<stop offset="1" stop-color="#FFB600"/>
</linearGradient>
<linearGradient id="paint7_linear" x1="-34844.4" y1="-7038.9" x2="-34838.7" y2="-7084.72" gradientUnits="userSpaceOnUse">
<stop stop-color="#FFFABF"/>
<stop offset="0.13" stop-color="#FFF9B9"/>
<stop offset="0.29" stop-color="#FFF8A9"/>
<stop offset="0.47" stop-color="#FFF58F"/>
<stop offset="0.66" stop-color="#FFF16A"/>
<stop offset="0.86" stop-color="#FFED3B"/>
<stop offset="1" stop-color="#FFE918"/>
</linearGradient>
<radialGradient id="paint8_radial" cx="0" cy="0" r="1" gradientUnits="userSpaceOnUse" gradientTransform="translate(11773.1 1450.57) scale(6254.8 216.622)">
<stop stop-color="#73674F"/>
<stop offset="0.24" stop-color="#746A57"/>
<stop offset="0.61" stop-color="#75746C"/>
<stop offset="0.62" stop-color="#75746D"/>
<stop offset="0.68" stop-color="#908F88"/>
<stop offset="0.83" stop-color="#CCCAC4"/>
<stop offset="0.94" stop-color="#F1EFE9"/>
<stop offset="1" stop-color="#FFFDF7"/>
</radialGradient>
<linearGradient id="paint9_linear" x1="7288.01" y1="-11111.8" x2="5745.79" y2="-8459.15" gradientUnits="userSpaceOnUse">
<stop stop-color="#FFC000"/>
<stop offset="0.54" stop-color="#EAAC00"/>
<stop offset="1" stop-color="#DC9F00"/>
</linearGradient>
<linearGradient id="paint10_linear" x1="9176.31" y1="-14115.7" x2="6534.4" y2="-9571.64" gradientUnits="userSpaceOnUse">
<stop stop-color="#B87300"/>
<stop offset="0.07" stop-color="#BE7906"/>
<stop offset="0.25" stop-color="#C8830F"/>
<stop offset="0.48" stop-color="#CB8612"/>
<stop offset="0.65" stop-color="#D2870B"/>
<stop offset="0.98" stop-color="#DC8900"/>
</linearGradient>
<linearGradient id="paint11_linear" x1="10219.1" y1="-16083" x2="7276.37" y2="-11021.5" gradientUnits="userSpaceOnUse">
<stop stop-color="#F9B606"/>
<stop offset="0.02" stop-color="#F9B70A"/>
<stop offset="0.05" stop-color="#F9BA16"/>
<stop offset="0.07" stop-color="#F9C029"/>
<stop offset="0.09" stop-color="#F9C745"/>
<stop offset="0.11" stop-color="#F9D169"/>
<stop offset="0.13" stop-color="#FADD94"/>
<stop offset="0.15" stop-color="#FAEBC7"/>
<stop offset="0.16" stop-color="#FAF2DF"/>
<stop offset="0.57" stop-color="#FFCE4B"/>
<stop offset="0.7" stop-color="#FFDA6C"/>
<stop offset="1" stop-color="#FFFAC0"/>
</linearGradient>
<linearGradient id="paint12_linear" x1="113.695" y1="41.2725" x2="22.1827" y2="34.3435" gradientUnits="userSpaceOnUse">
<stop stop-color="#FFF2AA"/>
<stop offset="1" stop-color="#FFEC44"/>
</linearGradient>
<linearGradient id="paint13_linear" x1="133.054" y1="40.7184" x2="3.32958" y2="30.896" gradientUnits="userSpaceOnUse">
<stop stop-color="#FFC62B"/>
<stop offset="0.14" stop-color="#FFD456"/>
<stop offset="0.3" stop-color="#FFE27F"/>
<stop offset="0.44" stop-color="#FFEC9C"/>
<stop offset="0.56" stop-color="#FFF2AF"/>
<stop offset="0.65" stop-color="#FFF4B5"/>
<stop offset="0.68" stop-color="#FFF0A4"/>
<stop offset="0.78" stop-color="#FFE370"/>
<stop offset="0.87" stop-color="#FFD94A"/>
<stop offset="0.94" stop-color="#FFD333"/>
<stop offset="0.98" stop-color="#FFD12B"/>
</linearGradient>
<linearGradient id="paint14_linear" x1="10740.8" y1="-14626.7" x2="8187.63" y2="-15677.9" gradientUnits="userSpaceOnUse">
<stop stop-color="#C97303"/>
<stop offset="0.01" stop-color="#DD9020"/>
<stop offset="0.03" stop-color="#ECA737"/>
<stop offset="0.04" stop-color="#F7B747"/>
<stop offset="0.06" stop-color="#FDC051"/>
<stop offset="0.08" stop-color="#FFC354"/>
<stop offset="0.09" stop-color="#F4AC3F"/>
<stop offset="0.12" stop-color="#E89429"/>
<stop offset="0.14" stop-color="#DF8217"/>
<stop offset="0.18" stop-color="#D9750B"/>
<stop offset="0.22" stop-color="#D56D04"/>
<stop offset="0.3" stop-color="#D46B02"/>
<stop offset="0.36" stop-color="#E09038"/>
<stop offset="0.42" stop-color="#EEB671"/>
<stop offset="0.48" stop-color="#F7D29A"/>
<stop offset="0.52" stop-color="#FDE3B4"/>
<stop offset="0.55" stop-color="#FFE9BD"/>
<stop offset="0.58" stop-color="#FFE8BA"/>
<stop offset="0.61" stop-color="#FFE4AF"/>
<stop offset="0.63" stop-color="#FFDE9E"/>
<stop offset="0.66" stop-color="#FFD585"/>
<stop offset="0.68" stop-color="#FFC963"/>
<stop offset="0.72" stop-color="#F0AE3C"/>
<stop offset="0.77" stop-color="#E3981B"/>
<stop offset="0.8" stop-color="#DC8A07"/>
<stop offset="0.83" stop-color="#DF9115"/>
<stop offset="0.84" stop-color="#E7A336"/>
<stop offset="0.86" stop-color="#EFB352"/>
<stop offset="0.87" stop-color="#F5C068"/>
<stop offset="0.89" stop-color="#F9CA7A"/>
<stop offset="0.91" stop-color="#FDD186"/>
<stop offset="0.93" stop-color="#FED58D"/>
<stop offset="1" stop-color="#FFD68F"/>
</linearGradient>
<linearGradient id="paint15_linear" x1="-34292.8" y1="-5338.01" x2="-37729.7" y2="-5598.23" gradientUnits="userSpaceOnUse">
<stop stop-color="#FFB700"/>
<stop offset="0.42" stop-color="#F0B10D"/>
<stop offset="0.76" stop-color="#F2B20B"/>
<stop offset="0.94" stop-color="#FAB404"/>
<stop offset="1" stop-color="#FFB600"/>
</linearGradient>
<linearGradient id="paint16_linear" x1="-35967.8" y1="-5456.33" x2="-35964.3" y2="-5499.99" gradientUnits="userSpaceOnUse">
<stop stop-color="#FFFABF"/>
<stop offset="0.13" stop-color="#FFF9B9"/>
<stop offset="0.29" stop-color="#FFF8A9"/>
<stop offset="0.47" stop-color="#FFF58F"/>
<stop offset="0.66" stop-color="#FFF16A"/>
<stop offset="0.86" stop-color="#FFED3B"/>
<stop offset="1" stop-color="#FFE918"/>
</linearGradient>
<linearGradient id="paint17_linear" x1="12636.1" y1="-1413.13" x2="10253" y2="-274.529" gradientUnits="userSpaceOnUse">
<stop stop-color="#FFC000"/>
<stop offset="0.54" stop-color="#EAAC00"/>
<stop offset="1" stop-color="#DC9F00"/>
</linearGradient>
<linearGradient id="paint18_linear" x1="16192.6" y1="-1300.59" x2="12138.1" y2="636.544" gradientUnits="userSpaceOnUse">
<stop stop-color="#B87300"/>
<stop offset="0.07" stop-color="#BE7906"/>
<stop offset="0.25" stop-color="#C8830F"/>
<stop offset="0.48" stop-color="#CB8612"/>
<stop offset="0.65" stop-color="#D2870B"/>
<stop offset="0.98" stop-color="#DC8900"/>
</linearGradient>
<linearGradient id="paint19_linear" x1="17947.2" y1="-2352.13" x2="13401.1" y2="-180.116" gradientUnits="userSpaceOnUse">
<stop stop-color="#F9B606"/>
<stop offset="0.02" stop-color="#F9B70A"/>
<stop offset="0.05" stop-color="#F9BA16"/>
<stop offset="0.07" stop-color="#F9C029"/>
<stop offset="0.09" stop-color="#F9C745"/>
<stop offset="0.11" stop-color="#F9D169"/>
<stop offset="0.13" stop-color="#FADD94"/>
<stop offset="0.15" stop-color="#FAEBC7"/>
<stop offset="0.16" stop-color="#FAF2DF"/>
<stop offset="0.57" stop-color="#FFCE4B"/>
<stop offset="0.7" stop-color="#FFDA6C"/>
<stop offset="1" stop-color="#FFFAC0"/>
</linearGradient>
<linearGradient id="paint20_linear" x1="-9810.36" y1="-36378.5" x2="-13153.7" y2="-39036" gradientUnits="userSpaceOnUse">
<stop stop-color="#FFF2AA"/>
<stop offset="1" stop-color="#FFEC44"/>
</linearGradient>
<linearGradient id="paint21_linear" x1="215.713" y1="82.0151" x2="112.998" y2="0.369164" gradientUnits="userSpaceOnUse">
<stop stop-color="#FFDF2B"/>
<stop offset="0.14" stop-color="#FFE656"/>
<stop offset="0.3" stop-color="#FFEC7F"/>
<stop offset="0.44" stop-color="#FFF09C"/>
<stop offset="0.56" stop-color="#FFF3AF"/>
<stop offset="0.65" stop-color="#FFF4B5"/>
<stop offset="0.68" stop-color="#FFF0A4"/>
<stop offset="0.78" stop-color="#FFE370"/>
<stop offset="0.87" stop-color="#FFD94A"/>
<stop offset="0.94" stop-color="#FFD333"/>
<stop offset="0.98" stop-color="#FFD12B"/>
</linearGradient>
<linearGradient id="paint22_linear" x1="214.476" y1="87.7247" x2="98.7631" y2="14.9135" gradientUnits="userSpaceOnUse">
<stop stop-color="#D1892D"/>
<stop offset="0.01" stop-color="#DCA55E"/>
<stop offset="0.02" stop-color="#EDD1AE"/>
<stop offset="0.03" stop-color="#F4E2CB"/>
<stop offset="0.04" stop-color="#FCF8F2"/>
<stop offset="0.05" stop-color="#FEFDFC"/>
<stop offset="0.06" stop-color="white"/>
<stop offset="0.14" stop-color="#FFCF9D"/>
<stop offset="0.19" stop-color="#FFAF5A"/>
<stop offset="0.22" stop-color="#FDA03E"/>
<stop offset="0.27" stop-color="#E7831D"/>
<stop offset="0.31" stop-color="#D97109"/>
<stop offset="0.33" stop-color="#D46B02"/>
<stop offset="0.34" stop-color="#D7730C"/>
<stop offset="0.37" stop-color="#E89F45"/>
<stop offset="0.4" stop-color="#F5BF6E"/>
<stop offset="0.42" stop-color="#FCD388"/>
<stop offset="0.43" stop-color="#FFD990"/>
<stop offset="0.47" stop-color="#F5C369"/>
<stop offset="0.51" stop-color="#ECB049"/>
<stop offset="0.56" stop-color="#E5A02E"/>
<stop offset="0.6" stop-color="#E0941A"/>
<stop offset="0.66" stop-color="#DC8C0B"/>
<stop offset="0.72" stop-color="#DA8703"/>
<stop offset="0.83" stop-color="#DF9115"/>
<stop offset="0.84" stop-color="#E7A336"/>
<stop offset="0.86" stop-color="#EFB352"/>
<stop offset="0.87" stop-color="#F5C068"/>
<stop offset="0.89" stop-color="#F9CA7A"/>
<stop offset="0.91" stop-color="#FDD186"/>
<stop offset="0.93" stop-color="#FED58D"/>
<stop offset="1" stop-color="#FFD68F"/>
</linearGradient>
<linearGradient id="paint23_linear" x1="-8090.92" y1="-30780.2" x2="-10409.8" y2="-32623.4" gradientUnits="userSpaceOnUse">
<stop stop-color="#FFB700"/>
<stop offset="0.42" stop-color="#F0B10D"/>
<stop offset="0.76" stop-color="#F2B20B"/>
<stop offset="0.94" stop-color="#FAB404"/>
<stop offset="1" stop-color="#FFB600"/>
</linearGradient>
<linearGradient id="paint24_linear" x1="-9513.27" y1="-31413.2" x2="-9319.11" y2="-31640.7" gradientUnits="userSpaceOnUse">
<stop stop-color="#FFFABF"/>
<stop offset="0.13" stop-color="#FFF9B9"/>
<stop offset="0.29" stop-color="#FFF8A9"/>
<stop offset="0.47" stop-color="#FFF58F"/>
<stop offset="0.66" stop-color="#FFF16A"/>
<stop offset="0.86" stop-color="#FFED3B"/>
<stop offset="1" stop-color="#FFE918"/>
</linearGradient>
</defs>
</svg>
