<svg width="1263" height="336" viewBox="0 0 1263 336" fill="none" xmlns="http://www.w3.org/2000/svg">
<path d="M7.536 3.864H1.936L0.88 9.752L2.048 9.832C2.56 9.096 3.296 8.728 4.224 8.728C5.696 8.728 6.704 9.832 6.704 11.4C6.704 12.92 5.648 14.072 4.24 14.072C2.976 14.072 2.048 13.208 1.936 11.944H0.56C0.624 13.928 2.064 15.224 4.224 15.224C6.576 15.224 8.144 13.544 8.144 11.256C8.144 9.048 6.688 7.544 4.56 7.544C3.632 7.544 2.896 7.768 2.272 8.44L2.944 5.064H7.536V3.864ZM13.3226 3.656C9.81863 3.656 9.54663 6.872 9.54663 9.576C9.54663 12.28 9.94662 15.224 13.3866 15.224C16.6346 15.224 17.1146 12.28 17.1146 9.608C17.1146 6.904 16.8586 3.656 13.3226 3.656ZM13.3226 4.872C15.7066 4.872 15.6586 7.832 15.6586 9.512C15.6586 11.144 15.6746 14.024 13.3546 14.024C11.0346 14.024 10.9866 11.256 10.9866 9.576C10.9866 7.848 10.9386 4.872 13.3226 4.872ZM29.4133 3.304H28.3573L21.9413 15.544H23.0293L29.4133 3.304ZM21.9093 3.624C20.2133 3.624 19.2693 4.776 19.2693 6.808C19.2693 8.936 20.1493 10.04 21.8453 10.04C23.5253 10.04 24.4213 8.856 24.4213 6.68C24.4213 4.696 23.5413 3.624 21.9093 3.624ZM21.8453 4.552C22.7733 4.552 23.2213 5.272 23.2213 6.744C23.2213 7.688 23.0773 9.128 21.8453 9.128C20.9333 9.128 20.4693 8.392 20.4693 6.888C20.4693 5.336 20.9333 4.552 21.8453 4.552ZM29.8773 8.824C28.1813 8.824 27.2373 9.976 27.2373 12.008C27.2373 14.136 28.1173 15.24 29.8133 15.24C31.4933 15.24 32.3893 14.056 32.3893 11.88C32.3893 9.896 31.5093 8.824 29.8773 8.824ZM29.8133 9.752C30.7413 9.752 31.1893 10.472 31.1893 11.944C31.1893 12.888 31.0453 14.328 29.8133 14.328C28.9013 14.328 28.4373 13.592 28.4373 12.088C28.4373 10.536 28.9013 9.752 29.8133 9.752Z" fill="#CEA055"/>
<path d="M7.536 318.864H1.936L0.88 324.752L2.048 324.832C2.56 324.096 3.296 323.728 4.224 323.728C5.696 323.728 6.704 324.832 6.704 326.4C6.704 327.92 5.648 329.072 4.24 329.072C2.976 329.072 2.048 328.208 1.936 326.944H0.56C0.624 328.928 2.064 330.224 4.224 330.224C6.576 330.224 8.144 328.544 8.144 326.256C8.144 324.048 6.688 322.544 4.56 322.544C3.632 322.544 2.896 322.768 2.272 323.44L2.944 320.064H7.536V318.864ZM13.3226 318.656C9.81863 318.656 9.54663 321.872 9.54663 324.576C9.54663 327.28 9.94662 330.224 13.3866 330.224C16.6346 330.224 17.1146 327.28 17.1146 324.608C17.1146 321.904 16.8586 318.656 13.3226 318.656ZM13.3226 319.872C15.7066 319.872 15.6586 322.832 15.6586 324.512C15.6586 326.144 15.6746 329.024 13.3546 329.024C11.0346 329.024 10.9866 326.256 10.9866 324.576C10.9866 322.848 10.9386 319.872 13.3226 319.872ZM22.2133 318.656C18.7093 318.656 18.4373 321.872 18.4373 324.576C18.4373 327.28 18.8372 330.224 22.2773 330.224C25.5253 330.224 26.0052 327.28 26.0052 324.608C26.0052 321.904 25.7493 318.656 22.2133 318.656ZM22.2133 319.872C24.5973 319.872 24.5493 322.832 24.5493 324.512C24.5493 326.144 24.5653 329.024 22.2453 329.024C19.9253 329.024 19.8773 326.256 19.8773 324.576C19.8773 322.848 19.8293 319.872 22.2133 319.872ZM31.4399 317.392H30.6879V318.496C28.8639 318.672 27.3919 319.648 27.3919 321.648C27.3919 323.552 28.7679 324.352 30.6879 324.72V329.12C29.2799 328.992 28.5119 328.24 28.5119 326.8C28.5119 326.752 28.5119 326.688 28.5279 326.592H27.1679V326.752C27.1679 329.024 28.6079 330.16 30.6879 330.256V331.584H31.4399V330.256C33.6799 330.112 34.9759 328.864 34.9759 326.912C34.9759 324.608 33.2959 324.112 31.4399 323.584V319.616C32.7199 319.712 33.3599 320.336 33.3599 321.472V321.568H34.7039C34.6719 319.504 33.4719 318.528 31.4399 318.496V317.392ZM30.6879 323.44C29.6479 323.2 28.7199 322.752 28.7199 321.536C28.7199 320.464 29.4719 319.76 30.6879 319.648V323.44ZM31.4399 324.896C32.5599 325.136 33.6159 325.632 33.6159 326.944C33.6159 328.208 32.7199 329.104 31.4399 329.136V324.896Z" fill="#CEA055"/>
<path d="M140.536 318.864H134.936L133.88 324.752L135.048 324.832C135.56 324.096 136.296 323.728 137.224 323.728C138.696 323.728 139.704 324.832 139.704 326.4C139.704 327.92 138.648 329.072 137.24 329.072C135.976 329.072 135.048 328.208 134.936 326.944H133.56C133.624 328.928 135.064 330.224 137.224 330.224C139.576 330.224 141.144 328.544 141.144 326.256C141.144 324.048 139.688 322.544 137.56 322.544C136.632 322.544 135.896 322.768 135.272 323.44L135.944 320.064H140.536V318.864ZM146.323 318.656C142.819 318.656 142.547 321.872 142.547 324.576C142.547 327.28 142.947 330.224 146.387 330.224C149.635 330.224 150.115 327.28 150.115 324.608C150.115 321.904 149.859 318.656 146.323 318.656ZM146.323 319.872C148.707 319.872 148.659 322.832 148.659 324.512C148.659 326.144 148.675 329.024 146.355 329.024C144.035 329.024 143.987 326.256 143.987 324.576C143.987 322.848 143.939 319.872 146.323 319.872ZM155.549 317.392H154.797V318.496C152.973 318.672 151.501 319.648 151.501 321.648C151.501 323.552 152.877 324.352 154.797 324.72V329.12C153.389 328.992 152.621 328.24 152.621 326.8C152.621 326.752 152.621 326.688 152.637 326.592H151.277V326.752C151.277 329.024 152.717 330.16 154.797 330.256V331.584H155.549V330.256C157.789 330.112 159.085 328.864 159.085 326.912C159.085 324.608 157.405 324.112 155.549 323.584V319.616C156.829 319.712 157.469 320.336 157.469 321.472V321.568H158.813C158.781 319.504 157.581 318.528 155.549 318.496V317.392ZM154.797 323.44C153.757 323.2 152.829 322.752 152.829 321.536C152.829 320.464 153.581 319.76 154.797 319.648V323.44ZM155.549 324.896C156.669 325.136 157.725 325.632 157.725 326.944C157.725 328.208 156.829 329.104 155.549 329.136V324.896Z" fill="#CEA055"/>
<path d="M273.536 318.864H267.936L266.88 324.752L268.048 324.832C268.56 324.096 269.296 323.728 270.224 323.728C271.696 323.728 272.704 324.832 272.704 326.4C272.704 327.92 271.648 329.072 270.24 329.072C268.976 329.072 268.048 328.208 267.936 326.944H266.56C266.624 328.928 268.064 330.224 270.224 330.224C272.576 330.224 274.144 328.544 274.144 326.256C274.144 324.048 272.688 322.544 270.56 322.544C269.632 322.544 268.896 322.768 268.272 323.44L268.944 320.064H273.536V318.864ZM279.323 318.656C275.819 318.656 275.547 321.872 275.547 324.576C275.547 327.28 275.947 330.224 279.387 330.224C282.635 330.224 283.115 327.28 283.115 324.608C283.115 321.904 282.859 318.656 279.323 318.656ZM279.323 319.872C281.707 319.872 281.659 322.832 281.659 324.512C281.659 326.144 281.675 329.024 279.355 329.024C277.035 329.024 276.987 326.256 276.987 324.576C276.987 322.848 276.939 319.872 279.323 319.872ZM288.549 317.392H287.797V318.496C285.973 318.672 284.501 319.648 284.501 321.648C284.501 323.552 285.877 324.352 287.797 324.72V329.12C286.389 328.992 285.621 328.24 285.621 326.8C285.621 326.752 285.621 326.688 285.637 326.592H284.277V326.752C284.277 329.024 285.717 330.16 287.797 330.256V331.584H288.549V330.256C290.789 330.112 292.085 328.864 292.085 326.912C292.085 324.608 290.405 324.112 288.549 323.584V319.616C289.829 319.712 290.469 320.336 290.469 321.472V321.568H291.813C291.781 319.504 290.581 318.528 288.549 318.496V317.392ZM287.797 323.44C286.757 323.2 285.829 322.752 285.829 321.536C285.829 320.464 286.581 319.76 287.797 319.648V323.44ZM288.549 324.896C289.669 325.136 290.725 325.632 290.725 326.944C290.725 328.208 289.829 329.104 288.549 329.136V324.896Z" fill="#CEA055"/>
<path d="M406.536 318.864H400.936L399.88 324.752L401.048 324.832C401.56 324.096 402.296 323.728 403.224 323.728C404.696 323.728 405.704 324.832 405.704 326.4C405.704 327.92 404.648 329.072 403.24 329.072C401.976 329.072 401.048 328.208 400.936 326.944H399.56C399.624 328.928 401.064 330.224 403.224 330.224C405.576 330.224 407.144 328.544 407.144 326.256C407.144 324.048 405.688 322.544 403.56 322.544C402.632 322.544 401.896 322.768 401.272 323.44L401.944 320.064H406.536V318.864ZM412.323 318.656C408.819 318.656 408.547 321.872 408.547 324.576C408.547 327.28 408.947 330.224 412.387 330.224C415.635 330.224 416.115 327.28 416.115 324.608C416.115 321.904 415.859 318.656 412.323 318.656ZM412.323 319.872C414.707 319.872 414.659 322.832 414.659 324.512C414.659 326.144 414.675 329.024 412.355 329.024C410.035 329.024 409.987 326.256 409.987 324.576C409.987 322.848 409.939 319.872 412.323 319.872ZM421.549 317.392H420.797V318.496C418.973 318.672 417.501 319.648 417.501 321.648C417.501 323.552 418.877 324.352 420.797 324.72V329.12C419.389 328.992 418.621 328.24 418.621 326.8C418.621 326.752 418.621 326.688 418.637 326.592H417.277V326.752C417.277 329.024 418.717 330.16 420.797 330.256V331.584H421.549V330.256C423.789 330.112 425.085 328.864 425.085 326.912C425.085 324.608 423.405 324.112 421.549 323.584V319.616C422.829 319.712 423.469 320.336 423.469 321.472V321.568H424.813C424.781 319.504 423.581 318.528 421.549 318.496V317.392ZM420.797 323.44C419.757 323.2 418.829 322.752 418.829 321.536C418.829 320.464 419.581 319.76 420.797 319.648V323.44ZM421.549 324.896C422.669 325.136 423.725 325.632 423.725 326.944C423.725 328.208 422.829 329.104 421.549 329.136V324.896Z" fill="#CEA055"/>
<path d="M539.536 318.864H533.936L532.88 324.752L534.048 324.832C534.56 324.096 535.296 323.728 536.224 323.728C537.696 323.728 538.704 324.832 538.704 326.4C538.704 327.92 537.648 329.072 536.24 329.072C534.976 329.072 534.048 328.208 533.936 326.944H532.56C532.624 328.928 534.064 330.224 536.224 330.224C538.576 330.224 540.144 328.544 540.144 326.256C540.144 324.048 538.688 322.544 536.56 322.544C535.632 322.544 534.896 322.768 534.272 323.44L534.944 320.064H539.536V318.864ZM545.323 318.656C541.819 318.656 541.547 321.872 541.547 324.576C541.547 327.28 541.947 330.224 545.387 330.224C548.635 330.224 549.115 327.28 549.115 324.608C549.115 321.904 548.859 318.656 545.323 318.656ZM545.323 319.872C547.707 319.872 547.659 322.832 547.659 324.512C547.659 326.144 547.675 329.024 545.355 329.024C543.035 329.024 542.987 326.256 542.987 324.576C542.987 322.848 542.939 319.872 545.323 319.872ZM554.549 317.392H553.797V318.496C551.973 318.672 550.501 319.648 550.501 321.648C550.501 323.552 551.877 324.352 553.797 324.72V329.12C552.389 328.992 551.621 328.24 551.621 326.8C551.621 326.752 551.621 326.688 551.637 326.592H550.277V326.752C550.277 329.024 551.717 330.16 553.797 330.256V331.584H554.549V330.256C556.789 330.112 558.085 328.864 558.085 326.912C558.085 324.608 556.405 324.112 554.549 323.584V319.616C555.829 319.712 556.469 320.336 556.469 321.472V321.568H557.813C557.781 319.504 556.581 318.528 554.549 318.496V317.392ZM553.797 323.44C552.757 323.2 551.829 322.752 551.829 321.536C551.829 320.464 552.581 319.76 553.797 319.648V323.44ZM554.549 324.896C555.669 325.136 556.725 325.632 556.725 326.944C556.725 328.208 555.829 329.104 554.549 329.136V324.896Z" fill="#CEA055"/>
<path d="M672.536 318.864H666.936L665.88 324.752L667.048 324.832C667.56 324.096 668.296 323.728 669.224 323.728C670.696 323.728 671.704 324.832 671.704 326.4C671.704 327.92 670.648 329.072 669.24 329.072C667.976 329.072 667.048 328.208 666.936 326.944H665.56C665.624 328.928 667.064 330.224 669.224 330.224C671.576 330.224 673.144 328.544 673.144 326.256C673.144 324.048 671.688 322.544 669.56 322.544C668.632 322.544 667.896 322.768 667.272 323.44L667.944 320.064H672.536V318.864ZM678.323 318.656C674.819 318.656 674.547 321.872 674.547 324.576C674.547 327.28 674.947 330.224 678.387 330.224C681.635 330.224 682.115 327.28 682.115 324.608C682.115 321.904 681.859 318.656 678.323 318.656ZM678.323 319.872C680.707 319.872 680.659 322.832 680.659 324.512C680.659 326.144 680.675 329.024 678.355 329.024C676.035 329.024 675.987 326.256 675.987 324.576C675.987 322.848 675.939 319.872 678.323 319.872ZM687.549 317.392H686.797V318.496C684.973 318.672 683.501 319.648 683.501 321.648C683.501 323.552 684.877 324.352 686.797 324.72V329.12C685.389 328.992 684.621 328.24 684.621 326.8C684.621 326.752 684.621 326.688 684.637 326.592H683.277V326.752C683.277 329.024 684.717 330.16 686.797 330.256V331.584H687.549V330.256C689.789 330.112 691.085 328.864 691.085 326.912C691.085 324.608 689.405 324.112 687.549 323.584V319.616C688.829 319.712 689.469 320.336 689.469 321.472V321.568H690.813C690.781 319.504 689.581 318.528 687.549 318.496V317.392ZM686.797 323.44C685.757 323.2 684.829 322.752 684.829 321.536C684.829 320.464 685.581 319.76 686.797 319.648V323.44ZM687.549 324.896C688.669 325.136 689.725 325.632 689.725 326.944C689.725 328.208 688.829 329.104 687.549 329.136V324.896Z" fill="#CEA055"/>
<path d="M805.536 318.864H799.936L798.88 324.752L800.048 324.832C800.56 324.096 801.296 323.728 802.224 323.728C803.696 323.728 804.704 324.832 804.704 326.4C804.704 327.92 803.648 329.072 802.24 329.072C800.976 329.072 800.048 328.208 799.936 326.944H798.56C798.624 328.928 800.064 330.224 802.224 330.224C804.576 330.224 806.144 328.544 806.144 326.256C806.144 324.048 804.688 322.544 802.56 322.544C801.632 322.544 800.896 322.768 800.272 323.44L800.944 320.064H805.536V318.864ZM811.323 318.656C807.819 318.656 807.547 321.872 807.547 324.576C807.547 327.28 807.947 330.224 811.387 330.224C814.635 330.224 815.115 327.28 815.115 324.608C815.115 321.904 814.859 318.656 811.323 318.656ZM811.323 319.872C813.707 319.872 813.659 322.832 813.659 324.512C813.659 326.144 813.675 329.024 811.355 329.024C809.035 329.024 808.987 326.256 808.987 324.576C808.987 322.848 808.939 319.872 811.323 319.872ZM820.549 317.392H819.797V318.496C817.973 318.672 816.501 319.648 816.501 321.648C816.501 323.552 817.877 324.352 819.797 324.72V329.12C818.389 328.992 817.621 328.24 817.621 326.8C817.621 326.752 817.621 326.688 817.637 326.592H816.277V326.752C816.277 329.024 817.717 330.16 819.797 330.256V331.584H820.549V330.256C822.789 330.112 824.085 328.864 824.085 326.912C824.085 324.608 822.405 324.112 820.549 323.584V319.616C821.829 319.712 822.469 320.336 822.469 321.472V321.568H823.813C823.781 319.504 822.581 318.528 820.549 318.496V317.392ZM819.797 323.44C818.757 323.2 817.829 322.752 817.829 321.536C817.829 320.464 818.581 319.76 819.797 319.648V323.44ZM820.549 324.896C821.669 325.136 822.725 325.632 822.725 326.944C822.725 328.208 821.829 329.104 820.549 329.136V324.896Z" fill="#CEA055"/>
<path d="M938.536 318.864H932.936L931.88 324.752L933.048 324.832C933.56 324.096 934.296 323.728 935.224 323.728C936.696 323.728 937.704 324.832 937.704 326.4C937.704 327.92 936.648 329.072 935.24 329.072C933.976 329.072 933.048 328.208 932.936 326.944H931.56C931.624 328.928 933.064 330.224 935.224 330.224C937.576 330.224 939.144 328.544 939.144 326.256C939.144 324.048 937.688 322.544 935.56 322.544C934.632 322.544 933.896 322.768 933.272 323.44L933.944 320.064H938.536V318.864ZM944.323 318.656C940.819 318.656 940.547 321.872 940.547 324.576C940.547 327.28 940.947 330.224 944.387 330.224C947.635 330.224 948.115 327.28 948.115 324.608C948.115 321.904 947.859 318.656 944.323 318.656ZM944.323 319.872C946.707 319.872 946.659 322.832 946.659 324.512C946.659 326.144 946.675 329.024 944.355 329.024C942.035 329.024 941.987 326.256 941.987 324.576C941.987 322.848 941.939 319.872 944.323 319.872ZM953.549 317.392H952.797V318.496C950.973 318.672 949.501 319.648 949.501 321.648C949.501 323.552 950.877 324.352 952.797 324.72V329.12C951.389 328.992 950.621 328.24 950.621 326.8C950.621 326.752 950.621 326.688 950.637 326.592H949.277V326.752C949.277 329.024 950.717 330.16 952.797 330.256V331.584H953.549V330.256C955.789 330.112 957.085 328.864 957.085 326.912C957.085 324.608 955.405 324.112 953.549 323.584V319.616C954.829 319.712 955.469 320.336 955.469 321.472V321.568H956.813C956.781 319.504 955.581 318.528 953.549 318.496V317.392ZM952.797 323.44C951.757 323.2 950.829 322.752 950.829 321.536C950.829 320.464 951.581 319.76 952.797 319.648V323.44ZM953.549 324.896C954.669 325.136 955.725 325.632 955.725 326.944C955.725 328.208 954.829 329.104 953.549 329.136V324.896Z" fill="#CEA055"/>
<path d="M1071.54 318.864H1065.94L1064.88 324.752L1066.05 324.832C1066.56 324.096 1067.3 323.728 1068.22 323.728C1069.7 323.728 1070.7 324.832 1070.7 326.4C1070.7 327.92 1069.65 329.072 1068.24 329.072C1066.98 329.072 1066.05 328.208 1065.94 326.944H1064.56C1064.62 328.928 1066.06 330.224 1068.22 330.224C1070.58 330.224 1072.14 328.544 1072.14 326.256C1072.14 324.048 1070.69 322.544 1068.56 322.544C1067.63 322.544 1066.9 322.768 1066.27 323.44L1066.94 320.064H1071.54V318.864ZM1077.32 318.656C1073.82 318.656 1073.55 321.872 1073.55 324.576C1073.55 327.28 1073.95 330.224 1077.39 330.224C1080.63 330.224 1081.11 327.28 1081.11 324.608C1081.11 321.904 1080.86 318.656 1077.32 318.656ZM1077.32 319.872C1079.71 319.872 1079.66 322.832 1079.66 324.512C1079.66 326.144 1079.67 329.024 1077.35 329.024C1075.03 329.024 1074.99 326.256 1074.99 324.576C1074.99 322.848 1074.94 319.872 1077.32 319.872ZM1086.55 317.392H1085.8V318.496C1083.97 318.672 1082.5 319.648 1082.5 321.648C1082.5 323.552 1083.88 324.352 1085.8 324.72V329.12C1084.39 328.992 1083.62 328.24 1083.62 326.8C1083.62 326.752 1083.62 326.688 1083.64 326.592H1082.28V326.752C1082.28 329.024 1083.72 330.16 1085.8 330.256V331.584H1086.55V330.256C1088.79 330.112 1090.09 328.864 1090.09 326.912C1090.09 324.608 1088.41 324.112 1086.55 323.584V319.616C1087.83 319.712 1088.47 320.336 1088.47 321.472V321.568H1089.81C1089.78 319.504 1088.58 318.528 1086.55 318.496V317.392ZM1085.8 323.44C1084.76 323.2 1083.83 322.752 1083.83 321.536C1083.83 320.464 1084.58 319.76 1085.8 319.648V323.44ZM1086.55 324.896C1087.67 325.136 1088.73 325.632 1088.73 326.944C1088.73 328.208 1087.83 329.104 1086.55 329.136V324.896Z" fill="#CEA055"/>
<path d="M1204.54 318.864H1198.94L1197.88 324.752L1199.05 324.832C1199.56 324.096 1200.3 323.728 1201.22 323.728C1202.7 323.728 1203.7 324.832 1203.7 326.4C1203.7 327.92 1202.65 329.072 1201.24 329.072C1199.98 329.072 1199.05 328.208 1198.94 326.944H1197.56C1197.62 328.928 1199.06 330.224 1201.22 330.224C1203.58 330.224 1205.14 328.544 1205.14 326.256C1205.14 324.048 1203.69 322.544 1201.56 322.544C1200.63 322.544 1199.9 322.768 1199.27 323.44L1199.94 320.064H1204.54V318.864ZM1210.32 318.656C1206.82 318.656 1206.55 321.872 1206.55 324.576C1206.55 327.28 1206.95 330.224 1210.39 330.224C1213.63 330.224 1214.11 327.28 1214.11 324.608C1214.11 321.904 1213.86 318.656 1210.32 318.656ZM1210.32 319.872C1212.71 319.872 1212.66 322.832 1212.66 324.512C1212.66 326.144 1212.67 329.024 1210.35 329.024C1208.03 329.024 1207.99 326.256 1207.99 324.576C1207.99 322.848 1207.94 319.872 1210.32 319.872ZM1219.55 317.392H1218.8V318.496C1216.97 318.672 1215.5 319.648 1215.5 321.648C1215.5 323.552 1216.88 324.352 1218.8 324.72V329.12C1217.39 328.992 1216.62 328.24 1216.62 326.8C1216.62 326.752 1216.62 326.688 1216.64 326.592H1215.28V326.752C1215.28 329.024 1216.72 330.16 1218.8 330.256V331.584H1219.55V330.256C1221.79 330.112 1223.09 328.864 1223.09 326.912C1223.09 324.608 1221.41 324.112 1219.55 323.584V319.616C1220.83 319.712 1221.47 320.336 1221.47 321.472V321.568H1222.81C1222.78 319.504 1221.58 318.528 1219.55 318.496V317.392ZM1218.8 323.44C1217.76 323.2 1216.83 322.752 1216.83 321.536C1216.83 320.464 1217.58 319.76 1218.8 319.648V323.44ZM1219.55 324.896C1220.67 325.136 1221.73 325.632 1221.73 326.944C1221.73 328.208 1220.83 329.104 1219.55 329.136V324.896Z" fill="#CEA055"/>
<path d="M0 35C0 32.7909 1.79086 31 4 31H62C64.2091 31 66 32.7909 66 35V305H0V35Z" fill="url(#paint0_linear)"/>
<path d="M140.536 137.864H134.936L133.88 143.752L135.048 143.832C135.56 143.096 136.296 142.728 137.224 142.728C138.696 142.728 139.704 143.832 139.704 145.4C139.704 146.92 138.648 148.072 137.24 148.072C135.976 148.072 135.048 147.208 134.936 145.944H133.56C133.624 147.928 135.064 149.224 137.224 149.224C139.576 149.224 141.144 147.544 141.144 145.256C141.144 143.048 139.688 141.544 137.56 141.544C136.632 141.544 135.896 141.768 135.272 142.44L135.944 139.064H140.536V137.864ZM153.523 137.304H152.467L146.051 149.544H147.139L153.523 137.304ZM146.019 137.624C144.323 137.624 143.379 138.776 143.379 140.808C143.379 142.936 144.259 144.04 145.955 144.04C147.635 144.04 148.531 142.856 148.531 140.68C148.531 138.696 147.651 137.624 146.019 137.624ZM145.955 138.552C146.883 138.552 147.331 139.272 147.331 140.744C147.331 141.688 147.187 143.128 145.955 143.128C145.043 143.128 144.579 142.392 144.579 140.888C144.579 139.336 145.043 138.552 145.955 138.552ZM153.987 142.824C152.291 142.824 151.347 143.976 151.347 146.008C151.347 148.136 152.227 149.24 153.923 149.24C155.603 149.24 156.499 148.056 156.499 145.88C156.499 143.896 155.619 142.824 153.987 142.824ZM153.923 143.752C154.851 143.752 155.299 144.472 155.299 145.944C155.299 146.888 155.155 148.328 153.923 148.328C153.011 148.328 152.547 147.592 152.547 146.088C152.547 144.536 153.011 143.752 153.923 143.752Z" fill="#CEA055"/>
<path d="M133 169C133 166.791 134.791 165 137 165H195C197.209 165 199 166.791 199 169V305H133V169Z" fill="url(#paint1_linear)"/>
<path d="M273.536 137.864H267.936L266.88 143.752L268.048 143.832C268.56 143.096 269.296 142.728 270.224 142.728C271.696 142.728 272.704 143.832 272.704 145.4C272.704 146.92 271.648 148.072 270.24 148.072C268.976 148.072 268.048 147.208 267.936 145.944H266.56C266.624 147.928 268.064 149.224 270.224 149.224C272.576 149.224 274.144 147.544 274.144 145.256C274.144 143.048 272.688 141.544 270.56 141.544C269.632 141.544 268.896 141.768 268.272 142.44L268.944 139.064H273.536V137.864ZM286.523 137.304H285.467L279.051 149.544H280.139L286.523 137.304ZM279.019 137.624C277.323 137.624 276.379 138.776 276.379 140.808C276.379 142.936 277.259 144.04 278.955 144.04C280.635 144.04 281.531 142.856 281.531 140.68C281.531 138.696 280.651 137.624 279.019 137.624ZM278.955 138.552C279.883 138.552 280.331 139.272 280.331 140.744C280.331 141.688 280.187 143.128 278.955 143.128C278.043 143.128 277.579 142.392 277.579 140.888C277.579 139.336 278.043 138.552 278.955 138.552ZM286.987 142.824C285.291 142.824 284.347 143.976 284.347 146.008C284.347 148.136 285.227 149.24 286.923 149.24C288.603 149.24 289.499 148.056 289.499 145.88C289.499 143.896 288.619 142.824 286.987 142.824ZM286.923 143.752C287.851 143.752 288.299 144.472 288.299 145.944C288.299 146.888 288.155 148.328 286.923 148.328C286.011 148.328 285.547 147.592 285.547 146.088C285.547 144.536 286.011 143.752 286.923 143.752Z" fill="#CEA055"/>
<path d="M266 169C266 166.791 267.791 165 270 165H328C330.209 165 332 166.791 332 169V305H266V169Z" fill="url(#paint2_linear)"/>
<path d="M805.536 137.864H799.936L798.88 143.752L800.048 143.832C800.56 143.096 801.296 142.728 802.224 142.728C803.696 142.728 804.704 143.832 804.704 145.4C804.704 146.92 803.648 148.072 802.24 148.072C800.976 148.072 800.048 147.208 799.936 145.944H798.56C798.624 147.928 800.064 149.224 802.224 149.224C804.576 149.224 806.144 147.544 806.144 145.256C806.144 143.048 804.688 141.544 802.56 141.544C801.632 141.544 800.896 141.768 800.272 142.44L800.944 139.064H805.536V137.864ZM818.523 137.304H817.467L811.051 149.544H812.139L818.523 137.304ZM811.019 137.624C809.323 137.624 808.379 138.776 808.379 140.808C808.379 142.936 809.259 144.04 810.955 144.04C812.635 144.04 813.531 142.856 813.531 140.68C813.531 138.696 812.651 137.624 811.019 137.624ZM810.955 138.552C811.883 138.552 812.331 139.272 812.331 140.744C812.331 141.688 812.187 143.128 810.955 143.128C810.043 143.128 809.579 142.392 809.579 140.888C809.579 139.336 810.043 138.552 810.955 138.552ZM818.987 142.824C817.291 142.824 816.347 143.976 816.347 146.008C816.347 148.136 817.227 149.24 818.923 149.24C820.603 149.24 821.499 148.056 821.499 145.88C821.499 143.896 820.619 142.824 818.987 142.824ZM818.923 143.752C819.851 143.752 820.299 144.472 820.299 145.944C820.299 146.888 820.155 148.328 818.923 148.328C818.011 148.328 817.547 147.592 817.547 146.088C817.547 144.536 818.011 143.752 818.923 143.752Z" fill="#CEA055"/>
<path d="M798 169C798 166.791 799.791 165 802 165H860C862.209 165 864 166.791 864 169V305H798V169Z" fill="url(#paint3_linear)"/>
<path d="M406.536 137.864H400.936L399.88 143.752L401.048 143.832C401.56 143.096 402.296 142.728 403.224 142.728C404.696 142.728 405.704 143.832 405.704 145.4C405.704 146.92 404.648 148.072 403.24 148.072C401.976 148.072 401.048 147.208 400.936 145.944H399.56C399.624 147.928 401.064 149.224 403.224 149.224C405.576 149.224 407.144 147.544 407.144 145.256C407.144 143.048 405.688 141.544 403.56 141.544C402.632 141.544 401.896 141.768 401.272 142.44L401.944 139.064H406.536V137.864ZM419.523 137.304H418.467L412.051 149.544H413.139L419.523 137.304ZM412.019 137.624C410.323 137.624 409.379 138.776 409.379 140.808C409.379 142.936 410.259 144.04 411.955 144.04C413.635 144.04 414.531 142.856 414.531 140.68C414.531 138.696 413.651 137.624 412.019 137.624ZM411.955 138.552C412.883 138.552 413.331 139.272 413.331 140.744C413.331 141.688 413.187 143.128 411.955 143.128C411.043 143.128 410.579 142.392 410.579 140.888C410.579 139.336 411.043 138.552 411.955 138.552ZM419.987 142.824C418.291 142.824 417.347 143.976 417.347 146.008C417.347 148.136 418.227 149.24 419.923 149.24C421.603 149.24 422.499 148.056 422.499 145.88C422.499 143.896 421.619 142.824 419.987 142.824ZM419.923 143.752C420.851 143.752 421.299 144.472 421.299 145.944C421.299 146.888 421.155 148.328 419.923 148.328C419.011 148.328 418.547 147.592 418.547 146.088C418.547 144.536 419.011 143.752 419.923 143.752Z" fill="#CEA055"/>
<path d="M399 169C399 166.791 400.791 165 403 165H461C463.209 165 465 166.791 465 169V305H399V169Z" fill="url(#paint4_linear)"/>
<path d="M938.536 137.864H932.936L931.88 143.752L933.048 143.832C933.56 143.096 934.296 142.728 935.224 142.728C936.696 142.728 937.704 143.832 937.704 145.4C937.704 146.92 936.648 148.072 935.24 148.072C933.976 148.072 933.048 147.208 932.936 145.944H931.56C931.624 147.928 933.064 149.224 935.224 149.224C937.576 149.224 939.144 147.544 939.144 145.256C939.144 143.048 937.688 141.544 935.56 141.544C934.632 141.544 933.896 141.768 933.272 142.44L933.944 139.064H938.536V137.864ZM951.523 137.304H950.467L944.051 149.544H945.139L951.523 137.304ZM944.019 137.624C942.323 137.624 941.379 138.776 941.379 140.808C941.379 142.936 942.259 144.04 943.955 144.04C945.635 144.04 946.531 142.856 946.531 140.68C946.531 138.696 945.651 137.624 944.019 137.624ZM943.955 138.552C944.883 138.552 945.331 139.272 945.331 140.744C945.331 141.688 945.187 143.128 943.955 143.128C943.043 143.128 942.579 142.392 942.579 140.888C942.579 139.336 943.043 138.552 943.955 138.552ZM951.987 142.824C950.291 142.824 949.347 143.976 949.347 146.008C949.347 148.136 950.227 149.24 951.923 149.24C953.603 149.24 954.499 148.056 954.499 145.88C954.499 143.896 953.619 142.824 951.987 142.824ZM951.923 143.752C952.851 143.752 953.299 144.472 953.299 145.944C953.299 146.888 953.155 148.328 951.923 148.328C951.011 148.328 950.547 147.592 950.547 146.088C950.547 144.536 951.011 143.752 951.923 143.752Z" fill="#CEA055"/>
<path d="M931 169C931 166.791 932.791 165 935 165H993C995.209 165 997 166.791 997 169V305H931V169Z" fill="url(#paint5_linear)"/>
<path d="M539.536 137.864H533.936L532.88 143.752L534.048 143.832C534.56 143.096 535.296 142.728 536.224 142.728C537.696 142.728 538.704 143.832 538.704 145.4C538.704 146.92 537.648 148.072 536.24 148.072C534.976 148.072 534.048 147.208 533.936 145.944H532.56C532.624 147.928 534.064 149.224 536.224 149.224C538.576 149.224 540.144 147.544 540.144 145.256C540.144 143.048 538.688 141.544 536.56 141.544C535.632 141.544 534.896 141.768 534.272 142.44L534.944 139.064H539.536V137.864ZM552.523 137.304H551.467L545.051 149.544H546.139L552.523 137.304ZM545.019 137.624C543.323 137.624 542.379 138.776 542.379 140.808C542.379 142.936 543.259 144.04 544.955 144.04C546.635 144.04 547.531 142.856 547.531 140.68C547.531 138.696 546.651 137.624 545.019 137.624ZM544.955 138.552C545.883 138.552 546.331 139.272 546.331 140.744C546.331 141.688 546.187 143.128 544.955 143.128C544.043 143.128 543.579 142.392 543.579 140.888C543.579 139.336 544.043 138.552 544.955 138.552ZM552.987 142.824C551.291 142.824 550.347 143.976 550.347 146.008C550.347 148.136 551.227 149.24 552.923 149.24C554.603 149.24 555.499 148.056 555.499 145.88C555.499 143.896 554.619 142.824 552.987 142.824ZM552.923 143.752C553.851 143.752 554.299 144.472 554.299 145.944C554.299 146.888 554.155 148.328 552.923 148.328C552.011 148.328 551.547 147.592 551.547 146.088C551.547 144.536 552.011 143.752 552.923 143.752Z" fill="#CEA055"/>
<path d="M532 169C532 166.791 533.791 165 536 165H594C596.209 165 598 166.791 598 169V305H532V169Z" fill="url(#paint6_linear)"/>
<path d="M1071.54 137.864H1065.94L1064.88 143.752L1066.05 143.832C1066.56 143.096 1067.3 142.728 1068.22 142.728C1069.7 142.728 1070.7 143.832 1070.7 145.4C1070.7 146.92 1069.65 148.072 1068.24 148.072C1066.98 148.072 1066.05 147.208 1065.94 145.944H1064.56C1064.62 147.928 1066.06 149.224 1068.22 149.224C1070.58 149.224 1072.14 147.544 1072.14 145.256C1072.14 143.048 1070.69 141.544 1068.56 141.544C1067.63 141.544 1066.9 141.768 1066.27 142.44L1066.94 139.064H1071.54V137.864ZM1084.52 137.304H1083.47L1077.05 149.544H1078.14L1084.52 137.304ZM1077.02 137.624C1075.32 137.624 1074.38 138.776 1074.38 140.808C1074.38 142.936 1075.26 144.04 1076.95 144.04C1078.63 144.04 1079.53 142.856 1079.53 140.68C1079.53 138.696 1078.65 137.624 1077.02 137.624ZM1076.95 138.552C1077.88 138.552 1078.33 139.272 1078.33 140.744C1078.33 141.688 1078.19 143.128 1076.95 143.128C1076.04 143.128 1075.58 142.392 1075.58 140.888C1075.58 139.336 1076.04 138.552 1076.95 138.552ZM1084.99 142.824C1083.29 142.824 1082.35 143.976 1082.35 146.008C1082.35 148.136 1083.23 149.24 1084.92 149.24C1086.6 149.24 1087.5 148.056 1087.5 145.88C1087.5 143.896 1086.62 142.824 1084.99 142.824ZM1084.92 143.752C1085.85 143.752 1086.3 144.472 1086.3 145.944C1086.3 146.888 1086.15 148.328 1084.92 148.328C1084.01 148.328 1083.55 147.592 1083.55 146.088C1083.55 144.536 1084.01 143.752 1084.92 143.752Z" fill="#CEA055"/>
<path d="M1064 169C1064 166.791 1065.79 165 1068 165H1126C1128.21 165 1130 166.791 1130 169V305H1064V169Z" fill="url(#paint7_linear)"/>
<path d="M672.536 137.864H666.936L665.88 143.752L667.048 143.832C667.56 143.096 668.296 142.728 669.224 142.728C670.696 142.728 671.704 143.832 671.704 145.4C671.704 146.92 670.648 148.072 669.24 148.072C667.976 148.072 667.048 147.208 666.936 145.944H665.56C665.624 147.928 667.064 149.224 669.224 149.224C671.576 149.224 673.144 147.544 673.144 145.256C673.144 143.048 671.688 141.544 669.56 141.544C668.632 141.544 667.896 141.768 667.272 142.44L667.944 139.064H672.536V137.864ZM685.523 137.304H684.467L678.051 149.544H679.139L685.523 137.304ZM678.019 137.624C676.323 137.624 675.379 138.776 675.379 140.808C675.379 142.936 676.259 144.04 677.955 144.04C679.635 144.04 680.531 142.856 680.531 140.68C680.531 138.696 679.651 137.624 678.019 137.624ZM677.955 138.552C678.883 138.552 679.331 139.272 679.331 140.744C679.331 141.688 679.187 143.128 677.955 143.128C677.043 143.128 676.579 142.392 676.579 140.888C676.579 139.336 677.043 138.552 677.955 138.552ZM685.987 142.824C684.291 142.824 683.347 143.976 683.347 146.008C683.347 148.136 684.227 149.24 685.923 149.24C687.603 149.24 688.499 148.056 688.499 145.88C688.499 143.896 687.619 142.824 685.987 142.824ZM685.923 143.752C686.851 143.752 687.299 144.472 687.299 145.944C687.299 146.888 687.155 148.328 685.923 148.328C685.011 148.328 684.547 147.592 684.547 146.088C684.547 144.536 685.011 143.752 685.923 143.752Z" fill="#CEA055"/>
<path d="M665 169C665 166.791 666.791 165 669 165H727C729.209 165 731 166.791 731 169V305H665V169Z" fill="url(#paint8_linear)"/>
<path d="M1204.54 137.864H1198.94L1197.88 143.752L1199.05 143.832C1199.56 143.096 1200.3 142.728 1201.22 142.728C1202.7 142.728 1203.7 143.832 1203.7 145.4C1203.7 146.92 1202.65 148.072 1201.24 148.072C1199.98 148.072 1199.05 147.208 1198.94 145.944H1197.56C1197.62 147.928 1199.06 149.224 1201.22 149.224C1203.58 149.224 1205.14 147.544 1205.14 145.256C1205.14 143.048 1203.69 141.544 1201.56 141.544C1200.63 141.544 1199.9 141.768 1199.27 142.44L1199.94 139.064H1204.54V137.864ZM1217.52 137.304H1216.47L1210.05 149.544H1211.14L1217.52 137.304ZM1210.02 137.624C1208.32 137.624 1207.38 138.776 1207.38 140.808C1207.38 142.936 1208.26 144.04 1209.95 144.04C1211.63 144.04 1212.53 142.856 1212.53 140.68C1212.53 138.696 1211.65 137.624 1210.02 137.624ZM1209.95 138.552C1210.88 138.552 1211.33 139.272 1211.33 140.744C1211.33 141.688 1211.19 143.128 1209.95 143.128C1209.04 143.128 1208.58 142.392 1208.58 140.888C1208.58 139.336 1209.04 138.552 1209.95 138.552ZM1217.99 142.824C1216.29 142.824 1215.35 143.976 1215.35 146.008C1215.35 148.136 1216.23 149.24 1217.92 149.24C1219.6 149.24 1220.5 148.056 1220.5 145.88C1220.5 143.896 1219.62 142.824 1217.99 142.824ZM1217.92 143.752C1218.85 143.752 1219.3 144.472 1219.3 145.944C1219.3 146.888 1219.15 148.328 1217.92 148.328C1217.01 148.328 1216.55 147.592 1216.55 146.088C1216.55 144.536 1217.01 143.752 1217.92 143.752Z" fill="#CEA055"/>
<path d="M1197 169C1197 166.791 1198.79 165 1201 165H1259C1261.21 165 1263 166.791 1263 169V305H1197V169Z" fill="url(#paint9_linear)"/>
<rect y="305" width="1263" height="3" fill="#6C6C6C"/>
<defs>
<linearGradient id="paint0_linear" x1="63.15" y1="31" x2="-59.2004" y2="59.5362" gradientUnits="userSpaceOnUse">
<stop stop-color="#CDB185"/>
<stop offset="1" stop-color="#EBD3AE"/>
</linearGradient>
<linearGradient id="paint1_linear" x1="196.15" y1="165" x2="89.3893" y2="213.733" gradientUnits="userSpaceOnUse">
<stop stop-color="#CDB185"/>
<stop offset="1" stop-color="#EBD3AE"/>
</linearGradient>
<linearGradient id="paint2_linear" x1="329.15" y1="165" x2="222.389" y2="213.733" gradientUnits="userSpaceOnUse">
<stop stop-color="#CDB185"/>
<stop offset="1" stop-color="#EBD3AE"/>
</linearGradient>
<linearGradient id="paint3_linear" x1="861.15" y1="165" x2="754.389" y2="213.733" gradientUnits="userSpaceOnUse">
<stop stop-color="#CDB185"/>
<stop offset="1" stop-color="#EBD3AE"/>
</linearGradient>
<linearGradient id="paint4_linear" x1="462.15" y1="165" x2="355.389" y2="213.733" gradientUnits="userSpaceOnUse">
<stop stop-color="#CDB185"/>
<stop offset="1" stop-color="#EBD3AE"/>
</linearGradient>
<linearGradient id="paint5_linear" x1="994.15" y1="165" x2="887.389" y2="213.733" gradientUnits="userSpaceOnUse">
<stop stop-color="#CDB185"/>
<stop offset="1" stop-color="#EBD3AE"/>
</linearGradient>
<linearGradient id="paint6_linear" x1="595.15" y1="165" x2="488.389" y2="213.733" gradientUnits="userSpaceOnUse">
<stop stop-color="#CDB185"/>
<stop offset="1" stop-color="#EBD3AE"/>
</linearGradient>
<linearGradient id="paint7_linear" x1="1127.15" y1="165" x2="1020.39" y2="213.733" gradientUnits="userSpaceOnUse">
<stop stop-color="#CDB185"/>
<stop offset="1" stop-color="#EBD3AE"/>
</linearGradient>
<linearGradient id="paint8_linear" x1="728.15" y1="165" x2="621.389" y2="213.733" gradientUnits="userSpaceOnUse">
<stop stop-color="#CDB185"/>
<stop offset="1" stop-color="#EBD3AE"/>
</linearGradient>
<linearGradient id="paint9_linear" x1="1260.15" y1="165" x2="1153.39" y2="213.733" gradientUnits="userSpaceOnUse">
<stop stop-color="#CDB185"/>
<stop offset="1" stop-color="#EBD3AE"/>
</linearGradient>
</defs>
</svg>
